<svg width="1024" height="605" viewBox="0 0 1024 605" fill="none" xmlns="http://www.w3.org/2000/svg">
<path d="M804.415 30.6566C804.415 30.6566 788.113 16.5624 757.215 22.2004C726.315 27.8383 704.598 70.1209 682.101 79.5161C659.603 88.9127 615.25 116.658 611.936 140.37C655.265 109.115 671.536 122.739 699.739 118.98C727.941 115.222 730.111 86.5632 770.79 87.5036C811.467 88.4425 854.856 132.225 895.533 107.75C936.21 83.2762 983.939 54.1474 945.43 30.1879C906.921 6.2283 828.822 42.8715 804.415 30.6566Z" fill="url(#paint0_linear_413_697)"/>
<path d="M144.364 125.917C144.364 125.917 140.121 145.526 162.921 164.451C185.718 183.376 238.278 175.068 259.922 185.862C281.566 196.656 333.03 212.74 357.506 201.738C303.273 188.368 307.086 169.045 287.598 150.989C268.112 132.934 239.567 147.543 217.524 117.915C195.481 88.2862 212.749 32.5588 166.479 17.2619C120.206 1.96501 65.5208 -15.7516 64.3938 25.3067C63.2668 66.3651 142.246 101.569 144.364 125.917Z" fill="url(#paint1_linear_413_697)"/>
<path d="M204.504 347.494C203.018 347.494 201.917 347.424 201.442 347.252C200.888 347.05 199.197 346.439 184.432 323.609L187.086 322.322C192.6 330.847 200.962 343.255 202.733 344.842C204.34 345.067 213.17 344.534 220.995 343.853L221.301 346.476C216.374 346.903 208.815 347.494 204.504 347.494Z" fill="#F26647"/>
<path d="M258.026 358.565V359.329C258.026 359.329 257.22 373.82 244.696 373.195C244.664 373.195 244.635 373.188 244.603 373.188C236.858 372.754 227.271 369.623 220.844 367.298C216.804 365.834 214.004 364.687 213.693 364.733C212.879 364.845 223.179 401.963 223.042 404.077C223.027 404.361 222.951 404.663 222.836 404.975C222.107 406.984 219.558 409.395 218.029 409.595C217.868 409.615 217.542 409.357 217.079 408.855C212.422 403.841 193.988 374.712 193.485 365.201C192.946 354.749 199.046 348.454 207.317 347.255C213.418 346.372 231.26 348.5 240.198 349.68C243.372 350.102 245.417 350.398 245.417 350.398L258.026 358.565Z" fill="#0A2533"/>
<path opacity="0.25" d="M223.043 404.077C223.028 404.361 222.952 404.663 222.838 404.975C222.108 406.984 219.56 409.395 218.031 409.595C217.87 409.615 217.544 409.357 217.081 408.855C223.639 400.835 206.496 361.787 210.224 361.676C212.065 361.623 216.136 364.332 220.846 367.298C216.806 365.834 214.006 364.687 213.695 364.733C212.879 364.845 223.181 401.961 223.043 404.077Z" fill="#010101"/>
<path opacity="0.25" d="M258.024 358.565V359.329C258.024 359.329 257.218 373.82 244.694 373.195C247.158 371.489 247.615 368.483 247.431 364.845C247.22 360.633 242.722 353.424 240.196 349.681C243.37 350.103 245.416 350.4 245.416 350.4L258.024 358.565Z" fill="#010101"/>
<path d="M231.373 310.981C230.956 311.549 230.682 312.023 230.682 312.385C230.682 312.385 230.667 312.363 230.637 312.319C230.491 312.095 229.967 311.311 229.292 310.401C228.15 308.873 226.574 306.973 225.623 306.742C224.094 306.38 220.024 310.834 214.523 311.191C214.158 311.219 213.794 311.224 213.42 311.212C207.364 310.974 200.942 303.534 206.1 294.768C207.904 297.978 211.609 298.057 211.609 298.057C211.609 298.057 209.349 297.663 209.266 295.236C215.86 296.251 219.294 291.947 224.992 293.515C230.682 295.077 230.326 298.055 230.326 298.055C230.326 298.055 234.662 296.566 236.015 301.265C237.103 305.024 233.048 308.728 231.373 310.981Z" fill="#0A2533"/>
<path d="M230.637 312.32C230.25 313.506 229.51 314.799 228.514 315.845C227.306 317.125 225.707 318.06 223.903 318.021C220.054 317.942 216.226 313.467 214.523 311.192C220.024 310.837 224.094 306.383 225.623 306.744C226.574 306.975 228.148 308.873 229.292 310.402C229.965 311.313 230.491 312.097 230.637 312.32Z" fill="url(#paint2_linear_413_697)"/>
<path d="M236.198 312.773C236.198 312.773 233.307 318.494 232.22 317.241C231.634 316.563 229.944 316.116 228.515 315.844C229.513 314.797 230.251 313.504 230.638 312.319C230.669 312.363 230.683 312.385 230.683 312.385C230.683 312.022 230.957 311.547 231.374 310.981C233.474 312.353 236.198 312.773 236.198 312.773Z" fill="url(#paint3_linear_413_697)"/>
<path d="M256.534 361.089C251.923 360.503 239.454 348.758 239.454 343.704C239.454 342.991 239.363 342.2 239.21 341.339C238.252 336.079 234.746 328.368 233.284 322.918C231.588 316.578 234.029 314.205 234.029 314.205C239.705 305.751 252.55 322.51 259.877 335.947L259.885 335.954C262.349 340.481 263.979 344.686 264.13 347.501C264.654 357.015 261.144 361.676 256.534 361.089Z" fill="#5462AD"/>
<path opacity="0.25" d="M256.535 361.09C251.924 360.503 239.455 348.759 239.455 343.704C239.455 342.992 239.364 342.2 239.211 341.339L239.182 339.085L243.699 318.575C243.699 318.575 249.938 325.001 250.935 336.508C251.924 348.015 266.55 350.519 259.884 335.954C262.348 340.481 263.978 344.686 264.129 347.501C264.655 357.015 261.145 361.676 256.535 361.09Z" fill="#010101"/>
<path d="M246.865 335.722C246.744 335.812 246.53 335.885 246.249 335.953C244.111 336.464 237.88 336.387 235.285 335.946C234.898 335.88 234.585 335.801 234.389 335.722C232.677 335.017 234.389 333.291 233.849 330.239C233.308 327.181 231.953 318.258 237.195 315.515C242.68 312.648 246.681 323.501 246.865 328.907C247.048 334.313 248.045 334.859 246.865 335.722Z" fill="#5462AD"/>
<path d="M246.249 335.953C246.249 335.953 245.999 349.153 243.091 355.381C243.091 355.388 243.091 355.388 243.091 355.394C242.186 357.332 241.022 358.591 239.523 358.565C233.216 358.446 219.051 345.47 217.758 344.996C216.472 344.527 210.028 345.351 210.233 344.527C210.439 343.704 212.949 341.883 215.656 341.008C218.374 340.126 217.894 340.652 235.316 347.586C235.08 346.254 235.179 340.494 235.255 337.232C235.263 336.737 235.28 336.303 235.287 335.947C237.881 336.387 244.11 336.466 246.249 335.953Z" fill="url(#paint4_linear_413_697)"/>
<path d="M228.238 413.001C228.68 415.353 210.435 431.44 211.384 427.215C212.328 422.985 218.027 409.593 218.027 409.593C219.556 409.394 222.105 406.984 222.835 404.973C224.327 407.214 227.865 411.05 228.238 413.001Z" fill="#5462AD"/>
<path opacity="0.25" d="M244.695 363.595C244.695 363.595 215.408 358.832 209.623 361.135C203.837 363.437 220.207 403.528 220.207 403.528" stroke="white" stroke-width="0.401894" stroke-miterlimit="10"/>
<path opacity="0.25" d="M243.091 355.381C243.647 352.731 244.066 345.027 242.529 341.982C241.494 339.925 237.645 338.159 235.254 337.232C235.262 336.737 235.279 336.303 235.285 335.947C237.88 336.389 244.111 336.466 246.249 335.954C246.249 335.953 245.999 349.153 243.091 355.381Z" fill="#010101"/>
<path d="M716.402 266.101C715.81 268.078 714.82 270.622 713.283 274.028C711.092 278.912 707.782 285.568 702.905 294.847C702.784 299.56 701.05 329.618 700.578 336.538C700.517 337.382 700.479 337.882 700.464 337.948C700.396 338.251 699.14 338.831 697.772 339.128C696.478 339.418 695.094 339.456 694.498 338.771C693.274 337.362 685.004 308.936 684.602 302.243C684.192 295.547 683.788 297.075 693.274 270.417C690.968 271.353 676.026 271.004 676.026 271.004C676.026 271.004 678.765 303.652 678.78 303.888C678.78 303.921 678.757 304 678.704 304.112C678.53 304.561 677.981 305.557 677.388 306.057C677.122 306.286 676.847 306.418 676.596 306.352C676.452 306.321 676.101 306.043 675.593 305.575C672.725 302.938 664.858 294.069 660.596 285.797C655.582 276.05 654.356 269.235 659.105 262.427C663.853 255.614 687.894 255.092 687.894 255.092C689.416 255.46 692.915 255.823 696.377 256.535C697.396 256.74 698.415 256.984 699.375 257.261C704.641 258.776 714.675 260.7 716.836 259.62C717.316 261.074 717.422 262.774 716.402 266.101Z" fill="#6561AB"/>
<path d="M736.33 243.405C735.378 243.872 724.332 243.516 716.866 241.051C716.904 242.19 717.072 243.984 717.262 246.021C717.56 249.23 717.902 253.046 717.818 255.827C717.772 257.811 717.507 259.273 716.866 259.61C716.858 259.617 716.851 259.623 716.835 259.623C715.688 260.197 712.324 259.92 708.627 259.314C706.237 258.918 703.712 258.385 701.559 257.85C700.774 257.652 700.038 257.456 699.376 257.264C695.146 256.038 689.867 255.569 687.894 255.095C687.399 254.976 687.118 254.864 687.102 254.732C687.042 254.086 688.935 252.623 689.826 251.094C689.931 250.903 690.075 250.619 690.236 250.257C690.959 248.655 692.093 245.624 692.64 243.693C692.967 242.553 693.089 241.802 692.801 241.932C691.919 242.341 686.698 250.797 686.089 250.797C685.877 250.797 684.826 250.277 683.578 249.544C681.478 248.311 678.839 246.499 678.778 245.636C678.763 245.517 678.801 245.419 678.9 245.34C680.125 244.338 689.475 230.715 692.867 227.809C694.458 226.438 696.338 225.615 697.867 225.127C699.578 224.574 700.872 224.448 700.872 224.448C702.888 224.388 704.918 224.62 706.897 225.054C713.623 226.511 719.794 230.189 723.309 232.007C727.85 234.353 730.969 233.708 732.118 234.295C733.278 234.89 737.271 242.93 736.33 243.405Z" fill="#F26647"/>
<path d="M717.82 255.827C711.566 255.893 697.665 255.412 690.239 250.258C690.962 248.657 692.096 245.625 692.644 243.694C692.644 243.694 707.319 247.549 717.264 246.021C717.561 249.23 717.904 253.046 717.82 255.827Z" fill="#F69181"/>
<path opacity="0.25" d="M706.901 225.057C706.659 227.31 705.737 229.736 702.906 229.545C698.913 229.276 698.052 226.447 697.87 225.13C699.581 224.577 700.875 224.451 700.875 224.451C702.891 224.39 704.922 224.621 706.901 225.057Z" fill="#010101"/>
<path d="M705.21 220.146C705.21 220.146 704.533 217.741 703.171 216.502C702.069 218.057 697.816 218.854 694.536 219.059C692.984 219.158 691.645 219.125 690.968 218.973C688.663 211.217 695.852 207.815 699.855 207.578C703.848 207.34 707.448 209.918 706.36 213.853C709.95 216.918 705.21 220.146 705.21 220.146Z" fill="#321212"/>
<path d="M705.209 220.146C705.004 220.661 704.685 221.564 704.137 222.407H704.129C703.232 223.81 701.726 225.056 699.116 224.14C699.025 224.107 698.934 224.074 698.85 224.035C696.652 223.171 695.51 221.491 694.933 220.166C694.751 219.75 694.622 219.369 694.537 219.059C697.815 218.854 702.07 218.057 703.172 216.502C703.234 216.562 703.295 216.621 703.354 216.68C704.594 217.958 705.209 220.146 705.209 220.146Z" fill="url(#paint5_linear_413_697)"/>
<path d="M704.867 226.136C704.465 228.311 700.326 228.194 699.876 226.783C699.64 226.052 699.373 225.347 699.168 224.832C698.986 224.352 698.849 224.041 698.849 224.041V224.035C698.933 224.074 699.024 224.107 699.115 224.14C701.725 225.056 703.231 223.811 704.128 222.406H704.136C703.855 222.894 704.608 223.507 704.859 224.66C704.952 225.076 704.975 225.565 704.867 226.136Z" fill="url(#paint6_linear_413_697)"/>
<path d="M683.375 312.228C682.971 314.931 666.834 325.501 667.109 323.623C667.374 321.744 675.592 305.578 675.592 305.578C676.102 306.046 676.452 306.324 676.595 306.355C677.409 306.56 678.443 304.767 678.701 304.115C680.871 306.474 683.739 309.816 683.375 312.228Z" fill="#262166"/>
<path d="M694.494 360.78C690.698 353.727 694.494 338.772 694.494 338.772C695.712 340.183 700.322 338.536 700.458 337.95C700.475 337.884 700.511 337.382 700.572 336.539C700.572 336.539 701.181 343.704 701.904 349.773C702.628 355.843 698.292 367.824 694.494 360.78Z" fill="#262166"/>
<path opacity="0.25" d="M693.271 270.419C690.966 271.355 676.024 271.005 676.024 271.005C676.024 271.005 678.763 303.653 678.778 303.89C678.778 303.923 678.754 304.001 678.702 304.113C678.528 304.562 677.978 305.558 677.386 306.058C674.632 294.887 669.14 273.468 673.52 269.791C679.129 265.092 694.314 263.84 694.534 264.868C694.756 265.903 693.271 270.419 693.271 270.419Z" fill="#010101"/>
<path d="M682.523 254.99C682.302 255.386 682.188 255.715 682.258 255.933C682.584 257.027 680.849 270.728 681.482 272.139C682.112 273.549 682.478 278.011 682.112 280.832C681.746 283.653 674.97 285.373 674.97 282.947C674.97 280.516 675.784 274.802 676.057 272.608C676.33 270.42 673.798 254.563 674.475 252.368C674.917 250.937 676.613 248.513 677.738 247.004C678.339 246.194 678.781 245.639 678.781 245.639C678.882 247.015 685.538 250.8 686.092 250.8C686.09 250.798 683.413 253.396 682.523 254.99Z" fill="url(#paint7_linear_413_697)"/>
<path opacity="0.25" d="M716.402 266.101C713.411 265.91 710.049 264.776 707.705 262.739C704.981 260.38 700.439 258.192 696.376 256.538C697.395 256.743 698.415 256.987 699.375 257.263C704.64 258.779 714.674 260.702 716.835 259.623C717.315 261.074 717.421 262.774 716.402 266.101Z" fill="#010101"/>
<path opacity="0.25" d="M713.284 274.03C711.093 278.914 707.783 285.569 702.906 294.849C702.785 299.562 701.051 329.62 700.579 336.539C700.518 337.383 700.48 337.884 700.465 337.95C700.397 338.252 699.141 338.833 697.772 339.129C698.084 328.993 697.673 306.929 699.652 300.365C702.016 292.509 712.622 275.111 713.284 274.03Z" fill="#010101"/>
<path opacity="0.25" d="M701.556 257.85C700.772 257.652 700.036 257.456 699.374 257.264C695.144 256.038 689.865 255.569 687.892 255.095C687.397 254.976 687.116 254.864 687.099 254.732C687.04 254.085 688.933 252.623 689.823 251.094C690.705 249.564 693.681 241.518 692.799 241.932C691.917 242.341 686.696 250.797 686.087 250.797C685.875 250.797 684.824 250.277 683.576 249.544C683.705 249.353 683.849 249.161 684.01 248.958C687.26 244.806 692.594 239.64 693.497 235.178C694.22 231.889 695.308 233.767 695.124 237.999C694.962 241.796 694.725 253.422 701.556 257.85Z" fill="#010101"/>
<path opacity="0.25" d="M716.866 259.61C716.857 259.618 716.851 259.623 716.834 259.623C715.687 260.197 712.323 259.92 708.626 259.314C715.237 253.574 711.63 238.026 712.666 238.825C713.882 239.761 716.864 241.052 716.864 241.052C717.003 245.282 718.974 258.497 716.866 259.61Z" fill="#010101"/>
<path opacity="0.25" d="M686.09 250.798C686.09 250.798 683.413 253.396 682.522 254.99C682.499 254.64 682.471 254.318 682.431 254.028C682.226 252.348 679.206 248.695 677.736 247.002C678.337 246.192 678.779 245.638 678.779 245.638C678.88 247.015 685.536 250.798 686.09 250.798Z" fill="#010101"/>
<path opacity="0.25" d="M703.354 216.68C701.728 219.798 696.942 220.159 694.933 220.166C694.751 219.75 694.622 219.369 694.537 219.059C697.815 218.854 702.07 218.057 703.172 216.502C703.234 216.562 703.295 216.621 703.354 216.68Z" fill="#010101"/>
<path opacity="0.25" d="M704.86 224.661C704.556 224.866 704.185 225.018 703.72 225.11C701.537 225.539 700 225.17 699.171 224.833C698.989 224.353 698.852 224.042 698.852 224.042V224.036C698.936 224.075 699.027 224.108 699.118 224.141C701.728 225.057 703.234 223.813 704.131 222.408H704.139C703.858 222.895 704.611 223.507 704.86 224.661Z" fill="#010101"/>
<path d="M740.732 239.213C740.717 239.292 740.696 239.371 740.679 239.444C739.782 242.983 736.511 243.359 735.893 243.128C735.278 242.897 733.649 241.276 732.226 235.563C732.195 235.45 732.173 235.338 732.142 235.221C732.142 235.221 729.068 228.393 727.624 225.11C724.056 223.278 723.379 224.024 722.876 221.908C722.381 219.792 723.965 217.057 724.87 216.661C725.775 216.273 729.838 219.561 730.386 220.774C730.925 221.985 741.546 235.456 740.732 239.213Z" fill="url(#paint8_linear_413_697)"/>
<path opacity="0.25" d="M740.68 239.444C739.783 242.983 736.511 243.359 735.894 243.128C735.278 242.897 733.65 241.276 732.227 235.563C733.132 237.15 734.525 239.207 736.054 240.057C737.734 240.985 739.622 240.689 740.68 239.444Z" fill="#010101"/>
<path d="M608.597 191.254C608.597 191.254 602.837 177.571 603.31 176.513C603.785 175.457 610.113 173.46 610.578 174.046C611.04 174.634 615.04 185.263 614.361 186.026C613.683 186.79 608.597 191.254 608.597 191.254Z" fill="#262166"/>
<path d="M512.735 173.311C512.735 173.311 516.252 174.573 517.816 177.863C519.378 181.152 518.769 169.29 518.769 169.29L517.074 167.939L512.735 173.311Z" fill="url(#paint9_linear_413_697)"/>
<path d="M510.905 173.311C510.905 173.311 515.312 176.159 516.059 176.335C516.803 176.512 518.243 169.053 517.593 167.879C516.939 166.704 514.551 165.529 513.001 166.294C511.448 167.058 510.184 172.849 510.905 173.311Z" fill="url(#paint10_linear_413_697)"/>
<path d="M522.634 174.163C522.634 174.163 519.124 167.116 517.591 165.884C516.057 164.651 513.211 166.236 513.005 166.881C512.8 167.526 516.411 167.997 517.591 169.054C518.769 170.112 515.582 177.922 518.634 180.683C521.684 183.443 522.634 174.163 522.634 174.163Z" fill="url(#paint11_linear_413_697)"/>
<path d="M604.263 192.838C604.263 192.838 607.381 191.37 608.059 190.606C608.736 189.842 607.516 186.965 609.482 184.323C611.448 181.679 615.652 182.443 616.668 185.614C617.685 188.785 615.043 192.779 613.821 194.012C612.6 195.245 604.263 200.412 604.263 200.412" fill="url(#paint12_linear_413_697)"/>
<path d="M606.495 198.964C606.404 199.433 605.848 200.236 604.769 201.331C600.812 205.338 589.91 213.18 570.258 222.144C569.871 223.515 569.567 224.912 569.338 226.308C568.608 230.77 568.622 235.278 568.867 239.33C568.926 240.373 569.002 241.387 569.087 242.362C569.446 246.633 569.932 250.159 569.803 252.202C569.742 253.098 569.56 253.704 569.211 253.974C568.769 254.309 568.304 254.613 567.817 254.884C558.002 260.341 540.138 252.189 537.247 249.736C537.018 249.546 536.881 249.386 536.853 249.275C536.35 247.628 538.297 245.867 539.385 243.046C539.567 242.566 539.75 241.491 539.933 240.021C540.451 235.678 540.899 227.908 541.06 222.062C541.151 218.331 541.127 215.387 540.93 214.608C540.922 214.595 540.922 214.581 540.922 214.581C540.383 212.663 523.925 191.126 518.988 183.494C518.083 182.104 517.567 181.175 517.595 180.911C517.777 179.191 521.573 173.083 522.387 173.161C522.525 173.174 523.028 173.722 523.787 174.631C527.6 179.218 537.856 193.084 539.742 194.85C541.508 196.505 550.492 204.697 554.343 208.209C555.43 209.191 556.107 209.81 556.107 209.81C558.193 209.777 560.283 209.612 562.376 209.33C580.871 206.859 599.047 195.642 603.803 192.524C604.586 192.011 605.006 191.72 605.006 191.72C605.006 191.72 606.906 196.771 606.495 198.964Z" fill="#F47920"/>
<path d="M560.341 216.896C554.033 217.779 554.014 210.669 554.342 208.21C555.429 209.192 556.106 209.812 556.106 209.812C558.191 209.779 560.281 209.614 562.375 209.331C563.159 212.133 562.53 216.594 560.341 216.896Z" fill="#C54527"/>
<path d="M566.727 201.654C565.502 202.293 563.903 202.511 561.865 202.055C560.297 201.712 558.462 200.968 556.324 199.708C556.324 199.708 554.634 201.469 554.499 204.697C550.024 201.35 548.937 198.001 552.733 196.768C551.174 190.897 554.499 189.664 560.053 189.374C565.615 189.077 566.9 194.013 570.223 193.895C570.425 196.527 569.565 200.197 566.727 201.654Z" fill="#262166"/>
<path d="M566.724 201.654C566.663 202.128 566.572 202.674 566.443 203.262C565.697 206.697 563.749 211.488 560.813 211.224C560.661 211.218 560.502 211.191 560.333 211.145C557.694 210.427 556.103 208.206 555.274 206.572C554.726 205.511 554.498 204.7 554.498 204.7C554.543 203.679 554.74 202.802 554.993 202.084C555.532 200.534 556.323 199.711 556.323 199.711C558.461 200.97 560.295 201.715 561.864 202.058C563.901 202.511 565.5 202.293 566.724 201.654Z" fill="url(#paint13_linear_413_697)"/>
<path d="M560.817 213.247C560.786 214.492 560.589 215.467 559.631 215.526C557.689 215.645 555.111 213.45 555.248 211.065C555.293 210.255 555.31 209.392 555.31 208.601C555.31 207.802 555.293 207.078 555.278 206.571C556.107 208.205 557.698 210.425 560.337 211.144C560.506 211.19 560.665 211.217 560.817 211.223C560.809 211.916 560.84 212.614 560.817 213.247Z" fill="url(#paint14_linear_413_697)"/>
<path d="M606.495 198.964C606.404 199.433 605.848 200.236 604.769 201.331C604.82 198.53 604.114 194.28 603.803 192.525C604.585 192.012 605.006 191.721 605.006 191.721C605.006 191.721 606.906 196.771 606.495 198.964Z" fill="#C54527"/>
<path d="M523.784 174.633C520.894 176.775 519.484 181.443 518.984 183.498C518.079 182.108 517.563 181.179 517.591 180.915C517.773 179.195 521.569 173.087 522.383 173.166C522.522 173.177 523.024 173.723 523.784 174.633Z" fill="#C54527"/>
<path d="M569.086 242.362C562.62 243.172 550.453 243.892 539.932 240.023C540.45 235.679 540.898 227.91 541.059 222.064C546.27 223.975 557.521 227.375 569.339 226.307C568.417 231.918 568.675 237.605 569.086 242.362Z" fill="#FCAF17"/>
<path opacity="0.25" d="M567.817 254.885C557.24 260.764 537.322 250.846 536.852 249.276C536.349 247.629 538.297 245.869 539.384 243.047C539.566 242.567 539.75 241.492 539.932 240.023C540.45 235.679 540.898 227.91 541.059 222.064C541.15 218.332 541.127 215.388 540.93 214.61C541.158 215.216 544.734 225.035 546.566 234.591C548.468 244.457 548.057 249.157 553.619 252.326C556.874 254.179 562.817 255.155 567.817 254.885Z" fill="#010101"/>
<path d="M591.985 282.004C591.985 286.077 574.987 308.643 571.467 313.275C571.064 313.81 570.835 314.106 570.835 314.106C570.835 314.106 568.644 313.888 566.84 313.361C565.586 312.984 564.514 312.471 564.514 311.76C564.514 311.613 564.545 311.39 564.598 311.093C565.199 307.949 568.934 296.575 573.728 281.536C571.203 278.874 553.484 268.692 553.484 268.692C553.484 268.692 553.475 268.704 553.467 268.73C552.699 270.266 528.103 319.535 525.309 324.129C525.21 324.294 525.14 324.399 525.096 324.446C523.833 325.857 518.59 326.009 518.226 323.036C518.226 323.03 518.226 323.03 518.226 323.023C516.72 310.568 529.121 273.001 534.896 256.388C535.93 253.409 536.751 251.102 537.246 249.738C540.137 252.189 558.002 260.341 567.817 254.886C568.303 254.615 568.768 254.312 569.21 253.975C569.559 253.706 569.741 253.099 569.803 252.203C569.985 252.374 570.177 252.559 570.365 252.757C577.21 259.537 591.985 278.082 591.985 282.004Z" fill="#9DC2E7"/>
<path d="M527.043 331.023C526.366 333.956 508.463 342.649 510.093 337.389C511.417 333.124 516.392 325.684 518.225 323.022C518.225 323.03 518.225 323.03 518.225 323.035C518.591 326.008 523.834 325.858 525.095 324.446C525.139 324.4 525.209 324.295 525.308 324.129C526.222 326.397 527.484 329.125 527.043 331.023Z" fill="#262166"/>
<path d="M577.348 328.438C575.986 329.026 558.365 323.153 558.769 321.156C559.179 319.159 564.595 311.093 564.595 311.093C564.542 311.39 564.511 311.613 564.511 311.76C564.511 313.478 570.833 314.106 570.833 314.106C570.833 314.106 571.061 313.81 571.465 313.275C572.251 319.371 578.619 327.886 577.348 328.438Z" fill="#262166"/>
<path opacity="0.25" d="M551.179 267.01C551.179 267.01 531.653 300.226 524.33 323.023" stroke="#010101" stroke-width="0.401894" stroke-miterlimit="10"/>
<path opacity="0.25" d="M555.786 267.01C555.786 267.01 577.48 279.342 578.296 281.339C579.108 283.336 567.041 311.094 567.041 311.094" stroke="#010101" stroke-width="0.401894" stroke-miterlimit="10"/>
<path opacity="0.25" d="M570.363 252.755C567.975 261.019 554.142 258.773 547.067 257.185C542.951 256.262 538.233 256.229 534.896 256.386C535.93 253.408 536.751 251.101 537.245 249.736C540.137 252.188 558.001 260.34 567.816 254.884C568.303 254.613 568.768 254.311 569.21 253.974C569.559 253.704 569.741 253.098 569.802 252.202C569.982 252.374 570.173 252.559 570.363 252.755Z" fill="#010101"/>
<path opacity="0.25" d="M566.841 313.362C565.587 312.985 564.514 312.472 564.514 311.761C564.514 311.615 564.546 311.391 564.599 311.094C565.199 307.951 568.934 296.576 573.729 281.537C571.203 278.875 553.484 268.693 553.484 268.693C553.484 268.693 554.929 264.468 556.557 264.153C558.184 263.843 576.985 277.854 579.062 280.754C580.894 283.302 568.09 304.102 566.841 313.362Z" fill="#010101"/>
<path opacity="0.25" d="M566.729 201.654C566.667 202.128 566.576 202.674 566.447 203.262C561.708 205.352 557.057 200.646 556.503 200.705C556.184 200.738 555.528 201.45 554.997 202.082C555.537 200.533 556.328 199.71 556.328 199.71C558.466 200.969 560.299 201.714 561.868 202.057C563.905 202.511 565.504 202.293 566.729 201.654Z" fill="#010101"/>
<path opacity="0.25" d="M560.817 213.247C557.69 212.587 555.962 209.872 555.31 208.601C555.31 207.802 555.293 207.078 555.278 206.571C556.107 208.205 557.698 210.425 560.337 211.144C560.506 211.19 560.665 211.217 560.817 211.223C560.809 211.916 560.84 212.614 560.817 213.247Z" fill="#010101"/>
<path opacity="0.25" d="M569.34 226.309C568.61 230.77 568.623 235.278 568.868 239.331C567.635 234.829 566.556 229.991 567.817 227.192C569.992 222.368 570.228 222.144 570.26 222.144C569.871 223.515 569.567 224.911 569.34 226.309Z" fill="#010101"/>
<path d="M839.567 418.062L824.35 379.397L798.941 386.895L747.042 254.984L689.183 272.06L689.356 272.509L670.694 342.289L644.142 441.559L659.631 471.184L714.266 455.057L734.154 449.184L756.295 442.646L774.371 488.601L832.233 471.525L814.155 425.57L839.567 418.062ZM734.359 405.962L721.234 409.837L696.098 417.258L713.255 343.472L714.868 337.349L741.078 403.977L734.359 405.962Z" fill="#9DC2E7"/>
<path opacity="0.25" d="M814.156 425.568L832.234 471.523L795.38 457.868L736.477 274.03L714.87 337.351L704.864 373.215L670.697 342.286L689.359 272.508L689.186 272.059L747.044 254.984L798.941 386.897L824.35 379.397L839.568 418.062L814.156 425.568Z" fill="#010101"/>
<path opacity="0.25" d="M734.153 449.182L714.265 455.055L717.187 419.552V413.079L721.233 409.837L723.837 407.754L734.357 405.962C734.358 405.962 733.706 432.04 734.153 449.182Z" fill="#010101"/>
<path d="M734.365 405.961C734.365 405.961 729.393 400.554 720.715 401.179C712.037 401.804 707.195 404.623 706.903 412.453C706.612 420.284 708.768 459.747 706.788 475.408C704.807 491.069 717.132 492.635 717.839 481.046C718.547 469.458 713.309 433.126 717.192 427.175C721.077 421.225 718.713 433.752 722.787 437.825C726.863 441.896 731.2 434.693 726.863 424.983C722.522 415.273 734.365 405.961 734.365 405.961Z" fill="url(#paint15_linear_413_697)"/>
<path d="M620.891 424.461L612.171 385.889C605.721 357.359 593.281 336.548 574.854 323.444C556.418 310.349 533.649 306.098 506.54 310.699C479.431 315.299 460.206 326.621 448.877 344.657C437.541 362.702 435.107 386.038 441.581 414.668L450.33 453.386C456.759 481.817 469.184 502.583 487.618 515.678C495.401 521.207 503.968 525.161 513.318 527.529C526.107 530.778 540.366 531.061 556.091 528.397C564.239 527.02 571.681 525.023 578.398 522.413C593.948 516.376 605.679 507.064 613.593 494.464C624.93 476.42 627.358 453.083 620.891 424.461ZM566.462 476.235C563.48 484.145 557.173 488.916 547.54 490.55C537.566 492.243 529.462 489.818 523.21 483.268C518.948 478.805 515.304 472.183 512.282 463.398C512.282 463.391 512.282 463.384 512.282 463.384C512.276 463.371 512.276 463.357 512.267 463.338C510.867 459.265 509.605 454.724 508.478 449.722L496.238 395.57C493.37 381.347 493.362 370.368 496.207 362.63C499.053 354.895 505.352 350.194 515.097 348.547C522.531 347.282 528.944 348.37 534.33 351.797H534.339C536.172 352.97 537.89 354.406 539.489 356.121C545.781 362.862 550.649 373.856 554.088 389.085L565.934 441.486C569.27 456.741 569.445 468.319 566.462 476.235Z" fill="#F26647"/>
<path opacity="0.25" d="M570.836 483.471C573.348 486.82 576.686 509.583 578.399 522.414C571.68 525.024 564.238 527.021 556.091 528.399C540.367 531.061 526.108 530.778 513.319 527.53C513.842 526.508 514.322 525.44 514.732 524.346C522.714 503.224 512.74 465.113 512.283 463.398C515.303 472.183 518.947 478.805 523.21 483.268C529.463 489.818 537.567 492.243 547.541 490.55C557.172 488.914 563.48 484.144 566.462 476.235C569.446 468.321 569.269 456.741 565.938 441.484L554.092 389.084C550.653 373.854 545.783 362.861 539.493 356.119C537.894 354.406 536.176 352.97 534.343 351.796C553.584 355.064 569.211 406.667 575.723 431.56C582.227 456.457 582.775 467.971 570.836 483.471Z" fill="#010101"/>
<path d="M516.529 473.523C516.529 473.523 517.777 476.348 524.33 477.914C530.885 479.479 537.032 470.697 541.371 473.523C545.71 476.348 552.654 488.059 558.764 486.275C564.873 484.492 566.681 512.68 563.79 515.813C560.897 518.945 558.817 493.629 551.179 494.386C543.54 495.14 549.326 514.246 544.987 517.692C540.648 521.138 542.456 509.236 537.757 507.043C533.055 504.851 542.819 602.884 535.585 604.449C528.353 606.016 523.654 600.064 526.546 579.08C529.439 558.097 525.821 485.745 521.482 481.986C517.147 478.228 517.418 477.522 516.529 473.523Z" fill="#6561AB"/>
<path d="M417.111 271.249L358.575 262.536L358.484 262.99L229.212 389.064L226.543 420.579L245.084 423.34L277.176 428.118L320.253 434.532L324.347 435.138L321.265 450.684L319.836 457.876L315.126 481.634L353.226 487.308L373.664 490.347L382.883 443.851L408.599 447.673L416.358 408.545L390.643 404.723L417.111 271.249ZM344.037 335.854L332.098 396.011L317.818 393.882L286.586 389.237L303.879 371.357L307.836 367.265L340.81 333.173L345.473 328.6L344.037 335.854Z" fill="#6561AB"/>
<path opacity="0.25" d="M320.252 434.532L277.176 428.118C282.25 413.6 288.581 393.591 286.587 389.236L317.82 393.88C319.821 396.769 321.403 400.741 321.83 406.193C322.589 415.842 320.929 425.694 320.252 434.532Z" fill="#010101"/>
<path d="M288.451 389.517C288.451 389.517 293.147 383.872 303.724 385.635C314.3 387.398 315.114 398.674 310.504 411.124C305.893 423.574 304.809 467.031 306.977 481.125C309.148 495.219 307.791 501.798 302.64 502.266C297.488 502.736 295.046 485.352 298.029 473.139C301.013 460.924 300.742 449.648 295.86 451.527C290.978 453.408 295.046 458.106 292.605 462.333C290.164 466.561 282.842 463.977 283.114 455.99C283.385 448.002 298.129 396.097 288.451 389.517Z" fill="#9DC2E7"/>
<path opacity="0.25" d="M390.643 404.724L416.358 408.545L408.598 447.673L382.883 443.851L373.662 490.347L353.226 487.306L389.145 293.168L417.111 271.249L390.643 404.724Z" fill="#010101"/>
<path d="M514.542 223.773C520.383 223.773 525.119 219.671 525.119 214.611C525.119 209.551 520.383 205.45 514.542 205.45C508.701 205.45 503.966 209.551 503.966 214.611C503.966 219.671 508.701 223.773 514.542 223.773Z" fill="#F47920"/>
<path d="M329.547 273.307C335.388 273.307 340.123 269.206 340.123 264.146C340.123 259.086 335.388 254.984 329.547 254.984C323.706 254.984 318.971 259.086 318.971 264.146C318.971 269.206 323.706 273.307 329.547 273.307Z" fill="#9DC2E7"/>
<path d="M503.971 553.475C509.812 553.475 514.547 549.374 514.547 544.314C514.547 539.254 509.812 535.152 503.971 535.152C498.13 535.152 493.395 539.254 493.395 544.314C493.395 549.374 498.13 553.475 503.971 553.475Z" fill="#F26647"/>
<path d="M822.064 245.722C824.317 245.722 826.143 244.14 826.143 242.189C826.143 240.237 824.317 238.655 822.064 238.655C819.811 238.655 817.984 240.237 817.984 242.189C817.984 244.14 819.811 245.722 822.064 245.722Z" fill="#F47920"/>
<path d="M510.463 300.745C512.716 300.745 514.542 299.163 514.542 297.211C514.542 295.26 512.716 293.677 510.463 293.677C508.21 293.677 506.384 295.26 506.384 297.211C506.384 299.163 508.21 300.745 510.463 300.745Z" fill="#9DC2E7"/>
<path d="M388.435 252.9C390.688 252.9 392.514 251.318 392.514 249.366C392.514 247.415 390.688 245.833 388.435 245.833C386.182 245.833 384.355 247.415 384.355 249.366C384.355 251.318 386.182 252.9 388.435 252.9Z" fill="#6561AB"/>
<defs>
<linearGradient id="paint0_linear_413_697" x1="863.587" y1="59.0722" x2="504.114" y2="155.123" gradientUnits="userSpaceOnUse">
<stop stop-color="white" stop-opacity="0"/>
<stop offset="1" stop-color="#9DC2E7"/>
</linearGradient>
<linearGradient id="paint1_linear_413_697" x1="138.087" y1="67.5628" x2="377.542" y2="322.122" gradientUnits="userSpaceOnUse">
<stop stop-color="white" stop-opacity="0"/>
<stop offset="1" stop-color="#9DC2E7"/>
</linearGradient>
<linearGradient id="paint2_linear_413_697" x1="221.846" y1="317.741" x2="222.969" y2="305.492" gradientUnits="userSpaceOnUse">
<stop stop-color="#FBC4AF"/>
<stop offset="1" stop-color="#EA8B69"/>
</linearGradient>
<linearGradient id="paint3_linear_413_697" x1="240.642" y1="313.656" x2="227.647" y2="314.75" gradientUnits="userSpaceOnUse">
<stop stop-color="#FBC4AF"/>
<stop offset="1" stop-color="#EA8B69"/>
</linearGradient>
<linearGradient id="paint4_linear_413_697" x1="223.601" y1="359.679" x2="232.718" y2="321.885" gradientUnits="userSpaceOnUse">
<stop stop-color="#FBC4AF"/>
<stop offset="1" stop-color="#EA8B69"/>
</linearGradient>
<linearGradient id="paint5_linear_413_697" x1="699.671" y1="223.6" x2="700.078" y2="212.849" gradientUnits="userSpaceOnUse">
<stop stop-color="#FBC4AF"/>
<stop offset="1" stop-color="#EA8B69"/>
</linearGradient>
<linearGradient id="paint6_linear_413_697" x1="702.08" y1="228.17" x2="701.775" y2="220.533" gradientUnits="userSpaceOnUse">
<stop stop-color="#FBC4AF"/>
<stop offset="1" stop-color="#EA8B69"/>
</linearGradient>
<linearGradient id="paint7_linear_413_697" x1="674.88" y1="285.798" x2="682.248" y2="230.512" gradientUnits="userSpaceOnUse">
<stop stop-color="#FBC4AF"/>
<stop offset="1" stop-color="#EA8B69"/>
</linearGradient>
<linearGradient id="paint8_linear_413_697" x1="729.497" y1="219.499" x2="735.244" y2="254.489" gradientUnits="userSpaceOnUse">
<stop stop-color="#FBC4AF"/>
<stop offset="1" stop-color="#EA8B69"/>
</linearGradient>
<linearGradient id="paint9_linear_413_697" x1="514.141" y1="168.331" x2="517.872" y2="177.484" gradientUnits="userSpaceOnUse">
<stop stop-color="#FBC4AF"/>
<stop offset="1" stop-color="#EA8B69"/>
</linearGradient>
<linearGradient id="paint10_linear_413_697" x1="506.943" y1="168.115" x2="518.179" y2="173.557" gradientUnits="userSpaceOnUse">
<stop stop-color="#FBC4AF"/>
<stop offset="1" stop-color="#EA8B69"/>
</linearGradient>
<linearGradient id="paint11_linear_413_697" x1="513.711" y1="164.826" x2="519.679" y2="179.465" gradientUnits="userSpaceOnUse">
<stop stop-color="#FBC4AF"/>
<stop offset="1" stop-color="#EA8B69"/>
</linearGradient>
<linearGradient id="paint12_linear_413_697" x1="621.835" y1="178.658" x2="603.792" y2="203.417" gradientUnits="userSpaceOnUse">
<stop stop-color="#FBC4AF"/>
<stop offset="1" stop-color="#EA8B69"/>
</linearGradient>
<linearGradient id="paint13_linear_413_697" x1="561.536" y1="212.494" x2="559.803" y2="189.195" gradientUnits="userSpaceOnUse">
<stop stop-color="#FBC4AF"/>
<stop offset="1" stop-color="#EA8B69"/>
</linearGradient>
<linearGradient id="paint14_linear_413_697" x1="557.597" y1="212.675" x2="558.416" y2="206.648" gradientUnits="userSpaceOnUse">
<stop stop-color="#FBC4AF"/>
<stop offset="1" stop-color="#EA8B69"/>
</linearGradient>
<linearGradient id="paint15_linear_413_697" x1="714.975" y1="366.558" x2="724.751" y2="547.136" gradientUnits="userSpaceOnUse">
<stop stop-color="#FCAF17"/>
<stop offset="1" stop-color="#F47920"/>
</linearGradient>
</defs>
</svg>
