<svg width="193" height="41" viewBox="0 0 193 41" fill="none" xmlns="http://www.w3.org/2000/svg">
<g id="3">
<path id="Vector" d="M0.844238 20.7295C0.844238 11.3014 0.844238 6.58735 3.77317 3.65842C6.7021 0.729492 11.4161 0.729492 20.8442 0.729492C30.2723 0.729492 34.9863 0.729492 37.9153 3.65842C40.8442 6.58735 40.8442 11.3014 40.8442 20.7295C40.8442 30.1576 40.8442 34.8716 37.9153 37.8006C34.9863 40.7295 30.2723 40.7295 20.8442 40.7295C11.4161 40.7295 6.7021 40.7295 3.77317 37.8006C0.844238 34.8716 0.844238 30.1576 0.844238 20.7295Z" fill="#232B36"/>
<path id="Vector_2" d="M24.8439 26.7295C25.3962 26.7295 25.854 27.1816 25.7443 27.7229C25.5504 28.6789 25.0794 29.565 24.3794 30.265C23.4418 31.2027 22.17 31.7295 20.8439 31.7295C19.5178 31.7295 18.2461 31.2027 17.3084 30.265C16.6084 29.565 16.1374 28.6789 15.9436 27.7229C15.8338 27.1816 16.2916 26.7295 16.8439 26.7295H24.8439Z" fill="#2DF8BB"/>
<path id="Vector_3" d="M26.9467 18.506C26.4132 18.6489 26.0865 19.207 26.357 19.6885C26.6417 20.1953 27.0355 20.6376 27.5146 20.9809C28.2668 21.5199 29.1826 21.7815 30.1061 21.7209C31.0295 21.6604 31.9034 21.2816 32.5788 20.649C33.2543 20.0164 33.6894 19.1691 33.8102 18.2516C33.931 17.3341 33.73 16.4031 33.2413 15.6172C32.7526 14.8314 32.0065 14.2393 31.1302 13.9418C30.2539 13.6443 29.3016 13.6599 28.4355 13.9859C27.8839 14.1935 27.3891 14.5188 26.9829 14.9346C26.597 15.3297 26.7681 15.9534 27.2464 16.2295L27.7537 16.5224C28.5252 16.9679 28.3731 18.1238 27.5125 18.3544L26.9467 18.506Z" fill="#2DF8BB"/>
<path id="Vector_4" d="M14.7422 18.506C15.2757 18.6489 15.6024 19.207 15.3319 19.6885C15.0472 20.1953 14.6534 20.6376 14.1744 20.9809C13.4222 21.5199 12.5063 21.7815 11.5829 21.7209C10.6594 21.6604 9.78555 21.2816 9.11012 20.649C8.43469 20.0164 7.9995 19.1691 7.87871 18.2516C7.75792 17.3341 7.95899 16.4031 8.44768 15.6172C8.93636 14.8314 9.68242 14.2393 10.5587 13.9418C11.435 13.6443 12.3874 13.6599 13.2535 13.9859C13.805 14.1935 14.2999 14.5188 14.7061 14.9346C15.092 15.3297 14.9208 15.9534 14.4425 16.2295L13.9352 16.5224C13.1637 16.9679 13.3159 18.1238 14.1764 18.3544L14.7422 18.506Z" fill="#2DF8BB"/>
<g id="Alterbone">
<path d="M62.6285 30.4749L61.5377 26.3098H56.8024L55.7364 30.4749H51.968L56.6537 13.1702H61.9095L66.5952 30.4749H62.6285ZM59.2816 16.765H59.0833L57.3974 23.31H60.9674L59.2816 16.765Z" fill="#232B36"/>
<path d="M69.3488 27.6238H73.2659V14.98H69.3488V12.1289H76.9351V27.6238H80.8522V30.4749H69.3488V27.6238Z" fill="#232B36"/>
<path d="M91.9112 30.4749C90.5889 30.4749 89.6055 30.1278 88.9609 29.4336C88.3163 28.7394 87.994 27.8552 87.994 26.7809V20.5333H84.5232V17.6823H86.7792C87.3247 17.6823 87.7131 17.5748 87.9445 17.36C88.1759 17.1451 88.2915 16.7484 88.2915 16.17V13.1702H91.6632V17.6823H96.6464V20.5333H91.6632V27.6238H96.6464V30.4749H91.9112Z" fill="#232B36"/>
<path d="M107.086 30.7724C104.937 30.7724 103.309 30.1774 102.202 28.9873C101.094 27.7973 100.54 26.1776 100.54 24.1281C100.54 23.0869 100.681 22.1531 100.962 21.3267C101.259 20.4838 101.673 19.7731 102.202 19.1946C102.747 18.5996 103.4 18.1533 104.16 17.8558C104.937 17.5418 105.805 17.3848 106.763 17.3848C107.722 17.3848 108.581 17.5418 109.342 17.8558C110.102 18.1533 110.746 18.583 111.275 19.145C111.804 19.7069 112.209 20.3928 112.49 21.2027C112.788 21.9961 112.936 22.8886 112.936 23.8802V24.9711H104.185V25.1942C104.185 26.0206 104.441 26.69 104.953 27.2023C105.466 27.6982 106.218 27.9461 107.209 27.9461C107.97 27.9461 108.623 27.8056 109.168 27.5246C109.713 27.2271 110.184 26.8387 110.581 26.3594L112.564 28.5163C112.069 29.1278 111.374 29.6567 110.482 30.103C109.589 30.5492 108.457 30.7724 107.086 30.7724ZM106.788 20.0127C105.995 20.0127 105.358 20.2606 104.879 20.7565C104.416 21.2358 104.185 21.8886 104.185 22.715V22.9133H109.342V22.715C109.342 21.8721 109.11 21.211 108.647 20.7317C108.201 20.2524 107.581 20.0127 106.788 20.0127Z" fill="#232B36"/>
<path d="M116.954 27.6238H119.905V20.5333H116.954V17.6823H123.574V21.3019H123.747C123.863 20.8391 124.02 20.3928 124.218 19.9631C124.433 19.5169 124.698 19.1285 125.012 18.7979C125.342 18.4508 125.739 18.1781 126.202 17.9798C126.665 17.7814 127.21 17.6823 127.838 17.6823H129.053V21.054H126.326C125.417 21.054 124.731 21.3267 124.268 21.8721C123.805 22.401 123.574 23.0538 123.574 23.8306V27.6238H127.788V30.4749H116.954V27.6238Z" fill="#232B36"/>
<path d="M132.401 12.1289H136.071V20.0127H136.244C136.558 19.2524 137.013 18.6244 137.608 18.1285C138.203 17.6327 139.013 17.3848 140.037 17.3848C140.748 17.3848 141.393 17.517 141.971 17.7814C142.566 18.0459 143.07 18.4508 143.483 18.9962C143.913 19.5417 144.244 20.2358 144.475 21.0788C144.723 21.9217 144.847 22.9216 144.847 24.0786C144.847 25.2355 144.723 26.2355 144.475 27.0784C144.244 27.9213 143.913 28.6155 143.483 29.1609C143.07 29.7063 142.566 30.1112 141.971 30.3757C141.393 30.6401 140.748 30.7724 140.037 30.7724C139.013 30.7724 138.203 30.5327 137.608 30.0534C137.013 29.5576 136.558 28.9212 136.244 28.1444H136.071V30.4749H132.401V12.1289ZM138.451 27.9213C139.277 27.9213 139.913 27.6734 140.36 27.1775C140.806 26.6652 141.029 25.9627 141.029 25.0702V23.0869C141.029 22.1944 140.806 21.5002 140.36 21.0044C139.913 20.492 139.277 20.2358 138.451 20.2358C137.806 20.2358 137.244 20.3928 136.765 20.7069C136.302 21.0209 136.071 21.5167 136.071 22.1944V25.9627C136.071 26.6404 136.302 27.1362 136.765 27.4503C137.244 27.7643 137.806 27.9213 138.451 27.9213Z" fill="#232B36"/>
<path d="M154.195 30.7724C153.204 30.7724 152.311 30.6236 151.518 30.3261C150.724 30.0121 150.047 29.5658 149.485 28.9873C148.939 28.4089 148.518 27.7064 148.22 26.88C147.923 26.0536 147.774 25.1198 147.774 24.0786C147.774 23.0373 147.923 22.1035 148.22 21.2771C148.518 20.4507 148.939 19.7483 149.485 19.1698C150.047 18.5913 150.724 18.1533 151.518 17.8558C152.311 17.5418 153.204 17.3848 154.195 17.3848C155.187 17.3848 156.079 17.5418 156.873 17.8558C157.666 18.1533 158.335 18.5913 158.881 19.1698C159.443 19.7483 159.873 20.4507 160.17 21.2771C160.468 22.1035 160.616 23.0373 160.616 24.0786C160.616 25.1198 160.468 26.0536 160.17 26.88C159.873 27.7064 159.443 28.4089 158.881 28.9873C158.335 29.5658 157.666 30.0121 156.873 30.3261C156.079 30.6236 155.187 30.7724 154.195 30.7724ZM154.195 28.0453C155.022 28.0453 155.666 27.7891 156.129 27.2767C156.592 26.7643 156.823 26.0371 156.823 25.095V23.0621C156.823 22.12 156.592 21.3928 156.129 20.8804C155.666 20.3681 155.022 20.1119 154.195 20.1119C153.369 20.1119 152.724 20.3681 152.261 20.8804C151.799 21.3928 151.567 22.12 151.567 23.0621V25.095C151.567 26.0371 151.799 26.7643 152.261 27.2767C152.724 27.7891 153.369 28.0453 154.195 28.0453Z" fill="#232B36"/>
<path d="M164.188 30.4749V17.6823H167.857V20.0127H168.006C168.155 19.6491 168.337 19.3103 168.551 18.9962C168.766 18.6822 169.023 18.4095 169.32 18.1781C169.634 17.9302 169.989 17.7401 170.386 17.6079C170.799 17.4591 171.262 17.3848 171.774 17.3848C172.386 17.3848 172.948 17.4922 173.46 17.7071C173.973 17.9054 174.411 18.2112 174.774 18.6244C175.138 19.0376 175.419 19.5417 175.617 20.1367C175.832 20.7317 175.939 21.4176 175.939 22.1944V30.4749H172.27V22.6902C172.27 21.0374 171.551 20.211 170.113 20.211C169.832 20.211 169.551 20.2524 169.27 20.335C169.006 20.4011 168.766 20.5168 168.551 20.6821C168.337 20.8308 168.163 21.0209 168.031 21.2523C167.915 21.4837 167.857 21.7564 167.857 22.0704V30.4749H164.188Z" fill="#232B36"/>
<path d="M186.18 30.7724C184.032 30.7724 182.404 30.1774 181.296 28.9873C180.189 27.7973 179.635 26.1776 179.635 24.1281C179.635 23.0869 179.776 22.1531 180.057 21.3267C180.354 20.4838 180.767 19.7731 181.296 19.1946C181.842 18.5996 182.494 18.1533 183.255 17.8558C184.032 17.5418 184.899 17.3848 185.858 17.3848C186.817 17.3848 187.676 17.5418 188.436 17.8558C189.197 18.1533 189.841 18.583 190.37 19.145C190.899 19.7069 191.304 20.3928 191.585 21.2027C191.882 21.9961 192.031 22.8886 192.031 23.8802V24.9711H183.28V25.1942C183.28 26.0206 183.536 26.69 184.048 27.2023C184.56 27.6982 185.312 27.9461 186.304 27.9461C187.064 27.9461 187.717 27.8056 188.263 27.5246C188.808 27.2271 189.279 26.8387 189.676 26.3594L191.659 28.5163C191.163 29.1278 190.469 29.6567 189.577 30.103C188.684 30.5492 187.552 30.7724 186.18 30.7724ZM185.883 20.0127C185.089 20.0127 184.453 20.2606 183.974 20.7565C183.511 21.2358 183.28 21.8886 183.28 22.715V22.9133H188.436V22.715C188.436 21.8721 188.205 21.211 187.742 20.7317C187.296 20.2524 186.676 20.0127 185.883 20.0127Z" fill="#232B36"/>
</g>
</g>
</svg>
