<svg width="214" height="41" viewBox="0 0 214 41" fill="none" xmlns="http://www.w3.org/2000/svg">
<g id="4">
<path id="Vector" d="M28.4196 33.8347L1.61882 15.3719C-1.09711 13.501 -0.173869 9.6055 3.21283 8.68944L31.6972 0.968624C32.3006 0.751188 32.9472 0.680604 33.5835 0.762735C34.2196 0.844867 34.827 1.07734 35.3552 1.44087C35.8833 1.8044 36.3172 2.28849 36.6204 2.85297C36.9237 3.41744 37.0879 4.04603 37.0992 4.68655L35.4111 30.8687C35.2109 33.9765 31.1355 35.7056 28.4196 33.8347Z" fill="#E9327C"/>
<path id="Vector_2" d="M19.92 38.3926L4.13081 7.55566C3.76988 6.85021 3.61106 6.0589 3.67185 5.26902C3.73263 4.47913 4.01068 3.72136 4.4753 3.07927C4.93994 2.43718 5.5731 1.93571 6.30498 1.63016C7.03687 1.32461 7.83902 1.22686 8.623 1.34769L37.8843 5.85783C38.5579 5.96168 39.1973 6.22374 39.7499 6.62246C40.3023 7.0212 40.7521 7.5452 41.0624 8.1514C41.3726 8.75759 41.5343 9.42865 41.5342 10.1094C41.534 10.7902 41.3721 11.4612 41.0618 12.0673L27.5823 38.3941C27.2203 39.0976 26.6711 39.6878 25.9951 40.0997C25.3191 40.5118 24.5426 40.7296 23.7507 40.7295C22.9588 40.7293 22.1822 40.5112 21.5064 40.099C20.8305 39.6866 20.2817 39.0962 19.92 38.3926Z" fill="#1DACE3"/>
<path id="Vector_3" d="M37.0278 5.72493L22.4412 3.47656L4.53223 8.33285L11.6806 22.2989L28.4199 33.8347C28.7892 34.0864 29.1954 34.2791 29.624 34.4061L35.9821 21.9886L37.0278 5.72493Z" fill="#001A49"/>
<g id="carbonia">
<path d="M63.3791 33.1174C61.224 33.1174 59.375 32.6884 57.8318 31.8305C56.2976 30.9726 55.1181 29.7801 54.2933 28.2531C53.4685 26.7174 53.0562 24.9416 53.0562 22.9255C53.0562 20.9009 53.4685 19.125 54.2933 17.5979C55.1269 16.0623 56.3109 14.8655 57.8451 14.0076C59.3883 13.1497 61.2285 12.7207 63.3658 12.7207C65.2548 12.7207 66.8999 13.051 68.3011 13.7116C69.7112 14.3722 70.8109 15.3073 71.6002 16.517C72.3983 17.718 72.8196 19.1293 72.8639 20.7507H66.7846C66.6604 19.7384 66.3057 18.9448 65.7204 18.37C65.1439 17.7952 64.3901 17.5078 63.4589 17.5078C62.7051 17.5078 62.0444 17.7137 61.4768 18.1255C60.9092 18.5288 60.4658 19.1293 60.1465 19.9271C59.8361 20.7164 59.6809 21.6944 59.6809 22.8612C59.6809 24.0279 59.8361 25.0145 60.1465 25.8209C60.4658 26.6188 60.9092 27.2236 61.4768 27.6354C62.0444 28.0386 62.7051 28.2402 63.4589 28.2402C64.0619 28.2402 64.5941 28.1158 65.0552 27.867C65.5252 27.6182 65.911 27.2536 66.2126 26.7732C66.5141 26.2842 66.7048 25.6922 66.7846 24.9973H72.8639C72.8018 26.6274 72.3806 28.0515 71.6002 29.2697C70.8286 30.4879 69.7422 31.4359 68.341 32.1136C66.9486 32.7828 65.2947 33.1174 63.3791 33.1174Z" fill="#001A49"/>
<path d="M81.953 33.0788C80.6493 33.0788 79.492 32.8686 78.481 32.4482C77.4789 32.0193 76.6851 31.3758 76.0998 30.5179C75.5234 29.6515 75.2351 28.5662 75.2351 27.2622C75.2351 26.1641 75.4347 25.2375 75.8338 24.4826C76.2328 23.7276 76.7827 23.1142 77.4833 22.6424C78.1839 22.1705 78.9909 21.8145 79.9044 21.5743C80.8178 21.3255 81.7934 21.1582 82.831 21.0724C83.9928 20.9695 84.9284 20.8622 85.6379 20.7507C86.3474 20.6306 86.8617 20.4633 87.181 20.2488C87.5091 20.0258 87.6732 19.7127 87.6732 19.3094V19.2451C87.6732 18.5845 87.4382 18.0741 86.9681 17.7137C86.4981 17.3534 85.864 17.1733 85.0659 17.1733C84.2056 17.1733 83.5139 17.3534 82.9906 17.7137C82.4674 18.0741 82.1348 18.5716 81.9929 19.2065L75.9934 19.0006C76.1708 17.7995 76.6275 16.7272 77.3636 15.7835C78.1085 14.8312 79.1284 14.0848 80.4232 13.5443C81.7269 12.9953 83.2922 12.7207 85.1191 12.7207C86.4227 12.7207 87.6244 12.8709 88.7241 13.1711C89.8238 13.4628 90.7816 13.8918 91.5975 14.458C92.4134 15.0156 93.0431 15.702 93.4865 16.517C93.9388 17.332 94.1649 18.2628 94.1649 19.3094V32.7442H88.0457V29.9903H87.886C87.5224 30.6595 87.0568 31.2257 86.4892 31.689C85.9305 32.1522 85.2698 32.4997 84.5071 32.7313C83.7533 32.963 82.9019 33.0788 81.953 33.0788ZM83.9617 28.9608C84.6623 28.9608 85.292 28.8236 85.8507 28.5491C86.4183 28.2745 86.8706 27.897 87.2076 27.4166C87.5446 26.9276 87.7131 26.3614 87.7131 25.718V23.8392C87.5269 23.9335 87.3007 24.0193 87.0347 24.0965C86.7775 24.1738 86.4937 24.2467 86.1833 24.3153C85.8729 24.3839 85.5536 24.444 85.2255 24.4955C84.8974 24.5469 84.5825 24.5941 84.281 24.637C83.6691 24.7314 83.1458 24.8772 82.7113 25.0745C82.2856 25.2719 81.9574 25.5292 81.7269 25.8467C81.5052 26.1555 81.3943 26.5244 81.3943 26.9534C81.3943 27.6054 81.6337 28.1029 82.1126 28.4461C82.6004 28.7893 83.2168 28.9608 83.9617 28.9608Z" fill="#001A49"/>
<path d="M98.1424 32.7442V12.9781H104.461V16.5813H104.674C105.047 15.2773 105.654 14.3079 106.497 13.673C107.339 13.0296 108.319 12.7079 109.436 12.7079C109.738 12.7079 110.048 12.7293 110.368 12.7722C110.687 12.8065 110.984 12.8623 111.259 12.9395V18.4086C110.949 18.3057 110.541 18.2242 110.035 18.1641C109.538 18.1041 109.095 18.0741 108.705 18.0741C107.933 18.0741 107.237 18.2414 106.616 18.5759C106.004 18.9019 105.521 19.3609 105.166 19.9529C104.82 20.5362 104.647 21.2226 104.647 22.0118V32.7442H98.1424Z" fill="#001A49"/>
<path d="M113.91 32.7442V6.38942H120.415V16.3625H120.548C120.814 15.762 121.191 15.1829 121.678 14.6253C122.175 14.0677 122.805 13.613 123.567 13.2612C124.339 12.9009 125.261 12.7207 126.334 12.7207C127.753 12.7207 129.079 13.0811 130.312 13.8017C131.553 14.5223 132.556 15.6333 133.318 17.1347C134.081 18.636 134.462 20.5491 134.462 22.874C134.462 25.1132 134.094 26.9877 133.358 28.4976C132.631 30.0075 131.646 31.1399 130.405 31.8949C129.172 32.6498 127.802 33.0273 126.294 33.0273C125.266 33.0273 124.374 32.8643 123.62 32.5383C122.867 32.2123 122.233 31.7833 121.718 31.2514C121.213 30.7195 120.822 30.149 120.548 29.5399H120.348V32.7442H113.91ZM120.282 22.8612C120.282 23.925 120.428 24.8515 120.721 25.6408C121.022 26.43 121.452 27.0434 122.011 27.481C122.578 27.9099 123.257 28.1244 124.046 28.1244C124.844 28.1244 125.523 27.9099 126.082 27.481C126.64 27.0434 127.061 26.43 127.345 25.6408C127.638 24.8515 127.784 23.925 127.784 22.8612C127.784 21.7974 127.638 20.8751 127.345 20.0944C127.061 19.3137 126.64 18.7089 126.082 18.28C125.532 17.851 124.853 17.6365 124.046 17.6365C123.248 17.6365 122.57 17.8467 122.011 18.2671C121.452 18.6875 121.022 19.288 120.721 20.0687C120.428 20.8494 120.282 21.7802 120.282 22.8612Z" fill="#001A49"/>
<path d="M147.409 33.1174C145.263 33.1174 143.418 32.6927 141.875 31.8434C140.341 30.9855 139.157 29.793 138.323 28.2659C137.499 26.7303 137.086 24.9502 137.086 22.9255C137.086 20.8923 137.499 19.1121 138.323 17.5851C139.157 16.0494 140.341 14.8569 141.875 14.0076C143.418 13.1497 145.263 12.7207 147.409 12.7207C149.555 12.7207 151.396 13.1497 152.93 14.0076C154.473 14.8569 155.657 16.0494 156.482 17.5851C157.315 19.1121 157.732 20.8923 157.732 22.9255C157.732 24.9502 157.315 26.7303 156.482 28.2659C155.657 29.793 154.473 30.9855 152.93 31.8434C151.396 32.6927 149.555 33.1174 147.409 33.1174ZM147.449 28.3689C148.229 28.3689 148.89 28.1373 149.431 27.674C149.972 27.2107 150.384 26.5673 150.668 25.7437C150.961 24.9201 151.107 23.9679 151.107 22.8869C151.107 21.7888 150.961 20.8279 150.668 20.0043C150.384 19.1808 149.972 18.5373 149.431 18.0741C148.89 17.6108 148.229 17.3792 147.449 17.3792C146.642 17.3792 145.959 17.6108 145.4 18.0741C144.851 18.5373 144.429 19.1808 144.137 20.0043C143.853 20.8279 143.711 21.7888 143.711 22.8869C143.711 23.9679 143.853 24.9201 144.137 25.7437C144.429 26.5673 144.851 27.2107 145.4 27.674C145.959 28.1373 146.642 28.3689 147.449 28.3689Z" fill="#001A49"/>
<path d="M167.569 21.4714V32.7442H161.064V12.9781H167.25V16.607H167.476C167.929 15.3974 168.7 14.4494 169.791 13.7631C170.882 13.0682 172.181 12.7207 173.689 12.7207C175.125 12.7207 176.371 13.0339 177.427 13.6601C178.491 14.2778 179.316 15.1443 179.901 16.2596C180.495 17.3663 180.788 18.6617 180.779 20.1459V32.7442H174.274V21.3813C174.283 20.2832 173.995 19.4253 173.409 18.8076C172.833 18.1899 172.03 17.881 171.002 17.881C170.319 17.881 169.716 18.0269 169.192 18.3186C168.678 18.6017 168.279 19.0092 167.995 19.5411C167.72 20.073 167.578 20.7164 167.569 21.4714Z" fill="#001A49"/>
<path d="M184.806 32.7442V12.9781H191.311V32.7442H184.806ZM188.066 10.6747C187.152 10.6747 186.367 10.383 185.711 9.79959C185.055 9.20763 184.727 8.49558 184.727 7.66341C184.727 6.83982 185.055 6.13634 185.711 5.55297C186.367 4.96102 187.152 4.66504 188.066 4.66504C188.988 4.66504 189.773 4.96102 190.42 5.55297C191.076 6.13634 191.405 6.83982 191.405 7.66341C191.405 8.49558 191.076 9.20763 190.42 9.79959C189.773 10.383 188.988 10.6747 188.066 10.6747Z" fill="#001A49"/>
<path d="M201.212 33.0788C199.908 33.0788 198.751 32.8686 197.74 32.4482C196.738 32.0193 195.944 31.3758 195.359 30.5179C194.782 29.6515 194.494 28.5662 194.494 27.2622C194.494 26.1641 194.694 25.2375 195.093 24.4826C195.492 23.7276 196.042 23.1142 196.742 22.6424C197.443 22.1705 198.25 21.8145 199.163 21.5743C200.077 21.3255 201.052 21.1582 202.09 21.0724C203.252 20.9695 204.187 20.8622 204.897 20.7507C205.606 20.6306 206.121 20.4633 206.44 20.2488C206.768 20.0258 206.932 19.7127 206.932 19.3094V19.2451C206.932 18.5845 206.697 18.0741 206.227 17.7137C205.757 17.3534 205.123 17.1733 204.325 17.1733C203.465 17.1733 202.773 17.3534 202.25 17.7137C201.726 18.0741 201.394 18.5716 201.252 19.2065L195.252 19.0006C195.43 17.7995 195.886 16.7272 196.623 15.7835C197.368 14.8312 198.387 14.0848 199.682 13.5443C200.986 12.9953 202.551 12.7207 204.378 12.7207C205.682 12.7207 206.883 12.8709 207.983 13.1711C209.083 13.4628 210.041 13.8918 210.856 14.458C211.672 15.0156 212.302 15.702 212.745 16.517C213.198 17.332 213.424 18.2628 213.424 19.3094V32.7442H207.305V29.9903H207.145C206.781 30.6595 206.316 31.2257 205.748 31.689C205.19 32.1522 204.529 32.4997 203.766 32.7313C203.012 32.963 202.161 33.0788 201.212 33.0788ZM203.221 28.9608C203.921 28.9608 204.551 28.8236 205.11 28.5491C205.677 28.2745 206.13 27.897 206.467 27.4166C206.804 26.9276 206.972 26.3614 206.972 25.718V23.8392C206.786 23.9335 206.56 24.0193 206.294 24.0965C206.036 24.1738 205.753 24.2467 205.442 24.3153C205.132 24.3839 204.813 24.444 204.484 24.4955C204.156 24.5469 203.842 24.5941 203.54 24.637C202.928 24.7314 202.405 24.8772 201.97 25.0745C201.545 25.2719 201.216 25.5292 200.986 25.8467C200.764 26.1555 200.653 26.5244 200.653 26.9534C200.653 27.6054 200.893 28.1029 201.372 28.4461C201.859 28.7893 202.476 28.9608 203.221 28.9608Z" fill="#001A49"/>
</g>
</g>
</svg>
