<svg width="44" height="45" viewBox="0 0 44 45" fill="none" xmlns="http://www.w3.org/2000/svg">
<g id="Frame">
<path id="Vector" d="M27.0415 28.2295C28.8134 28.2295 30.2498 29.6659 30.2498 31.4378L30.2478 33.2017C30.4618 37.215 27.4777 39.246 22.1223 39.246C16.7892 39.246 13.7498 37.248 13.7498 33.2712V31.4378C13.7498 29.6659 15.1863 28.2295 16.9582 28.2295H27.0415ZM27.0415 30.9795H16.9582C16.705 30.9795 16.4998 31.1846 16.4998 31.4378V33.2712C16.4998 35.4275 18.1254 36.496 22.1223 36.496C26.0968 36.496 27.6144 35.4629 27.4998 33.2748V31.4378C27.4998 31.1846 27.2947 30.9795 27.0415 30.9795ZM6.87484 19.0628L14.8975 19.063C14.7467 19.6489 14.6665 20.2631 14.6665 20.8962C14.6665 21.2062 14.6857 21.5118 14.7231 21.8115L6.87484 21.8128C6.62171 21.8128 6.4165 22.018 6.4165 22.2712V24.1045C6.4165 26.2609 8.04207 27.3293 12.039 27.3293C12.8858 27.3293 13.6211 27.2826 14.2528 27.1876C13.2166 27.8439 12.4398 28.8693 12.1021 30.0779L12.039 30.0793C6.70591 30.0793 3.6665 28.0814 3.6665 24.1045V22.2712C3.6665 20.4992 5.10292 19.0628 6.87484 19.0628ZM37.1248 19.0628C38.8968 19.0628 40.3332 20.4992 40.3332 22.2712L40.3312 24.035C40.5451 28.0484 37.561 30.0793 32.2056 30.0793L31.8971 30.0762C31.5499 28.8349 30.7393 27.7871 29.6637 27.131C30.3727 27.2639 31.2166 27.3293 32.2056 27.3293C36.1801 27.3293 37.6978 26.2962 37.5832 24.1082V22.2712C37.5832 22.018 37.378 21.8128 37.1248 21.8128L29.2767 21.8114C29.3139 21.5116 29.3332 21.2062 29.3332 20.8962C29.3332 20.2631 29.2531 19.6489 29.1022 19.063L37.1248 19.0628ZM21.9998 15.3962C25.0375 15.3962 27.4998 17.8586 27.4998 20.8962C27.4998 23.9338 25.0375 26.3962 21.9998 26.3962C18.9622 26.3962 16.4998 23.9338 16.4998 20.8962C16.4998 17.8586 18.9622 15.3962 21.9998 15.3962ZM21.9998 18.1462C20.4811 18.1462 19.2498 19.3774 19.2498 20.8962C19.2498 22.4149 20.4811 23.6462 21.9998 23.6462C23.5186 23.6462 24.7498 22.4149 24.7498 20.8962C24.7498 19.3774 23.5186 18.1462 21.9998 18.1462ZM11.9165 6.22949C14.9541 6.22949 17.4165 8.69193 17.4165 11.7295C17.4165 14.7671 14.9541 17.2295 11.9165 17.2295C8.87895 17.2295 6.4165 14.7671 6.4165 11.7295C6.4165 8.69193 8.87895 6.22949 11.9165 6.22949ZM32.0832 6.22949C35.1208 6.22949 37.5832 8.69193 37.5832 11.7295C37.5832 14.7671 35.1208 17.2295 32.0832 17.2295C29.0455 17.2295 26.5832 14.7671 26.5832 11.7295C26.5832 8.69193 29.0455 6.22949 32.0832 6.22949ZM11.9165 8.97949C10.3977 8.97949 9.1665 10.2107 9.1665 11.7295C9.1665 13.2483 10.3977 14.4795 11.9165 14.4795C13.4353 14.4795 14.6665 13.2483 14.6665 11.7295C14.6665 10.2107 13.4353 8.97949 11.9165 8.97949ZM32.0832 8.97949C30.5644 8.97949 29.3332 10.2107 29.3332 11.7295C29.3332 13.2483 30.5644 14.4795 32.0832 14.4795C33.6019 14.4795 34.8332 13.2483 34.8332 11.7295C34.8332 10.2107 33.6019 8.97949 32.0832 8.97949Z" fill="#212121"/>
</g>
</svg>
