<svg width="126" height="21" viewBox="0 0 126 21" fill="none" xmlns="http://www.w3.org/2000/svg">
<path d="M10.1833 0.729492L12.2994 7.81703L19.6939 7.63932L13.6072 11.842L16.0612 18.8197L10.1833 14.3295L4.3055 18.8197L6.75955 11.842L0.672785 7.63932L8.06732 7.81703L10.1833 0.729492Z" fill="#6B4EFF"/>
<path d="M36.5916 0.729492L38.7076 7.81703L46.1021 7.63932L40.0154 11.842L42.4694 18.8197L36.5916 14.3295L30.7137 18.8197L33.1677 11.842L27.081 7.63932L34.4755 7.81703L36.5916 0.729492Z" fill="#6B4EFF"/>
<path d="M63 0.729492L65.116 7.81703L72.5106 7.63932L66.4238 11.842L68.8779 18.8197L63 14.3295L57.1221 18.8197L59.5762 11.842L53.4894 7.63932L60.884 7.81703L63 0.729492Z" fill="#6B4EFF"/>
<path d="M89.4082 0.729492L91.5242 7.81703L98.9188 7.63932L92.832 11.842L95.2861 18.8197L89.4082 14.3295L83.5304 18.8197L85.9844 11.842L79.8976 7.63932L87.2922 7.81703L89.4082 0.729492Z" fill="#6B4EFF"/>
<path d="M115.817 0.729492L117.933 7.81703L125.327 7.63932L119.24 11.842L121.695 18.8197L115.817 14.3295L109.939 18.8197L112.393 11.842L106.306 7.63932L113.701 7.81703L115.817 0.729492Z" fill="#C4C4C4"/>
</svg>
