<svg width="28" height="29" viewBox="0 0 28 29" fill="none" xmlns="http://www.w3.org/2000/svg">
<g id="Group 10496">
<circle id="BG" cx="14" cy="14.0664" r="14" fill="#1E293B"/>
<g id="logo-github 1">
<g id="Group">
<path id="Vector" fill-rule="evenodd" clip-rule="evenodd" d="M14.6088 7.29297C11.0179 7.29297 8.12891 10.1819 8.12891 13.7729C8.12891 16.6348 9.99188 19.0648 12.5568 19.9288C12.8808 19.9828 12.9888 19.7938 12.9888 19.6048C12.9888 19.4428 12.9888 19.0378 12.9888 18.4978C11.1799 18.9028 10.8019 17.6338 10.8019 17.6338C10.5049 16.8778 10.0729 16.6888 10.0729 16.6888C9.47888 16.2838 10.1269 16.2838 10.1269 16.2838C10.7749 16.3378 11.1259 16.9588 11.1259 16.9588C11.6928 17.9578 12.6378 17.6608 13.0158 17.4988C13.0698 17.0668 13.2318 16.7968 13.4208 16.6348C11.9898 16.4728 10.4779 15.9058 10.4779 13.4219C10.4779 12.7199 10.7209 12.1259 11.1529 11.6939C11.0989 11.5319 10.8559 10.8839 11.2069 9.96593C11.2069 9.96593 11.7468 9.80393 12.9888 10.6409C13.5018 10.5059 14.0688 10.4249 14.6088 10.4249C15.1488 10.4249 15.7158 10.5059 16.2288 10.6409C17.4708 9.80393 18.0107 9.96593 18.0107 9.96593C18.3617 10.8569 18.1457 11.5049 18.0647 11.6939C18.4697 12.1529 18.7397 12.7199 18.7397 13.4219C18.7397 15.9058 17.2278 16.4458 15.7698 16.6078C16.0128 16.7968 16.2018 17.2018 16.2018 17.7958C16.2018 18.6598 16.2018 19.3618 16.2018 19.5778C16.2018 19.7398 16.3098 19.9558 16.6608 19.9018C19.2257 19.0648 21.0887 16.6348 21.0887 13.7729C21.0887 10.1819 18.1997 7.29297 14.6088 7.29297Z" fill="white"/>
</g>
</g>
</g>
</svg>
