<svg width="232" height="40" viewBox="0 0 232 40" fill="none" xmlns="http://www.w3.org/2000/svg">
<g id="8">
<path id="Vector" d="M19.1605 0H44.0333L25.7468 27.027H0.874023L19.1605 0Z" fill="#007AFF"/>
<path id="Vector_2" d="M20.2501 29.5318L13.1673 40H39.2199L57.5064 12.973H38.278L27.0742 29.5318H20.2501Z" fill="#312ECB"/>
<g id="Incanto.">
<path d="M75.2197 7.05149C75.4242 8.55119 75.4923 9.53963 75.4923 12.0959V30.365C75.4923 32.6487 75.4242 34.0802 75.2197 35.4095H82.7182C82.5137 33.9779 82.4455 32.7168 82.4455 30.365V12.0959C82.4455 9.6078 82.5137 8.44894 82.7182 7.05149H75.2197Z" fill="#E4E4E7"/>
<path d="M93.6847 35.4095C93.4802 33.6371 93.4121 32.2056 93.4121 30.2628V23.3778C94.8777 20.9919 96.5819 19.7989 98.4906 19.7989C99.5131 19.7989 100.297 20.1398 100.74 20.7533C101.149 21.3327 101.285 21.9122 101.285 23.2755V30.2628C101.285 32.3419 101.217 33.7734 101.013 35.4095H108.102C107.932 33.9779 107.83 32.2737 107.83 30.2969V21.7417C107.83 19.0491 107.25 17.379 105.887 16.0156C104.626 14.7545 102.751 14.1069 100.399 14.1069C97.6044 14.1069 95.5253 14.959 93.378 17.0041C93.378 16.7655 93.4121 16.2542 93.4121 16.0497V14.6182H86.6293C86.8338 15.9815 86.902 17.4131 86.902 19.7649V30.2628C86.902 32.376 86.8338 33.8075 86.6293 35.4095H93.6847Z" fill="#E4E4E7"/>
<path d="M131.735 20.9237C130.611 16.3905 126.964 13.8001 121.715 13.8001C115.068 13.8001 110.774 18.1629 110.774 24.9797C110.774 28.32 111.864 31.3194 113.841 33.2622C115.716 35.1709 118.511 36.1934 121.783 36.1934C125.737 36.1934 128.838 34.796 130.542 32.2737C131.19 31.2853 131.599 30.365 131.974 28.8994L125.703 27.911C125.566 28.6949 125.396 29.0357 125.089 29.4788C124.407 30.4332 123.18 30.9785 121.851 30.9785C119.124 30.9785 117.386 28.5926 117.386 24.9116C117.386 21.1623 119.022 18.9809 121.783 18.9809C123.01 18.9809 123.964 19.3899 124.646 20.1739C125.089 20.6851 125.293 21.1623 125.6 22.1848L131.735 20.9237Z" fill="#E4E4E7"/>
<path d="M148.294 21.9462C145.84 22.0144 144.818 22.0485 143.489 22.1848C140.421 22.4575 138.137 23.1733 136.399 24.4003C134.763 25.5251 133.911 27.2293 133.911 29.3766C133.911 31.2512 134.559 32.8872 135.786 34.012C137.149 35.2731 139.092 35.8867 141.682 35.8867C144.477 35.8867 146.386 35.3072 148.294 33.8416V35.4095H154.907C154.736 33.8757 154.668 32.6487 154.668 30.5695V21.3668C154.668 18.2992 153.714 16.4246 151.532 15.2317C150.203 14.5159 147.749 14.0387 145.227 14.0387C141.921 14.0387 139.398 14.6863 137.558 15.9815C136.126 17.0041 135.377 18.0947 134.695 20.1057L141.205 21.1623C141.716 19.4922 142.875 18.7764 145.056 18.7764C147.306 18.7764 148.294 19.5263 148.294 21.1623V21.9462ZM148.294 27.2634C148.294 28.2859 147.851 29.2062 147.067 29.8878C146.147 30.6718 144.613 31.183 143.216 31.183C141.444 31.183 140.421 30.4673 140.421 29.2402C140.421 28.2518 141.171 27.3997 142.398 26.9907C143.795 26.5476 145.261 26.3772 148.294 26.309V27.2634Z" fill="#E4E4E7"/>
<path d="M165.581 35.4095C165.376 33.6371 165.308 32.2056 165.308 30.2628V23.3778C166.774 20.9919 168.478 19.7989 170.387 19.7989C171.409 19.7989 172.193 20.1398 172.636 20.7533C173.045 21.3327 173.182 21.9122 173.182 23.2755V30.2628C173.182 32.3419 173.114 33.7734 172.909 35.4095H179.999C179.828 33.9779 179.726 32.2737 179.726 30.2969V21.7417C179.726 19.0491 179.146 17.379 177.783 16.0156C176.522 14.7545 174.647 14.1069 172.296 14.1069C169.501 14.1069 167.421 14.959 165.274 17.0041C165.274 16.7655 165.308 16.2542 165.308 16.0497V14.6182H158.526C158.73 15.9815 158.798 17.4131 158.798 19.7649V30.2628C158.798 32.376 158.73 33.8075 158.526 35.4095H165.581Z" fill="#E4E4E7"/>
<path d="M186.249 14.6182H185.022C183.829 14.6182 182.977 14.55 181.988 14.4137V20.1057C182.977 19.9694 183.863 19.9012 184.953 19.9012H186.249V30.3309C186.249 32.6487 186.726 33.8075 188.021 34.796C189.112 35.614 190.714 35.9889 193.031 35.9889C194.872 35.9889 196.201 35.7844 197.735 35.3072L197.224 30.1264C196.372 30.5695 195.724 30.7399 194.838 30.7399C194.19 30.7399 193.645 30.6036 193.27 30.365C192.827 30.0583 192.656 29.5811 192.656 28.6267V19.9012H194.088C195.315 19.9012 196.201 19.9694 197.224 20.1057V14.4477C196.167 14.5841 195.383 14.6182 193.884 14.6182H192.656V13.9024C192.656 12.2664 192.759 10.6303 192.929 9.23287H185.976C186.181 10.8348 186.249 12.1982 186.249 13.9024V14.6182Z" fill="#E4E4E7"/>
<path d="M210.193 36.1934C216.976 36.1934 221.475 31.6943 221.475 24.9116C221.475 18.1629 217.112 13.8342 210.227 13.8342C203.342 13.8342 198.98 18.1629 198.98 24.9797C198.98 31.8306 203.342 36.1934 210.193 36.1934ZM210.261 18.9468C213.159 18.9468 214.897 21.1964 214.897 25.0138C214.897 28.7972 213.193 31.0126 210.227 31.0126C207.262 31.0126 205.49 28.729 205.49 24.9456C205.49 21.1964 207.262 18.9468 210.261 18.9468Z" fill="#E4E4E7"/>
<path d="M224.162 28.5245V35.4095H231.047V28.5245H224.162Z" fill="#E4E4E7"/>
</g>
</g>
</svg>
