<svg width="28" height="29" viewBox="0 0 28 29" fill="none" xmlns="http://www.w3.org/2000/svg">
<g id="Group 10497">
<circle id="BG" cx="14" cy="14.0664" r="14" fill="#1E293B"/>
<g id="logo-instagram 1">
<g id="Group">
<path id="Vector" d="M14.0008 8.51361C15.8095 8.51361 16.0237 8.52039 16.7382 8.55297C17.1678 8.55823 17.5933 8.63711 17.9962 8.78619C18.2884 8.89889 18.5538 9.07151 18.7753 9.29297C18.9967 9.51442 19.1694 9.77979 19.282 10.072C19.4311 10.4749 19.51 10.9005 19.5153 11.3301C19.5475 12.0446 19.5546 12.2588 19.5546 14.0675C19.5546 15.8762 19.5479 16.0904 19.5153 16.8049C19.51 17.2345 19.4311 17.66 19.282 18.063C19.1694 18.3552 18.9967 18.6205 18.7753 18.842C18.5538 19.0635 18.2884 19.2361 17.9962 19.3488C17.5933 19.4979 17.1678 19.5767 16.7382 19.582C16.024 19.6143 15.8098 19.6214 14.0008 19.6214C12.1917 19.6214 11.9775 19.6146 11.2633 19.582C10.8337 19.5767 10.4082 19.4979 10.0053 19.3488C9.71307 19.2361 9.44769 19.0635 9.22624 18.842C9.00479 18.6205 8.83216 18.3552 8.71947 18.063C8.57038 17.66 8.4915 17.2345 8.48624 16.8049C8.45398 16.0904 8.44689 15.8762 8.44689 14.0675C8.44689 12.2588 8.45366 12.0446 8.48624 11.3301C8.4915 10.9005 8.57038 10.4749 8.71947 10.072C8.83216 9.77979 9.00479 9.51442 9.22624 9.29297C9.44769 9.07151 9.71307 8.89889 10.0053 8.78619C10.4082 8.63711 10.8337 8.55823 11.2633 8.55297C11.9779 8.52071 12.192 8.51361 14.0008 8.51361ZM14.0008 7.29297C12.162 7.29297 11.9304 7.30071 11.2079 7.33361C10.6456 7.3448 10.0893 7.45125 9.56269 7.64845C9.11092 7.81867 8.70172 8.08541 8.36366 8.43007C8.01869 8.76825 7.75172 9.17768 7.5814 9.62974C7.3842 10.1564 7.27775 10.7127 7.26656 11.2749C7.2343 11.9968 7.22656 12.2285 7.22656 14.0672C7.22656 15.9059 7.2343 16.1375 7.26721 16.8601C7.27839 17.4223 7.38485 17.9786 7.58205 18.5052C7.75218 18.9572 8.01892 19.3667 8.36366 19.7049C8.70191 20.0496 9.11133 20.3164 9.56334 20.4865C10.09 20.6837 10.6463 20.7902 11.2085 20.8014C11.9311 20.8336 12.1617 20.842 14.0014 20.842C15.8411 20.842 16.0717 20.8343 16.7943 20.8014C17.3565 20.7902 17.9128 20.6837 18.4395 20.4865C18.8893 20.3121 19.2978 20.0458 19.6389 19.7045C19.98 19.3632 20.246 18.9546 20.4201 18.5046C20.6173 17.9779 20.7238 17.4217 20.735 16.8594C20.7672 16.1375 20.775 15.9059 20.775 14.0672C20.775 12.2285 20.7672 11.9968 20.7343 11.2743C20.7231 10.712 20.6167 10.1557 20.4195 9.6291C20.2493 9.17709 19.9826 8.76767 19.6379 8.42942C19.2996 8.08469 18.8902 7.81794 18.4382 7.64781C17.9115 7.45061 17.3553 7.34415 16.793 7.33297C16.0711 7.30071 15.8395 7.29297 14.0008 7.29297Z" fill="white"/>
<path id="Vector_2" d="M14.0021 10.5898C13.3141 10.5898 12.6416 10.7939 12.0695 11.1761C11.4974 11.5584 11.0515 12.1017 10.7882 12.7373C10.5249 13.373 10.4561 14.0724 10.5903 14.7472C10.7245 15.422 11.0558 16.0419 11.5423 16.5284C12.0288 17.0149 12.6487 17.3462 13.3235 17.4804C13.9983 17.6146 14.6977 17.5458 15.3334 17.2825C15.969 17.0192 16.5123 16.5733 16.8946 16.0012C17.2768 15.4291 17.4809 14.7566 17.4809 14.0686C17.4809 13.1459 17.1144 12.2611 16.462 11.6087C15.8096 10.9563 14.9248 10.5898 14.0021 10.5898ZM14.0021 16.3266C13.5555 16.3266 13.119 16.1942 12.7476 15.9461C12.3763 15.6979 12.0869 15.3453 11.916 14.9327C11.7451 14.5201 11.7003 14.066 11.7875 13.628C11.8746 13.19 12.0897 12.7877 12.4055 12.4719C12.7213 12.1561 13.1236 11.941 13.5616 11.8539C13.9996 11.7667 14.4537 11.8115 14.8663 11.9824C15.2789 12.1533 15.6315 12.4427 15.8797 12.814C16.1278 13.1854 16.2602 13.622 16.2602 14.0686C16.2602 14.6674 16.0223 15.2418 15.5988 15.6652C15.1754 16.0887 14.601 16.3266 14.0021 16.3266Z" fill="white"/>
<path id="Vector_3" d="M17.6176 11.2645C18.0665 11.2645 18.4305 10.9005 18.4305 10.4516C18.4305 10.0026 18.0665 9.63867 17.6176 9.63867C17.1686 9.63867 16.8047 10.0026 16.8047 10.4516C16.8047 10.9005 17.1686 11.2645 17.6176 11.2645Z" fill="white"/>
</g>
</g>
</g>
</svg>
