<svg width="155" height="40" viewBox="0 0 155 40" fill="none" xmlns="http://www.w3.org/2000/svg">
<g id="2">
<path id="Vector" d="M25.845 9.51394H28.2833V26.4277H35.5983V28.8578H25.845V9.51394ZM43.1937 9.51394C44.6404 9.51394 46.0546 9.94152 47.2576 10.7426C48.4605 11.5437 49.3982 12.6822 49.9518 14.0144C50.5054 15.3466 50.6503 16.8125 50.368 18.2266C50.0858 19.6408 49.3892 20.9398 48.366 21.9594C47.3431 22.9791 46.0397 23.6734 44.6207 23.9546C43.2018 24.2359 41.731 24.0916 40.3943 23.5398C39.0577 22.9879 37.9153 22.0535 37.1115 20.8546C36.3077 19.6557 35.8787 18.2463 35.8787 16.8043C35.8787 15.847 36.0679 14.8989 36.4355 14.0144C36.8031 13.1299 37.3419 12.3262 38.0213 11.6493C38.7004 10.9723 39.5068 10.4352 40.3943 10.0689C41.2818 9.70251 42.2331 9.51394 43.1937 9.51394ZM43.1937 21.6646C44.1581 21.6646 45.101 21.3796 45.903 20.8455C46.7049 20.3114 47.33 19.5523 47.699 18.6642C48.0682 17.7761 48.1648 16.799 47.9765 15.8561C47.7884 14.9133 47.3239 14.0474 46.6419 13.3676C45.9599 12.6879 45.091 12.225 44.1451 12.0375C43.199 11.8499 42.2186 11.9461 41.3275 12.3141C40.4364 12.6819 39.6747 13.3048 39.1389 14.1041C38.603 14.9034 38.317 15.8431 38.317 16.8043C38.3235 18.0891 38.84 19.3192 39.7539 20.2254C40.6678 21.1316 41.9045 21.6403 43.1937 21.6403V21.6646ZM38.317 26.452H48.0703V28.8821H38.317V26.452ZM69.5275 28.8821H67.0891V27.1446C65.5167 28.2415 63.6443 28.8311 61.7249 28.8335C60.0881 28.8444 58.4749 28.4447 57.034 27.671C55.593 26.8973 54.3705 25.7747 53.4793 24.4065C52.588 23.0384 52.0564 21.4686 51.9338 19.8419C51.811 18.2153 52.1011 16.5839 52.7771 15.0984C53.4531 13.6127 54.4934 12.3205 55.8021 11.3409C57.1108 10.3612 58.6459 9.72548 60.2658 9.49243C61.8858 9.25926 63.5386 9.43629 65.0718 10.007C66.6051 10.5777 67.9697 11.5238 69.0398 12.7582L67.2476 14.3499C66.4337 13.443 65.4051 12.7535 64.2553 12.3444C63.1057 11.9352 61.8715 11.8193 60.6654 12.0073C59.4592 12.1952 58.3195 12.6811 57.3499 13.4205C56.3804 14.16 55.612 15.1294 55.1148 16.2407C54.6175 17.3518 54.4072 18.5693 54.503 19.7823C54.5989 20.9953 54.9977 22.1651 55.6633 23.185C56.329 24.2049 57.2401 25.0427 58.3138 25.6218C59.3874 26.2009 60.5895 26.503 61.8102 26.5006C62.8233 26.5026 63.825 26.2866 64.7467 25.8672C65.6682 25.4477 66.4881 24.8348 67.1501 24.0704H60.5667V21.6403H69.5518L69.5275 28.8821ZM78.5005 9.56254C79.9472 9.56254 81.3615 9.99012 82.5644 10.7912C83.7674 11.5923 84.705 12.7308 85.2586 14.063C85.8123 15.3952 85.9571 16.8611 85.6749 18.2752C85.3926 19.6894 84.696 20.9884 83.6729 22.008C82.6499 23.0277 81.3465 23.722 79.9275 24.0032C78.5086 24.2845 77.0378 24.1402 75.7012 23.5884C74.3645 23.0365 73.2221 22.1022 72.4183 20.9032C71.6145 19.7043 71.1855 18.2949 71.1855 16.8529C71.1791 15.8894 71.3644 14.9342 71.7306 14.0425C72.0968 13.1508 72.6368 12.3402 73.3193 11.6578C74.0018 10.9753 74.8132 10.4345 75.7068 10.0664C76.6003 9.6985 77.5581 9.51066 78.5249 9.51394L78.5005 9.56254ZM78.5005 21.7132C79.4649 21.7132 80.4078 21.4282 81.2098 20.8941C82.0118 20.36 82.6368 19.6009 83.0059 18.7128C83.375 17.8248 83.4716 16.8476 83.2833 15.9047C83.0952 14.9619 82.6307 14.096 81.9487 13.4162C81.2667 12.7365 80.3978 12.2736 79.4519 12.0861C78.5058 11.8985 77.5254 11.9947 76.6343 12.3627C75.7432 12.7305 74.9815 13.3534 74.4457 14.1527C73.9099 14.952 73.6238 15.8917 73.6238 16.8529C73.6431 18.1335 74.1687 19.3548 75.0865 20.2512C76.0041 21.1476 77.2399 21.6469 78.5249 21.6403L78.5005 21.7132ZM73.6238 26.5006H83.3771V28.9307H73.6238V26.5006ZM88.4122 9.51394H90.8505V28.8335H88.4122V9.51394ZM94.2276 9.51394H96.6659C96.7915 9.50069 96.9182 9.50069 97.0439 9.51394C98.065 9.40349 99.0981 9.50871 100.076 9.82256C101.053 10.1365 101.954 10.6521 102.718 11.3358C103.483 12.0195 104.094 12.8561 104.513 13.791C104.931 14.7258 105.148 15.7381 105.148 16.7618C105.148 17.7855 104.931 18.7978 104.513 19.7326C104.094 20.6675 103.483 21.5041 102.718 22.1878C101.954 22.8715 101.053 23.3871 100.076 23.7011C99.0981 24.0149 98.065 24.1201 97.0439 24.0097H96.6659V28.87H94.2276V9.51394ZM96.6659 11.9441V21.5553H97.0439C97.7326 21.6466 98.4329 21.5904 99.098 21.39C99.7631 21.1898 100.378 20.8501 100.9 20.394C101.423 19.9379 101.842 19.3757 102.129 18.745C102.416 18.1144 102.564 17.43 102.564 16.7375C102.564 16.045 102.416 15.3606 102.129 14.73C101.842 14.0994 101.423 13.5371 100.9 13.081C100.378 12.6248 99.7631 12.2853 99.098 12.0849C98.4329 11.8847 97.7326 11.8284 97.0439 11.9198C96.9111 11.9335 96.7802 11.9621 96.6537 12.0048L96.6659 11.9441ZM114.234 10.9113L112.43 12.3329C112.118 12.0087 111.721 11.7798 111.283 11.6731C110.846 11.5664 110.387 11.5864 109.961 11.7306C109.535 11.8747 109.158 12.1371 108.877 12.4871C108.595 12.837 108.419 13.2599 108.37 13.7059V13.9003C108.37 14.9696 109.114 15.6865 110.564 15.7837C116.148 16.1239 118.708 18.7363 118.708 22.1871V22.4058C118.564 23.7715 118.029 25.0673 117.168 26.139C116.306 27.2107 115.153 28.013 113.848 28.4508C112.541 28.8884 111.137 28.9431 109.8 28.6081C108.464 28.2732 107.252 27.5628 106.309 26.5613L108.175 25.1275C108.609 25.5913 109.139 25.9554 109.729 26.1946C110.318 26.4337 110.953 26.5424 111.588 26.5127C112.763 26.5744 113.915 26.1816 114.806 25.4162C115.696 24.651 116.256 23.5724 116.368 22.4058V22.2357C116.368 18.9915 113.173 18.3961 110.406 18.1288C107.846 17.8857 106.005 16.294 106.005 13.9975V13.9003C106.095 12.7047 106.642 11.5893 107.534 10.7844C108.426 9.97943 109.593 9.54638 110.796 9.57469C111.433 9.55598 112.067 9.67056 112.658 9.91126C113.248 10.152 113.781 10.5133 114.222 10.972L114.234 10.9113ZM128.254 26.3669C131.29 26.3669 133.692 23.0984 133.692 19.0765V9.35598H136.13V19.0765C136.13 24.4228 132.619 28.7363 128.303 28.7363C123.987 28.7363 120.476 24.4228 120.476 19.0765V9.35598H122.914V19.0765C122.817 23.1591 125.219 26.4277 128.242 26.4277L128.254 26.3669ZM154.844 28.7971H152.406V16.7679L146.786 24.0583L141.165 16.7679V28.8335H138.727V9.51394L146.773 20.0729L154.82 9.51394L154.844 28.7971Z" fill="#A1A1AA"/>
<path id="Vector_2" d="M14.1404 6.60996C14.1404 4.85689 13.4417 3.17561 12.1979 1.93601C10.9541 0.696403 9.26717 0 7.5082 0C5.74922 0 4.0623 0.696403 2.81851 1.93601C1.57472 3.17561 0.875977 4.85689 0.875977 6.60996V26.5978L6.33781 30.4982V40H8.67859V30.4982L14.1404 26.5978V6.60996ZM11.7996 17.7886L8.67859 20.8992V17.983L11.7996 14.8724V17.7886ZM3.26553 14.8724L6.38657 17.983V20.8992L3.26553 17.7886V14.8724ZM11.7996 11.5674L7.5082 15.8445L3.21676 11.4702V8.55407L7.5082 12.8311L11.7996 8.55407V11.5674ZM7.5082 2.33293C8.45201 2.33708 9.36842 2.64949 10.1171 3.22227C10.8658 3.79505 11.4054 4.59663 11.6533 5.50425L7.5082 9.62333L3.36306 5.50425C3.60194 4.58761 4.13768 3.77515 4.88717 3.19297C5.63666 2.61077 6.55797 2.29136 7.5082 2.28431V2.33293ZM3.21676 25.4192V21.045L6.33781 24.1555V27.6306L3.21676 25.4192ZM8.67859 27.6428V24.1555L11.7996 21.045V25.407L8.67859 27.6428Z" fill="#A1A1AA"/>
</g>
</svg>
