<svg width="198" height="66" viewBox="0 0 198 66" fill="none" xmlns="http://www.w3.org/2000/svg">
<path d="M59.3768 32.9999C59.3768 27.9801 57.9871 23.0582 55.3615 18.7797C52.736 14.5012 48.9772 11.0331 44.5017 8.75962" stroke="#FBBC05" stroke-width="10" stroke-linecap="round" stroke-linejoin="round"/>
<path d="M59.3768 32.9999C59.3768 38.9227 57.4428 44.6834 53.8688 49.4063C50.2948 54.1292 45.2764 57.5558 39.5765 59.1653C33.8767 60.7747 27.8071 60.4789 22.2908 58.3228C16.7744 56.1667 12.113 52.2682 9.01527 47.2202C5.91753 42.1721 4.5529 36.2506 5.12887 30.3559C5.70484 24.4613 8.1899 18.9159 12.2062 14.563C16.2225 10.21 21.5504 7.28764 27.3798 6.24013C33.2092 5.19262 39.2212 6.07729 44.5017 8.75962" stroke="#4285F4" stroke-width="10" stroke-linecap="round" stroke-linejoin="round"/>
<path d="M99.3079 46.48C97.1212 46.48 95.1079 45.9733 93.2679 44.96C91.4279 43.9467 89.9479 42.4533 88.8279 40.48C87.7346 38.48 87.1879 36.0267 87.1879 33.12C87.1879 30.24 87.7479 27.7867 88.8679 25.76C90.0146 23.7067 91.5212 22.1467 93.3879 21.08C95.2812 19.9867 97.3212 19.44 99.5079 19.44C101.188 19.44 102.695 19.7867 104.028 20.48C105.361 21.1467 106.468 21.9333 107.348 22.84L104.228 26.6C103.561 25.9867 102.855 25.4933 102.108 25.12C101.388 24.72 100.561 24.52 99.6279 24.52C98.4546 24.52 97.3746 24.8533 96.3879 25.52C95.4279 26.1867 94.6546 27.1467 94.0679 28.4C93.5079 29.6533 93.2279 31.16 93.2279 32.92C93.2279 35.5867 93.8012 37.6667 94.9479 39.16C96.0946 40.6533 97.6279 41.4 99.5479 41.4C100.615 41.4 101.561 41.16 102.388 40.68C103.241 40.2 103.988 39.6267 104.628 38.96L107.748 42.64C105.561 45.2 102.748 46.48 99.3079 46.48ZM111.229 46V26.16H117.109V46H111.229ZM114.149 23.24C113.162 23.24 112.362 22.96 111.749 22.4C111.136 21.84 110.829 21.0933 110.829 20.16C110.829 19.2267 111.136 18.48 111.749 17.92C112.362 17.36 113.162 17.08 114.149 17.08C115.136 17.08 115.936 17.36 116.549 17.92C117.162 18.48 117.469 19.2267 117.469 20.16C117.469 21.0933 117.162 21.84 116.549 22.4C115.936 22.96 115.136 23.24 114.149 23.24ZM122.284 46V26.16H127.084L127.484 29.64H127.644C128.364 28.3067 129.231 27.32 130.244 26.68C131.257 26.0133 132.271 25.68 133.284 25.68C133.844 25.68 134.311 25.72 134.684 25.8C135.057 25.8533 135.377 25.9467 135.644 26.08L134.684 31.16C134.337 31.0533 133.991 30.9733 133.644 30.92C133.324 30.8667 132.951 30.84 132.524 30.84C131.777 30.84 130.991 31.12 130.164 31.68C129.364 32.2133 128.697 33.1467 128.164 34.48V46H122.284ZM146.471 46.48C144.631 46.48 142.964 46.08 141.471 45.28C140.004 44.4533 138.831 43.2667 137.951 41.72C137.097 40.1467 136.671 38.2667 136.671 36.08C136.671 33.8667 137.151 31.9867 138.111 30.44C139.071 28.8933 140.337 27.72 141.911 26.92C143.484 26.0933 145.177 25.68 146.991 25.68C148.217 25.68 149.297 25.88 150.231 26.28C151.191 26.68 152.044 27.1867 152.791 27.8L150.031 31.6C149.097 30.8267 148.204 30.44 147.351 30.44C145.937 30.44 144.804 30.9467 143.951 31.96C143.124 32.9733 142.711 34.3467 142.711 36.08C142.711 37.7867 143.124 39.16 143.951 40.2C144.804 41.2133 145.871 41.72 147.151 41.72C147.791 41.72 148.417 41.5867 149.031 41.32C149.644 41.0267 150.204 40.68 150.711 40.28L153.031 44.12C152.044 44.9733 150.977 45.5867 149.831 45.96C148.684 46.3067 147.564 46.48 146.471 46.48ZM161.903 46.48C159.876 46.48 158.463 45.88 157.663 44.68C156.889 43.4533 156.503 41.84 156.503 39.84V17.96H162.383V40.08C162.383 40.6933 162.489 41.12 162.703 41.36C162.943 41.6 163.183 41.72 163.423 41.72C163.556 41.72 163.663 41.72 163.743 41.72C163.849 41.6933 163.983 41.6667 164.143 41.64L164.863 46C164.543 46.1333 164.129 46.24 163.623 46.32C163.143 46.4267 162.569 46.48 161.903 46.48ZM176.828 46.48C174.935 46.48 173.228 46.0667 171.708 45.24C170.188 44.4133 168.988 43.2267 168.108 41.68C167.228 40.1333 166.788 38.2667 166.788 36.08C166.788 33.92 167.228 32.0667 168.108 30.52C169.015 28.9733 170.188 27.7867 171.628 26.96C173.068 26.1067 174.575 25.68 176.148 25.68C178.041 25.68 179.601 26.1067 180.828 26.96C182.081 27.7867 183.015 28.92 183.628 30.36C184.268 31.7733 184.588 33.3867 184.588 35.2C184.588 35.7067 184.561 36.2133 184.508 36.72C184.455 37.2 184.401 37.56 184.348 37.8H172.468C172.735 39.24 173.335 40.3067 174.268 41C175.201 41.6667 176.321 42 177.628 42C179.041 42 180.468 41.56 181.908 40.68L183.868 44.24C182.855 44.9333 181.721 45.48 180.468 45.88C179.215 46.28 178.001 46.48 176.828 46.48ZM172.428 33.92H179.588C179.588 32.8267 179.321 31.9333 178.788 31.24C178.281 30.52 177.441 30.16 176.268 30.16C175.361 30.16 174.548 30.48 173.828 31.12C173.108 31.7333 172.641 32.6667 172.428 33.92Z" fill="black"/>
</svg>
