<svg width="157" height="41" viewBox="0 0 157 41" fill="none" xmlns="http://www.w3.org/2000/svg">
<g id="6">
<path id="Vector" d="M50.2375 20.7296C50.2375 15.4253 48.1303 10.3381 44.3795 6.58738C40.6288 2.83664 35.5417 0.729493 30.2374 0.729492C24.933 0.729491 19.846 2.83664 16.0952 6.58738C12.3445 10.3381 10.2373 15.4253 10.2373 20.7296H16.4874C18.5585 20.7296 20.1737 18.994 20.9323 17.0668C21.4304 15.8015 22.1861 14.6387 23.1662 13.6584C25.0416 11.7831 27.5852 10.7295 30.2374 10.7295C32.8895 10.7295 35.4331 11.7831 37.3085 13.6584C39.1839 15.5338 40.2374 18.0774 40.2374 20.7296H50.2375Z" fill="url(#paint0_linear_187_277)"/>
<path id="Vector_2" d="M38.7169 28.3831C39.722 25.9566 40.2394 23.3559 40.2394 20.7295H50.2383C50.2383 31.7752 41.2839 40.7295 30.2382 40.7295C28.5084 40.7295 26.8298 40.5099 25.229 40.0971C26.1347 39.8637 27.025 39.5665 27.8929 39.2071C30.3194 38.202 32.5242 36.7288 34.3814 34.8716C36.2386 33.0145 37.7119 30.8097 38.7169 28.3831Z" fill="#FBCF8E"/>
<path id="Vector_3" d="M0.23877 20.7295C0.238769 23.356 0.756086 25.9567 1.76118 28.3833C2.76628 30.8098 4.23947 33.0146 6.09665 34.8718C7.95383 36.7288 10.1586 38.2021 12.5851 39.2072C15.0116 40.2123 17.6124 40.7296 20.2389 40.7296C22.8652 40.7296 25.466 40.2123 27.8925 39.2072C30.319 38.2021 32.5238 36.7288 34.381 34.8718C36.2382 33.0146 37.7113 30.8098 38.7165 28.3833C39.7216 25.9567 40.239 23.356 40.239 20.7295H33.9888C31.9177 20.7295 30.3025 22.4651 29.5439 24.3922C29.5224 24.4471 29.5002 24.5018 29.4777 24.5564C28.9751 25.7696 28.2385 26.8721 27.3099 27.8006C26.3813 28.7292 25.2789 29.4659 24.0657 29.9684C22.8525 30.471 21.5521 30.7296 20.2389 30.7296C18.9256 30.7296 17.6252 30.471 16.412 29.9684C15.1987 29.4659 14.0964 28.7292 13.1677 27.8006C12.2391 26.8721 11.5026 25.7696 11 24.5564C10.4975 23.3431 10.2388 22.0427 10.2388 20.7295H0.23877Z" fill="url(#paint1_linear_187_277)"/>
<path id="Vector_4" d="M0.241211 20.7296C0.241211 9.6838 9.19552 0.729492 20.2412 0.729492C21.9706 0.729492 23.6487 0.948986 25.2494 1.36165C21.8149 2.24641 18.6466 4.03693 16.0961 6.58739C12.3453 10.3381 10.2382 15.4253 10.2382 20.7296H0.241211Z" fill="#73E5E2"/>
<g id="Preso">
<path d="M69.9874 10.5277V20.9166H72.2668C73.0267 20.9166 73.6111 20.7121 74.0203 20.3029C74.4294 19.8938 74.6339 19.134 74.6339 18.0235V13.4208C74.6339 12.3103 74.4294 11.5505 74.0203 11.1414C73.6111 10.7322 73.0267 10.5277 72.2668 10.5277H69.9874ZM72.2668 6.14414C74.6924 6.14414 76.4896 6.78705 77.6586 8.07289C78.8567 9.35872 79.4558 11.2436 79.4558 13.7276V17.7166C79.4558 20.2006 78.8567 22.0856 77.6586 23.3714C76.4896 24.6572 74.6924 25.3001 72.2668 25.3001H69.9874V36.8288H65.1655V6.14414H72.2668Z" fill="#D4D4D8"/>
<path d="M89.0898 10.5277V19.9522H90.9747C91.8806 19.9522 92.582 19.7185 93.0788 19.2509C93.6048 18.7833 93.8678 17.9358 93.8678 16.7084V13.6838C93.8678 12.5733 93.6633 11.7697 93.2541 11.2729C92.8742 10.7761 92.2605 10.5277 91.4131 10.5277H89.0898ZM94.35 36.8288C94.2916 36.6243 94.2331 36.4343 94.1747 36.259C94.1162 36.0836 94.0578 35.8644 93.9993 35.6014C93.9701 35.3384 93.9409 35.0023 93.9117 34.5932C93.9117 34.1841 93.9117 33.6727 93.9117 33.059V28.2371C93.9117 26.8052 93.6633 25.7969 93.1665 25.2125C92.6697 24.628 91.866 24.3358 90.7555 24.3358H89.0898V36.8288H84.2679V6.14414H91.5446C94.0578 6.14414 95.8696 6.72861 96.9801 7.89755C98.1199 9.06649 98.6897 10.8345 98.6897 13.2016V15.6126C98.6897 18.7687 97.6377 20.8436 95.5336 21.8372C96.761 22.334 97.5938 23.1522 98.0322 24.2919C98.4998 25.4024 98.7335 26.7613 98.7335 28.3686V33.1028C98.7335 33.8626 98.7628 34.5348 98.8212 35.1192C98.8797 35.6745 99.0258 36.2443 99.2596 36.8288H94.35Z" fill="#D4D4D8"/>
<path d="M109.305 19.0755H115.924V23.4591H109.305V32.4453H117.634V36.8288H104.483V6.14414H117.634V10.5277H109.305V19.0755Z" fill="#D4D4D8"/>
<path d="M122.587 13.5085C122.587 11.0245 123.171 9.12493 124.34 7.80988C125.538 6.4656 127.321 5.79346 129.688 5.79346C132.055 5.79346 133.823 6.4656 134.992 7.80988C136.19 9.12493 136.789 11.0245 136.789 13.5085V14.692H132.23V13.2016C132.23 12.0911 132.011 11.3167 131.573 10.8783C131.164 10.4108 130.579 10.177 129.82 10.177C129.06 10.177 128.461 10.4108 128.022 10.8783C127.613 11.3167 127.409 12.0911 127.409 13.2016C127.409 14.2537 127.642 15.1888 128.11 16.0071C128.578 16.7961 129.162 17.5559 129.863 18.2865C130.565 18.9879 131.31 19.7038 132.099 20.4344C132.917 21.1358 133.677 21.9102 134.378 22.7577C135.08 23.6052 135.664 24.5696 136.132 25.6508C136.599 26.7321 136.833 28.0033 136.833 29.4645C136.833 31.9485 136.219 33.8626 134.992 35.2069C133.794 36.522 132.011 37.1795 129.644 37.1795C127.277 37.1795 125.48 36.522 124.252 35.2069C123.054 33.8626 122.455 31.9485 122.455 29.4645V27.3604H127.014V29.7713C127.014 30.8818 127.233 31.6563 127.672 32.0946C128.139 32.533 128.753 32.7521 129.513 32.7521C130.272 32.7521 130.872 32.533 131.31 32.0946C131.778 31.6563 132.011 30.8818 132.011 29.7713C132.011 28.7193 131.778 27.7988 131.31 27.0097C130.842 26.1915 130.258 25.4317 129.557 24.7303C128.855 23.9997 128.095 23.2837 127.277 22.5824C126.488 21.8518 125.743 21.0627 125.041 20.2153C124.34 19.3678 123.756 18.4034 123.288 17.3221C122.821 16.2409 122.587 14.9696 122.587 13.5085Z" fill="#D4D4D8"/>
<path d="M141.78 13.5085C141.78 11.0245 142.408 9.12493 143.665 7.80988C144.921 6.4656 146.733 5.79346 149.1 5.79346C151.467 5.79346 153.279 6.4656 154.536 7.80988C155.793 9.12493 156.421 11.0245 156.421 13.5085V29.4645C156.421 31.9485 155.793 33.8626 154.536 35.2069C153.279 36.522 151.467 37.1795 149.1 37.1795C146.733 37.1795 144.921 36.522 143.665 35.2069C142.408 33.8626 141.78 31.9485 141.78 29.4645V13.5085ZM146.602 29.7713C146.602 30.8818 146.821 31.6709 147.259 32.1384C147.727 32.5768 148.341 32.796 149.1 32.796C149.86 32.796 150.459 32.5768 150.898 32.1384C151.365 31.6709 151.599 30.8818 151.599 29.7713V13.2016C151.599 12.0911 151.365 11.3167 150.898 10.8783C150.459 10.4108 149.86 10.177 149.1 10.177C148.341 10.177 147.727 10.4108 147.259 10.8783C146.821 11.3167 146.602 12.0911 146.602 13.2016V29.7713Z" fill="#D4D4D8"/>
</g>
</g>
<defs>
<linearGradient id="paint0_linear_187_277" x1="50.2375" y1="10.7295" x2="10.2373" y2="10.7295" gradientUnits="userSpaceOnUse">
<stop stop-color="#73E5E2"/>
<stop offset="1" stop-color="#394F87"/>
</linearGradient>
<linearGradient id="paint1_linear_187_277" x1="0.238771" y1="30.7296" x2="40.239" y2="30.7296" gradientUnits="userSpaceOnUse">
<stop stop-color="#FBDC8E"/>
<stop offset="1" stop-color="#FB958E"/>
</linearGradient>
</defs>
</svg>
