<svg width="42" height="43" viewBox="0 0 42 43" fill="none" xmlns="http://www.w3.org/2000/svg">
<path id="Vector" d="M21 30.6184V27.465C21 25.3673 22.3422 23.505 24.3333 22.8406C25.3039 22.517 26.148 21.8963 26.7463 21.0663C27.3445 20.2364 27.6665 19.2392 27.6667 18.2162V17.0762C27.6667 13.5073 24.7778 10.6184 21.2089 10.6184H21C19.2319 10.6184 17.5362 11.3208 16.286 12.571C15.0357 13.8212 14.3333 15.5169 14.3333 17.285M41 21.7295C41 32.7752 32.0457 41.7295 21 41.7295C9.95431 41.7295 1 32.7752 1 21.7295C1 10.6838 9.95431 1.72949 21 1.72949C32.0457 1.72949 41 10.6838 41 21.7295ZM22.1111 35.0628C22.1111 35.6765 21.6137 36.1739 21 36.1739C20.3864 36.1739 19.8889 35.6765 19.8889 35.0628C19.8889 34.4492 20.3864 33.9517 21 33.9517C21.6137 33.9517 22.1111 34.4492 22.1111 35.0628Z" stroke="black" stroke-width="2"/>
</svg>
