<svg width="46" height="43" viewBox="0 0 46 43" fill="none" xmlns="http://www.w3.org/2000/svg">
<g id="folder-favorite 1">
<g id="Group">
<path id="Vector" d="M30.5617 19.1904C30.0508 18.6686 29.429 18.2687 28.7423 18.0202C28.0557 17.7717 27.3219 17.6811 26.5954 17.7551C25.8689 17.8291 25.1684 18.0657 24.546 18.4475C23.9235 18.8293 23.395 19.3464 22.9997 19.9604C22.6046 19.3462 22.0762 18.829 21.4537 18.4471C20.8312 18.0652 20.1307 17.8285 19.4042 17.7545C18.6776 17.6805 17.9438 17.7712 17.2571 18.0198C16.5704 18.2684 15.9486 18.6685 15.4377 19.1904C14.5161 20.133 14 21.399 14 22.7174C14 24.0357 14.5161 25.3017 15.4377 26.2444L22.9997 33.9294L30.5637 26.2454C31.4847 25.3021 32.0002 24.0359 31.9998 22.7175C31.9994 21.3991 31.4833 20.1332 30.5617 19.1904Z" fill="#D4D4D8" stroke="#161616" stroke-width="2" stroke-miterlimit="10" stroke-linecap="round" stroke-linejoin="round"/>
<path id="Vector_2" d="M41 41.7295H5C3.93913 41.7295 2.92172 41.3081 2.17157 40.5579C1.42143 39.8078 1 38.7904 1 37.7295V1.72949H17L22 9.72949H45V37.7295C45 38.7904 44.5786 39.8078 43.8284 40.5579C43.0783 41.3081 42.0609 41.7295 41 41.7295Z" stroke="#161616" stroke-width="2" stroke-miterlimit="10" stroke-linecap="round" stroke-linejoin="round"/>
</g>
</g>
</svg>
