<svg width="170" height="40" viewBox="0 0 170 40" fill="none" xmlns="http://www.w3.org/2000/svg">
<g id="7">
<path id="Vector" d="M28.8909 18.7905C30.3354 17.5809 31.254 15.764 31.254 13.7325C31.254 11.7011 30.3354 9.88424 28.8909 8.67461C29.0565 8.59444 29.2158 8.50744 29.3676 8.41315C30.3257 7.81741 31.4565 7.47335 32.6678 7.47335C36.1247 7.47335 38.927 10.2757 38.927 13.7325C38.927 17.1894 36.1247 19.9917 32.6678 19.9917C31.4565 19.9917 30.3257 19.6476 29.3676 19.0519C29.2158 18.9577 29.0565 18.8707 28.8909 18.7905Z" fill="url(#paint0_linear_269_71)"/>
<path id="Vector_2" d="M27.1529 14.7179C27.799 12.9481 27.6861 10.9153 26.6704 9.15605C25.6546 7.39678 23.9507 6.2826 22.0949 5.95728C22.1982 5.80511 22.2926 5.6501 22.3768 5.49256C22.9088 4.49758 23.7162 3.63417 24.7651 3.02854C27.7589 1.30012 31.587 2.32584 33.3154 5.31956C35.0438 8.31329 34.0181 12.1414 31.0243 13.8698C29.9754 14.4754 28.8239 14.7429 27.6963 14.7061C27.5178 14.7002 27.3363 14.7046 27.1529 14.7179Z" fill="url(#paint1_linear_269_71)"/>
<path id="Vector_3" d="M23.611 12.0601C23.2857 10.2043 22.1715 8.50033 20.4122 7.48461C18.653 6.46889 16.6202 6.35598 14.8504 7.00211C14.8638 6.8187 14.8681 6.63722 14.8622 6.45869C14.8254 5.33104 15.0929 4.17962 15.6985 3.13063C17.427 0.136916 21.255 -0.888809 24.2488 0.839617C27.2424 2.56804 28.2683 6.3961 26.5398 9.38986C25.9341 10.4388 25.0707 11.2462 24.0757 11.7781C23.9183 11.8623 23.7632 11.9567 23.611 12.0601Z" fill="url(#paint2_linear_269_71)"/>
<path id="Vector_4" d="M19.2137 11.5294C18.004 10.0849 16.1872 9.16637 14.1557 9.16637C12.1242 9.16637 10.3074 10.0849 9.09773 11.5294C9.01761 11.3639 8.93059 11.2046 8.83627 11.0528C8.24054 10.0947 7.89648 8.9638 7.89648 7.75253C7.89648 4.29566 10.6988 1.49333 14.1557 1.49333C17.6125 1.49333 20.4149 4.29566 20.4149 7.75253C20.4149 8.9638 20.0708 10.0947 19.4751 11.0528C19.3807 11.2046 19.2937 11.3639 19.2137 11.5294Z" fill="url(#paint3_linear_269_71)"/>
<path id="Vector_5" d="M15.1399 13.268C13.3701 12.6219 11.3373 12.7348 9.57799 13.7505C7.81871 14.7662 6.70453 16.4702 6.37921 18.3259C6.22705 18.2226 6.07203 18.1282 5.91448 18.044C4.91951 17.5121 4.05609 16.7047 3.45046 15.6557C1.72203 12.6619 2.74775 8.83394 5.74148 7.10549C8.73521 5.37706 12.5632 6.40278 14.2917 9.39653C14.8974 10.4455 15.1648 11.5969 15.1279 12.7245C15.1222 12.903 15.1264 13.0846 15.1399 13.268Z" fill="url(#paint4_linear_269_71)"/>
<path id="Vector_6" d="M12.481 16.8104C10.6252 17.1357 8.92128 18.2499 7.90556 20.0092C6.88984 21.7684 6.77693 23.8012 7.42307 25.571C7.23963 25.5576 7.05813 25.5533 6.87958 25.5591C5.75194 25.596 4.60052 25.3285 3.55154 24.7229C0.557814 22.9944 -0.467912 19.1664 1.26052 16.1726C2.98894 13.179 6.817 12.1531 9.81073 13.8816C10.8597 14.4873 11.6671 15.3506 12.199 16.3456C12.2832 16.5031 12.3777 16.6582 12.481 16.8104Z" fill="url(#paint5_linear_269_71)"/>
<path id="Vector_7" d="M11.9503 21.2074C10.5058 22.417 9.58723 24.2339 9.58723 26.2653C9.58723 28.2968 10.5058 30.1137 11.9503 31.3233C11.7848 31.4033 11.6255 31.4905 11.4737 31.5847C10.5156 32.1804 9.3847 32.5245 8.17343 32.5245C4.71658 32.5245 1.91425 29.7222 1.91425 26.2653C1.91425 22.8084 4.71658 20.0061 8.17343 20.0061C9.3847 20.0061 10.5156 20.3502 11.4737 20.946C11.6255 21.0402 11.7848 21.1272 11.9503 21.2074Z" fill="url(#paint6_linear_269_71)"/>
<path id="Vector_8" d="M13.6877 25.281C13.0415 27.0508 13.1544 29.0835 14.1702 30.8428C15.1859 32.6022 16.8899 33.7162 18.7456 34.0416C18.6423 34.1938 18.5479 34.3488 18.4637 34.5064C17.9317 35.5013 17.1244 36.3647 16.0754 36.9703C13.0816 38.6988 9.25359 37.673 7.52517 34.6793C5.79673 31.6856 6.82247 27.8576 9.81619 26.1291C10.8652 25.5234 12.0166 25.256 13.1442 25.2929C13.3227 25.2987 13.5043 25.2944 13.6877 25.281Z" fill="url(#paint7_linear_269_71)"/>
<path id="Vector_9" d="M17.2304 27.9399C17.5557 29.7956 18.6699 31.4996 20.4292 32.5152C22.1885 33.5309 24.2213 33.6439 25.9911 32.9977C25.9777 33.1812 25.9734 33.3626 25.9792 33.5412C26.0161 34.6689 25.7486 35.8203 25.143 36.8692C23.4145 39.863 19.5865 40.8887 16.5927 39.1602C13.599 37.4318 12.5733 33.6038 14.3018 30.6101C14.9074 29.5611 15.7708 28.7537 16.7657 28.2218C16.9233 28.1376 17.0783 28.0431 17.2304 27.9399Z" fill="url(#paint8_linear_269_71)"/>
<path id="Vector_10" d="M21.627 28.4717C22.8366 29.9162 24.6535 30.8347 26.685 30.8347C28.7165 30.8347 30.5333 29.9162 31.743 28.4717C31.823 28.6372 31.91 28.7965 32.0044 28.9482C32.6001 29.9063 32.9442 31.0373 32.9442 32.2485C32.9442 35.7054 30.1418 38.5077 26.685 38.5077C23.2281 38.5077 20.4258 35.7054 20.4258 32.2485C20.4258 31.0373 20.7698 29.9063 21.3655 28.9482C21.4599 28.7965 21.5469 28.6372 21.627 28.4717Z" fill="url(#paint9_linear_269_71)"/>
<path id="Vector_11" d="M25.7009 26.7336C27.4707 27.3797 29.5034 27.2668 31.2627 26.2512C33.022 25.2354 34.1361 23.5315 34.4615 21.6757C34.6136 21.7789 34.7686 21.8734 34.9262 21.9577C35.9212 22.4896 36.7846 23.297 37.3902 24.3459C39.1187 27.3397 38.0929 31.1677 35.0992 32.8962C32.1055 34.6246 28.2775 33.5989 26.549 30.6051C25.9433 29.5562 25.6759 28.4047 25.7127 27.2771C25.7186 27.0986 25.7143 26.9171 25.7009 26.7336Z" fill="url(#paint10_linear_269_71)"/>
<path id="Vector_12" d="M32.9387 19.9859C32.9375 19.9881 32.9362 19.9903 32.9349 19.9925C31.9193 21.7517 30.2153 22.8659 28.3596 23.1912C28.4628 23.3435 28.5573 23.4985 28.6415 23.6559C29.1734 24.651 29.9808 25.5144 31.0298 26.12C34.0235 27.8485 37.8515 26.8227 39.58 23.829C41.0618 21.2624 40.5193 18.0826 38.4479 16.1383C37.5379 18.3221 35.4263 19.8799 32.9387 19.9859Z" fill="url(#paint11_linear_269_71)"/>
<g id="Ridoria">
<path d="M54.6746 33.8007V8.55971H64.633C66.5392 8.55971 68.1661 8.90069 69.5136 9.58266C70.8693 10.2564 71.9005 11.2136 72.6071 12.4543C73.3219 13.6868 73.6793 15.137 73.6793 16.805C73.6793 18.4811 73.3178 19.9231 72.5948 21.1309C71.8717 22.3305 70.8241 23.2508 69.452 23.8917C68.088 24.5326 66.4365 24.853 64.4974 24.853H57.8298V20.564H63.6347C64.6535 20.564 65.4998 20.4243 66.1736 20.1449C66.8473 19.8656 67.3485 19.4465 67.6772 18.8878C68.0141 18.3291 68.1825 17.6348 68.1825 16.805C68.1825 15.9669 68.0141 15.2603 67.6772 14.6851C67.3485 14.1099 66.8432 13.6745 66.1613 13.3787C65.4875 13.0747 64.6371 12.9227 63.61 12.9227H60.0112V33.8007H54.6746ZM68.3058 22.3141L74.5791 33.8007H68.6878L62.5501 22.3141H68.3058Z" fill="#D4D4D8"/>
<path d="M77.3521 33.8007V14.87H82.6024V33.8007H77.3521ZM79.9896 12.4297C79.209 12.4297 78.5394 12.1709 77.9807 11.6532C77.4302 11.1274 77.1549 10.4988 77.1549 9.76753C77.1549 9.04448 77.4302 8.42414 77.9807 7.9065C78.5394 7.38064 79.209 7.11772 79.9896 7.11772C80.7702 7.11772 81.4357 7.38064 81.9862 7.9065C82.5449 8.42414 82.8243 9.04448 82.8243 9.76753C82.8243 10.4988 82.5449 11.1274 81.9862 11.6532C81.4357 12.1709 80.7702 12.4297 79.9896 12.4297Z" fill="#D4D4D8"/>
<path d="M93.7841 34.1089C92.3462 34.1089 91.0439 33.7391 89.8771 32.9996C88.7186 32.2519 87.7983 31.155 87.1164 29.7089C86.4426 28.2546 86.1057 26.4716 86.1057 24.36C86.1057 22.1909 86.4549 20.3873 87.1534 18.9495C87.8517 17.5034 88.7802 16.4229 89.9387 15.7081C91.1055 14.985 92.3831 14.6235 93.7717 14.6235C94.8317 14.6235 95.7149 14.8042 96.4215 15.1658C97.1364 15.5191 97.7115 15.9628 98.147 16.4968C98.5907 17.0227 98.9276 17.5403 99.1576 18.0497H99.3179V8.55971H104.556V33.8007H99.3795V30.7689H99.1576C98.9111 31.2947 98.5619 31.8165 98.11 32.3341C97.6663 32.8435 97.0871 33.2667 96.3722 33.6035C95.6656 33.9404 94.8029 34.1089 93.7841 34.1089ZM95.4479 29.9308C96.2942 29.9308 97.009 29.7007 97.5924 29.2406C98.184 28.7723 98.6359 28.119 98.9481 27.281C99.2686 26.4429 99.4288 25.461 99.4288 24.3354C99.4288 23.2097 99.2727 22.2319 98.9604 21.4021C98.6482 20.5722 98.1963 19.9313 97.6047 19.4794C97.0131 19.0275 96.2942 18.8016 95.4479 18.8016C94.5852 18.8016 93.858 19.0357 93.2664 19.5041C92.6748 19.9724 92.227 20.6215 91.923 21.4514C91.619 22.2812 91.467 23.2426 91.467 24.3354C91.467 25.4364 91.619 26.41 91.923 27.2563C92.2352 28.0944 92.683 28.7517 93.2664 29.2283C93.858 29.6966 94.5852 29.9308 95.4479 29.9308Z" fill="#D4D4D8"/>
<path d="M117.426 34.1705C115.512 34.1705 113.856 33.7638 112.459 32.9503C111.071 32.1287 109.998 30.9866 109.242 29.5241C108.486 28.0533 108.108 26.3484 108.108 24.4093C108.108 22.4538 108.486 20.7448 109.242 19.2822C109.998 17.8115 111.071 16.6694 112.459 15.8559C113.856 15.0343 115.512 14.6235 117.426 14.6235C119.34 14.6235 120.992 15.0343 122.38 15.8559C123.777 16.6694 124.854 17.8115 125.61 19.2822C126.365 20.7448 126.743 22.4538 126.743 24.4093C126.743 26.3484 126.365 28.0533 125.61 29.5241C124.854 30.9866 123.777 32.1287 122.38 32.9503C120.992 33.7638 119.34 34.1705 117.426 34.1705ZM117.451 30.1033C118.322 30.1033 119.049 29.8568 119.632 29.3638C120.215 28.8626 120.655 28.1807 120.951 27.3179C121.255 26.4552 121.407 25.4733 121.407 24.3723C121.407 23.2713 121.255 22.2895 120.951 21.4267C120.655 20.564 120.215 19.882 119.632 19.3808C119.049 18.8796 118.322 18.629 117.451 18.629C116.571 18.629 115.832 18.8796 115.232 19.3808C114.641 19.882 114.193 20.564 113.889 21.4267C113.593 22.2895 113.445 23.2713 113.445 24.3723C113.445 25.4733 113.593 26.4552 113.889 27.3179C114.193 28.1807 114.641 28.8626 115.232 29.3638C115.832 29.8568 116.571 30.1033 117.451 30.1033Z" fill="#D4D4D8"/>
<path d="M130.157 33.8007V14.87H135.247V18.173H135.445C135.79 16.998 136.369 16.1107 137.182 15.5109C137.996 14.9028 138.933 14.5988 139.993 14.5988C140.255 14.5988 140.539 14.6153 140.843 14.6481C141.147 14.681 141.414 14.7262 141.644 14.7837V19.4424C141.398 19.3685 141.057 19.3028 140.621 19.2452C140.186 19.1877 139.787 19.159 139.426 19.159C138.653 19.159 137.963 19.3274 137.355 19.6643C136.755 19.9929 136.279 20.4531 135.925 21.0447C135.58 21.6362 135.408 22.3182 135.408 23.0906V33.8007H130.157Z" fill="#D4D4D8"/>
<path d="M144.359 33.8007V14.87H149.609V33.8007H144.359ZM146.996 12.4297C146.215 12.4297 145.546 12.1709 144.987 11.6532C144.437 11.1274 144.161 10.4988 144.161 9.76753C144.161 9.04448 144.437 8.42414 144.987 7.9065C145.546 7.38064 146.215 7.11772 146.996 7.11772C147.777 7.11772 148.442 7.38064 148.993 7.9065C149.551 8.42414 149.831 9.04448 149.831 9.76753C149.831 10.4988 149.551 11.1274 148.993 11.6532C148.442 12.1709 147.777 12.4297 146.996 12.4297Z" fill="#D4D4D8"/>
<path d="M159.213 34.1582C158.005 34.1582 156.929 33.9486 155.984 33.5296C155.039 33.1023 154.291 32.4738 153.741 31.6439C153.198 30.8058 152.927 29.7623 152.927 28.5134C152.927 27.4617 153.12 26.5785 153.507 25.8636C153.893 25.1488 154.419 24.5736 155.084 24.1382C155.75 23.7027 156.506 23.374 157.352 23.1522C158.206 22.9303 159.102 22.7742 160.039 22.6838C161.14 22.5688 162.027 22.462 162.701 22.3634C163.375 22.2566 163.863 22.1005 164.167 21.8951C164.471 21.6896 164.623 21.3856 164.623 20.983V20.9091C164.623 20.1285 164.377 19.5246 163.884 19.0973C163.399 18.6701 162.709 18.4565 161.813 18.4565C160.869 18.4565 160.117 18.666 159.558 19.085C158.999 19.4958 158.63 20.0135 158.449 20.6379L153.593 20.2435C153.839 19.0932 154.324 18.099 155.047 17.261C155.77 16.4147 156.703 15.7656 157.845 15.3137C158.995 14.8535 160.326 14.6235 161.838 14.6235C162.89 14.6235 163.896 14.7467 164.858 14.9932C165.827 15.2397 166.686 15.6218 167.434 16.1394C168.189 16.6571 168.785 17.3226 169.221 18.136C169.656 18.9412 169.874 19.9067 169.874 21.0323V33.8007H164.895V31.1756H164.747C164.443 31.7672 164.036 32.2889 163.527 32.7408C163.017 33.1845 162.405 33.5337 161.69 33.7884C160.975 34.0349 160.15 34.1582 159.213 34.1582ZM160.717 30.5347C161.489 30.5347 162.171 30.3827 162.762 30.0787C163.354 29.7665 163.818 29.3474 164.155 28.8216C164.492 28.2957 164.66 27.7 164.66 27.0345V25.0255C164.496 25.1324 164.27 25.231 163.983 25.3213C163.703 25.4035 163.387 25.4816 163.034 25.5555C162.68 25.6212 162.327 25.6829 161.974 25.7404C161.62 25.7897 161.3 25.8349 161.012 25.8759C160.396 25.9663 159.858 26.1101 159.398 26.3073C158.938 26.5045 158.58 26.7715 158.326 27.1084C158.071 27.4371 157.943 27.8479 157.943 28.3409C157.943 29.0557 158.202 29.6021 158.72 29.9801C159.246 30.3498 159.911 30.5347 160.717 30.5347Z" fill="#D4D4D8"/>
</g>
</g>
<defs>
<linearGradient id="paint0_linear_269_71" x1="29.6746" y1="7.47335" x2="29.6746" y2="19.9917" gradientUnits="userSpaceOnUse">
<stop stop-color="#25136D"/>
<stop offset="1" stop-color="#3D9BA2"/>
</linearGradient>
<linearGradient id="paint1_linear_269_71" x1="22.173" y1="4.52512" x2="28.4322" y2="15.3664" gradientUnits="userSpaceOnUse">
<stop stop-color="#25136D"/>
<stop offset="1" stop-color="#3D9BA2"/>
</linearGradient>
<linearGradient id="paint2_linear_269_71" x1="14.202" y1="5.7228" x2="25.0432" y2="11.982" gradientUnits="userSpaceOnUse">
<stop stop-color="#25136D"/>
<stop offset="1" stop-color="#3D9BA2"/>
</linearGradient>
<linearGradient id="paint3_linear_269_71" x1="7.89648" y1="10.7456" x2="20.4149" y2="10.7456" gradientUnits="userSpaceOnUse">
<stop stop-color="#25136D"/>
<stop offset="1" stop-color="#3D9BA2"/>
</linearGradient>
<linearGradient id="paint4_linear_269_71" x1="4.94705" y1="18.2478" x2="15.7883" y2="11.9886" gradientUnits="userSpaceOnUse">
<stop stop-color="#25136D"/>
<stop offset="1" stop-color="#3D9BA2"/>
</linearGradient>
<linearGradient id="paint5_linear_269_71" x1="6.14372" y1="26.2194" x2="12.4029" y2="15.3782" gradientUnits="userSpaceOnUse">
<stop stop-color="#25136D"/>
<stop offset="1" stop-color="#3D9BA2"/>
</linearGradient>
<linearGradient id="paint6_linear_269_71" x1="11.1666" y1="32.5245" x2="11.1666" y2="20.0061" gradientUnits="userSpaceOnUse">
<stop stop-color="#25136D"/>
<stop offset="1" stop-color="#3D9BA2"/>
</linearGradient>
<linearGradient id="paint7_linear_269_71" x1="18.6675" y1="35.4738" x2="12.4083" y2="24.6325" gradientUnits="userSpaceOnUse">
<stop stop-color="#25136D"/>
<stop offset="1" stop-color="#3D9BA2"/>
</linearGradient>
<linearGradient id="paint8_linear_269_71" x1="26.6396" y1="34.2771" x2="15.7983" y2="28.0178" gradientUnits="userSpaceOnUse">
<stop stop-color="#25136D"/>
<stop offset="1" stop-color="#3D9BA2"/>
</linearGradient>
<linearGradient id="paint9_linear_269_71" x1="32.9442" y1="29.2554" x2="20.4258" y2="29.2554" gradientUnits="userSpaceOnUse">
<stop stop-color="#25136D"/>
<stop offset="1" stop-color="#3D9BA2"/>
</linearGradient>
<linearGradient id="paint10_linear_269_71" x1="35.8937" y1="21.7538" x2="25.0524" y2="28.013" gradientUnits="userSpaceOnUse">
<stop stop-color="#25136D"/>
<stop offset="1" stop-color="#3D9BA2"/>
</linearGradient>
<linearGradient id="paint11_linear_269_71" x1="34.6968" y1="13.7822" x2="28.4376" y2="24.6234" gradientUnits="userSpaceOnUse">
<stop stop-color="#25136D"/>
<stop offset="1" stop-color="#3D9BA2"/>
</linearGradient>
</defs>
</svg>
