<svg width="148" height="29" viewBox="0 0 148 29" fill="none" xmlns="http://www.w3.org/2000/svg">
<g id="Social">
<g id="1">
<circle id="BG" cx="14" cy="14.0664" r="14" fill="#1E293B"/>
<g id="logo-twitter 2">
<g id="Group">
<path id="Vector" d="M20.2071 11.0495C19.7881 11.2357 19.3458 11.3521 18.8802 11.422C19.3458 11.1426 19.7183 10.7003 19.8812 10.1649C19.4389 10.421 18.9501 10.6072 18.4146 10.7236C17.9956 10.2813 17.3904 10.002 16.7386 10.002C15.4815 10.002 14.4572 11.0262 14.4572 12.2833C14.4572 12.4695 14.4805 12.6325 14.5271 12.7954C12.6415 12.7023 10.9421 11.7944 9.80141 10.3977C9.61518 10.7469 9.49878 11.1193 9.49878 11.5384C9.49878 12.3299 9.89453 13.0282 10.5231 13.4472C10.1506 13.424 9.80141 13.3309 9.4755 13.1679V13.1912C9.4755 14.3086 10.267 15.2397 11.3145 15.4492C11.1283 15.4958 10.9188 15.5191 10.7093 15.5191C10.5696 15.5191 10.4067 15.4958 10.267 15.4725C10.5696 16.3804 11.4077 17.0555 12.4087 17.0555C11.6172 17.6607 10.6395 18.0332 9.56862 18.0332C9.38239 18.0332 9.19616 18.0332 9.0332 18.0099C10.0575 18.6617 11.2447 19.0342 12.5483 19.0342C16.7618 19.0342 19.0665 15.5424 19.0665 12.5161C19.0665 12.423 19.0665 12.3066 19.0665 12.2135C19.5088 11.9108 19.9045 11.5151 20.2071 11.0495Z" fill="white"/>
</g>
</g>
</g>
<g id="2">
<circle id="BG_2" cx="54" cy="14.0664" r="14" fill="#1E293B"/>
<g id="logo-fb-simple 2">
<g id="Group_2">
<path id="Vector_2" d="M52.7087 20.3702V14.8167H50.8398V12.6523H52.7087V11.0562C52.7087 9.20392 53.84 8.19531 55.4924 8.19531C56.2839 8.19531 56.9642 8.25424 57.1624 8.28058V10.2163L56.0164 10.2169C55.1178 10.2169 54.9438 10.6439 54.9438 11.2705V12.6523H57.087L56.8079 14.8167H54.9438V20.3702H52.7087Z" fill="white"/>
</g>
</g>
</g>
<g id="3">
<circle id="BG_3" cx="94" cy="14.0664" r="14" fill="#1E293B"/>
<g id="logo-instagram 1">
<g id="Group_3">
<path id="Vector_3" d="M94.0008 8.51361C95.8095 8.51361 96.0237 8.52039 96.7382 8.55297C97.1678 8.55823 97.5933 8.63711 97.9962 8.78619C98.2884 8.89889 98.5538 9.07151 98.7753 9.29297C98.9967 9.51442 99.1694 9.77979 99.282 10.072C99.4311 10.4749 99.51 10.9005 99.5153 11.3301C99.5475 12.0446 99.5546 12.2588 99.5546 14.0675C99.5546 15.8762 99.5479 16.0904 99.5153 16.8049C99.51 17.2345 99.4311 17.66 99.282 18.063C99.1694 18.3552 98.9967 18.6205 98.7753 18.842C98.5538 19.0635 98.2884 19.2361 97.9962 19.3488C97.5933 19.4979 97.1678 19.5767 96.7382 19.582C96.024 19.6143 95.8098 19.6214 94.0008 19.6214C92.1917 19.6214 91.9775 19.6146 91.2633 19.582C90.8337 19.5767 90.4082 19.4979 90.0053 19.3488C89.7131 19.2361 89.4477 19.0635 89.2262 18.842C89.0048 18.6205 88.8322 18.3552 88.7195 18.063C88.5704 17.66 88.4915 17.2345 88.4862 16.8049C88.454 16.0904 88.4469 15.8762 88.4469 14.0675C88.4469 12.2588 88.4537 12.0446 88.4862 11.3301C88.4915 10.9005 88.5704 10.4749 88.7195 10.072C88.8322 9.77979 89.0048 9.51442 89.2262 9.29297C89.4477 9.07151 89.7131 8.89889 90.0053 8.78619C90.4082 8.63711 90.8337 8.55823 91.2633 8.55297C91.9779 8.52071 92.192 8.51361 94.0008 8.51361ZM94.0008 7.29297C92.162 7.29297 91.9304 7.30071 91.2079 7.33361C90.6456 7.3448 90.0893 7.45125 89.5627 7.64845C89.1109 7.81867 88.7017 8.08541 88.3637 8.43007C88.0187 8.76825 87.7517 9.17768 87.5814 9.62974C87.3842 10.1564 87.2777 10.7127 87.2666 11.2749C87.2343 11.9968 87.2266 12.2285 87.2266 14.0672C87.2266 15.9059 87.2343 16.1375 87.2672 16.8601C87.2784 17.4223 87.3848 17.9786 87.582 18.5052C87.7522 18.9572 88.0189 19.3667 88.3637 19.7049C88.7019 20.0496 89.1113 20.3164 89.5633 20.4865C90.09 20.6837 90.6463 20.7902 91.2085 20.8014C91.9311 20.8336 92.1617 20.842 94.0014 20.842C95.8411 20.842 96.0717 20.8343 96.7943 20.8014C97.3565 20.7902 97.9128 20.6837 98.4395 20.4865C98.8893 20.3121 99.2978 20.0458 99.6389 19.7045C99.98 19.3632 100.246 18.9546 100.42 18.5046C100.617 17.9779 100.724 17.4217 100.735 16.8594C100.767 16.1375 100.775 15.9059 100.775 14.0672C100.775 12.2285 100.767 11.9968 100.734 11.2743C100.723 10.712 100.617 10.1557 100.419 9.6291C100.249 9.17709 99.9826 8.76767 99.6379 8.42942C99.2996 8.08469 98.8902 7.81794 98.4382 7.64781C97.9115 7.45061 97.3553 7.34415 96.793 7.33297C96.0711 7.30071 95.8395 7.29297 94.0008 7.29297Z" fill="white"/>
<path id="Vector_4" d="M94.0021 10.5898C93.3141 10.5898 92.6416 10.7939 92.0695 11.1761C91.4974 11.5584 91.0515 12.1017 90.7882 12.7373C90.5249 13.373 90.4561 14.0724 90.5903 14.7472C90.7245 15.422 91.0558 16.0419 91.5423 16.5284C92.0288 17.0149 92.6487 17.3462 93.3235 17.4804C93.9983 17.6146 94.6977 17.5458 95.3334 17.2825C95.969 17.0192 96.5123 16.5733 96.8946 16.0012C97.2768 15.4291 97.4809 14.7566 97.4809 14.0686C97.4809 13.1459 97.1144 12.2611 96.462 11.6087C95.8096 10.9563 94.9248 10.5898 94.0021 10.5898ZM94.0021 16.3266C93.5555 16.3266 93.119 16.1942 92.7476 15.9461C92.3763 15.6979 92.0869 15.3453 91.916 14.9327C91.7451 14.5201 91.7003 14.066 91.7875 13.628C91.8746 13.19 92.0897 12.7877 92.4055 12.4719C92.7213 12.1561 93.1236 11.941 93.5616 11.8539C93.9996 11.7667 94.4537 11.8115 94.8663 11.9824C95.2789 12.1533 95.6315 12.4427 95.8797 12.814C96.1278 13.1854 96.2602 13.622 96.2602 14.0686C96.2602 14.6674 96.0223 15.2418 95.5988 15.6652C95.1754 16.0887 94.601 16.3266 94.0021 16.3266Z" fill="white"/>
<path id="Vector_5" d="M97.6176 11.2645C98.0665 11.2645 98.4305 10.9005 98.4305 10.4516C98.4305 10.0026 98.0665 9.63867 97.6176 9.63867C97.1686 9.63867 96.8047 10.0026 96.8047 10.4516C96.8047 10.9005 97.1686 11.2645 97.6176 11.2645Z" fill="white"/>
</g>
</g>
</g>
<g id="4">
<circle id="BG_4" cx="134" cy="14.0664" r="14" fill="#1E293B"/>
<g id="logo-github 1">
<g id="Group_4">
<path id="Vector_6" fill-rule="evenodd" clip-rule="evenodd" d="M134.609 7.29297C131.018 7.29297 128.129 10.1819 128.129 13.7729C128.129 16.6348 129.992 19.0648 132.557 19.9288C132.881 19.9828 132.989 19.7938 132.989 19.6048C132.989 19.4428 132.989 19.0378 132.989 18.4978C131.18 18.9028 130.802 17.6338 130.802 17.6338C130.505 16.8778 130.073 16.6888 130.073 16.6888C129.479 16.2838 130.127 16.2838 130.127 16.2838C130.775 16.3378 131.126 16.9588 131.126 16.9588C131.693 17.9578 132.638 17.6608 133.016 17.4988C133.07 17.0668 133.232 16.7968 133.421 16.6348C131.99 16.4728 130.478 15.9058 130.478 13.4219C130.478 12.7199 130.721 12.1259 131.153 11.6939C131.099 11.5319 130.856 10.8839 131.207 9.96593C131.207 9.96593 131.747 9.80393 132.989 10.6409C133.502 10.5059 134.069 10.4249 134.609 10.4249C135.149 10.4249 135.716 10.5059 136.229 10.6409C137.471 9.80393 138.011 9.96593 138.011 9.96593C138.362 10.8569 138.146 11.5049 138.065 11.6939C138.47 12.1529 138.74 12.7199 138.74 13.4219C138.74 15.9058 137.228 16.4458 135.77 16.6078C136.013 16.7968 136.202 17.2018 136.202 17.7958C136.202 18.6598 136.202 19.3618 136.202 19.5778C136.202 19.7398 136.31 19.9558 136.661 19.9018C139.226 19.0648 141.089 16.6348 141.089 13.7729C141.089 10.1819 138.2 7.29297 134.609 7.29297Z" fill="white"/>
</g>
</g>
</g>
</g>
</svg>
