<svg width="142" height="25" viewBox="0 0 142 25" fill="none" xmlns="http://www.w3.org/2000/svg">
<path d="M12.2124 0.729492L14.7516 9.23454L23.6251 9.02129L16.321 14.0644L19.2658 22.4377L12.2124 17.0495L5.15898 22.4377L8.10384 14.0644L0.799725 9.02129L9.67317 9.23454L12.2124 0.729492Z" fill="#6B4EFF"/>
<path d="M41.6064 0.729492L44.1457 9.23454L53.0191 9.02129L45.715 14.0644L48.6599 22.4377L41.6064 17.0495L34.553 22.4377L37.4979 14.0644L30.1938 9.02129L39.0672 9.23454L41.6064 0.729492Z" fill="#6B4EFF"/>
<path d="M71.0005 0.729492L73.5397 9.23454L82.4132 9.02129L75.1091 14.0644L78.0539 22.4377L71.0005 17.0495L63.9471 22.4377L66.8919 14.0644L59.5878 9.02129L68.4613 9.23454L71.0005 0.729492Z" fill="#6B4EFF"/>
<path d="M100.394 0.729492L102.933 9.23454L111.807 9.02129L104.503 14.0644L107.447 22.4377L100.394 17.0495L93.3406 22.4377L96.2855 14.0644L88.9814 9.02129L97.8548 9.23454L100.394 0.729492Z" fill="#6B4EFF"/>
<path d="M129.788 0.729492L132.327 9.23452L141.201 9.02127L133.897 14.0644L136.841 22.4376L129.788 17.0494L122.735 22.4376L125.68 14.0644L118.375 9.02127L127.249 9.23452L129.788 0.729492Z" fill="#C4C4C4"/>
<path d="M129.788 0.729492L129.788 6.72948L129.788 9.23452V11.5295L129.788 14.0644L129.788 17.0494L122.735 22.4376L125.68 14.0644L118.375 9.02127L127.249 9.23452L129.788 0.729492Z" fill="#6B4EFF"/>
</svg>
