<svg width="126" height="21" viewBox="0 0 126 21" fill="none" xmlns="http://www.w3.org/2000/svg">
<path d="M10.1831 0.729492L12.2991 7.81703L19.6937 7.63932L13.6069 11.842L16.061 18.8197L10.1831 14.3295L4.30525 18.8197L6.7593 11.842L0.672541 7.63932L8.06708 7.81703L10.1831 0.729492Z" fill="#6B4EFF"/>
<path d="M36.5913 0.729492L38.7073 7.81703L46.1019 7.63932L40.0151 11.842L42.4692 18.8197L36.5913 14.3295L30.7135 18.8197L33.1675 11.842L27.0807 7.63932L34.4753 7.81703L36.5913 0.729492Z" fill="#6B4EFF"/>
<path d="M62.9995 0.729492L65.1155 7.81703L72.5101 7.63932L66.4233 11.842L68.8774 18.8197L62.9995 14.3295L57.1217 18.8197L59.5757 11.842L53.4889 7.63932L60.8835 7.81703L62.9995 0.729492Z" fill="#6B4EFF"/>
<path d="M89.4082 0.729492L91.5242 7.81703L98.9188 7.63932L92.832 11.842L95.2861 18.8197L89.4082 14.3295L83.5304 18.8197L85.9844 11.842L79.8976 7.63932L87.2922 7.81703L89.4082 0.729492Z" fill="#C4C4C4"/>
<path d="M115.816 0.729492L117.932 7.81703L125.327 7.63932L119.24 11.842L121.694 18.8197L115.816 14.3295L109.939 18.8197L112.393 11.842L106.306 7.63932L113.7 7.81703L115.816 0.729492Z" fill="#C4C4C4"/>
</svg>
