<svg width="227" height="41" viewBox="0 0 227 41" fill="none" xmlns="http://www.w3.org/2000/svg">
<g id="5">
<path id="Vector" d="M0.423828 34.2831C6.60089 34.2831 11.6083 29.2756 11.6083 23.0986C11.6083 16.9215 6.60089 11.9141 0.423828 11.9141V19.7432C2.27693 19.7432 3.77917 21.2454 3.77917 23.0986C3.77917 24.9517 2.27693 26.454 0.423828 26.454V34.2831Z" fill="#E11D48"/>
<path id="Vector_2" d="M37.7051 15.6421C35.7938 15.0366 33.7585 14.71 31.6468 14.71C20.5796 14.71 11.6079 23.6818 11.6079 34.7489C11.6079 35.8598 11.6983 36.9495 11.8721 38.0111H24.3229C23.8785 37.0146 23.6313 35.9107 23.6313 34.7489C23.6313 30.3221 27.22 26.7333 31.6468 26.7333C34.0664 26.7333 36.2354 27.8053 37.7051 29.5003V15.6421Z" fill="#FDA4AF"/>
<path id="Vector_3" d="M2.39014 0.729492C3.31741 9.11779 10.4291 15.6422 19.0646 15.6422C27.6999 15.6422 34.8117 9.11779 35.7389 0.729492H23.741C23.0003 2.58633 21.1856 3.89843 19.0646 3.89843C16.9434 3.89843 15.1288 2.58633 14.388 0.729492H2.39014Z" fill="#FB7185"/>
<g id="Tinygone">
<path d="M68.0645 10.0409H72.4637C74.9976 10.0409 76.335 10.1113 77.6371 10.2872V5.57129C76.2998 5.74726 74.9976 5.81764 72.4637 5.81764H58.527C56.521 5.81764 55.0077 5.74726 53.7407 5.57129V10.2872C54.9725 10.1113 56.4858 10.0409 58.5622 10.0409H63.3134V29.2565C63.3134 31.157 63.243 32.3536 63.0318 33.8317H68.346C68.1349 32.3888 68.0645 31.157 68.0645 29.2565V10.0409Z" fill="#FB7185"/>
<path d="M80.3465 5.81764V10.2872H85.5199V5.81764H80.3465ZM80.3465 13.6306C80.5576 15.0735 80.628 16.2701 80.628 18.2058V29.2565C80.628 31.0162 80.5576 32.248 80.3465 33.8317H85.4847C85.3088 32.3536 85.2384 31.157 85.2384 29.2213V18.241C85.2384 16.0942 85.3088 14.9328 85.4847 13.6306H80.3465Z" fill="#FB7185"/>
<path d="M94.9688 33.8317C94.7577 32.3184 94.6873 30.981 94.6873 29.2565V22.1474C96.2358 18.6633 98.3122 16.9036 100.846 16.9036C102.184 16.9036 103.239 17.4315 103.802 18.3465C104.225 19.0152 104.401 19.9654 104.401 21.4436V29.2565C104.401 31.0514 104.33 32.248 104.154 33.8317H109.257C109.046 32.5295 108.976 31.1922 108.976 29.2565V20.8101C108.976 18.4521 108.624 17.0444 107.779 15.883C106.512 14.1585 104.506 13.2787 101.796 13.2787C98.629 13.2787 96.7637 14.2641 94.6169 17.0092C94.6873 16.1293 94.6873 16.0238 94.6873 15.4959V13.6306H89.901C90.1121 15.0735 90.1825 16.2701 90.1825 18.2058V29.2565C90.1825 31.2274 90.1121 32.3184 89.901 33.8317H94.9688Z" fill="#FB7185"/>
<path d="M120.303 32.4239L119.106 35.1338C118.614 36.2248 117.593 36.8935 116.361 36.8935C115.552 36.8935 114.883 36.7176 113.898 36.2952L113.088 40.3073C114.707 40.624 115.728 40.7296 116.784 40.7296C120.057 40.7296 122.133 39.4978 123.259 36.8231L131.283 17.9946C132.339 15.5311 132.973 14.0881 133.184 13.6306H127.94C127.729 14.7568 127.447 15.6366 126.603 17.7834L122.696 27.7432L118.402 17.7482C117.769 16.3053 117.241 14.6512 117.065 13.6306H111.716C112.138 14.4049 112.173 14.5104 113.722 17.9946L120.303 32.4239Z" fill="#FB7185"/>
<path d="M135.258 37.0695C137.651 39.7794 139.974 40.7296 144.091 40.7296C147.716 40.7296 150.637 39.9202 152.397 38.4772C154.438 36.7528 155.353 34.0428 155.353 29.8196V18.0298C155.353 16.1293 155.424 15.1439 155.6 13.6306H150.884V15.2495C150.884 15.6366 150.884 15.707 150.954 16.4109C149.441 14.2641 147.364 13.3139 144.232 13.3139C138.531 13.3139 134.835 17.2555 134.835 23.344C134.835 29.3621 138.425 33.1982 144.021 33.1982C147.083 33.1982 149.159 32.2128 150.919 29.9956C150.848 32.3888 150.602 33.6205 150.004 34.6763C149.018 36.3656 146.942 37.3158 144.232 37.3158C141.698 37.3158 140.15 36.5416 138.777 34.6411L135.258 37.0695ZM139.446 23.4496C139.446 19.2616 141.628 16.6221 145.147 16.6221C146.414 16.6221 147.575 17.0796 148.561 17.889C149.969 19.0856 150.672 20.8453 150.672 23.0977C150.672 24.7166 150.356 26.0187 149.687 27.1097C148.702 28.7638 146.731 29.89 144.795 29.89C143.458 29.89 141.944 29.2565 141.065 28.3063C140.009 27.2505 139.446 25.526 139.446 23.4496Z" fill="#FB7185"/>
<path d="M169.726 34.5004C175.99 34.5004 180.108 30.2068 180.108 23.696C180.108 17.1852 176.06 13.0323 169.69 13.0323C163.285 13.0323 159.203 17.2203 159.203 23.7663C159.203 30.3475 163.285 34.5004 169.726 34.5004ZM169.69 16.6924C173.421 16.6924 175.568 19.2968 175.568 23.8367C175.568 28.1303 173.315 30.7698 169.655 30.7698C165.995 30.7698 163.743 28.0951 163.743 23.7663C163.743 19.3671 165.995 16.6924 169.69 16.6924Z" fill="#FB7185"/>
<path d="M188.692 33.8317C188.481 32.3184 188.411 30.981 188.411 29.2565V22.1474C189.959 18.6633 192.036 16.9036 194.57 16.9036C195.907 16.9036 196.963 17.4315 197.526 18.3465C197.948 19.0152 198.124 19.9654 198.124 21.4436V29.2565C198.124 31.0514 198.054 32.248 197.878 33.8317H202.981C202.77 32.5295 202.699 31.1922 202.699 29.2565V20.8101C202.699 18.4521 202.347 17.0444 201.503 15.883C200.236 14.1585 198.23 13.2787 195.52 13.2787C192.352 13.2787 190.487 14.2641 188.34 17.0092C188.411 16.1293 188.411 16.0238 188.411 15.4959V13.6306H183.624C183.835 15.0735 183.906 16.2701 183.906 18.2058V29.2565C183.906 31.2274 183.835 32.3184 183.624 33.8317H188.692Z" fill="#FB7185"/>
<path d="M226.238 24.8925C226.168 24.0831 226.168 23.9775 226.168 23.9071C226.062 21.514 225.816 20.247 225.147 18.5577C223.74 15.0383 220.502 12.9971 216.384 12.9971C210.366 12.9971 206.46 17.2555 206.46 23.7663C206.46 30.3475 210.401 34.5004 216.631 34.5004C219.587 34.5004 222.05 33.5853 223.88 31.7905C224.76 30.9106 225.218 30.2419 226.027 28.5527L221.874 27.2153C221.523 28.1655 221.276 28.5527 220.854 29.0454C219.833 30.1716 218.355 30.805 216.631 30.805C214.836 30.805 213.252 30.1012 212.231 28.8342C211.422 27.8136 211.105 26.8282 210.929 24.8925H226.238ZM211.035 21.4084C211.563 18.4521 213.569 16.6221 216.314 16.6221C217.968 16.6221 219.165 17.0796 220.115 18.0298C220.995 18.9096 221.417 19.8599 221.663 21.4084H211.035Z" fill="#FB7185"/>
</g>
</g>
</svg>
