<svg width="192" height="49" viewBox="0 0 192 49" fill="none" xmlns="http://www.w3.org/2000/svg">
<g id="Logo">
<path id="Vector" d="M50.4651 17.6348H69.8889V21.2507H62.241V41.6346H58.049V21.2507H50.4331L50.4651 17.6348ZM69.0569 24.2587H72.6409V27.6187H72.7049C72.8329 27.1387 73.0569 26.6907 73.3769 26.2427C73.6969 25.7947 74.0809 25.3787 74.5609 25.0267C75.0089 24.6427 75.5209 24.3547 76.0969 24.1307C76.6409 23.9067 77.2169 23.7787 77.7929 23.7787C78.2409 23.7787 78.5609 23.8107 78.7209 23.8107C78.8809 23.8427 79.0729 23.8747 79.2329 23.8747V27.5547C78.9769 27.4907 78.6889 27.4587 78.4009 27.4267C78.1129 27.3947 77.8569 27.3627 77.5689 27.3627C76.9289 27.3627 76.3209 27.4907 75.7449 27.7467C75.1689 28.0027 74.6889 28.3867 74.2409 28.8667C73.8249 29.3787 73.4729 29.9867 73.2169 30.7227C72.9609 31.4586 72.8329 32.3226 72.8329 33.2826V41.5386H68.993L69.0569 24.2587ZM96.8327 41.6346H93.0567V39.2026H92.9927C92.5128 40.0986 91.8088 40.7706 90.8808 41.3146C89.9528 41.8586 88.9928 42.1146 88.0328 42.1146C85.7608 42.1146 84.0968 41.5706 83.0728 40.4186C82.0488 39.2986 81.5368 37.5706 81.5368 35.2986V24.2587H85.3768V34.9146C85.3768 36.4506 85.6648 37.5386 86.2728 38.1466C86.8488 38.7866 87.6808 39.1066 88.7368 39.1066C89.5368 39.1066 90.2088 38.9786 90.7528 38.7226C91.2968 38.4666 91.7448 38.1466 92.0648 37.7306C92.4168 37.3146 92.6407 36.8026 92.8007 36.2266C92.9607 35.6506 93.0247 35.0106 93.0247 34.3386V24.2587H96.8647V41.6346H96.8327ZM103.361 36.0666C103.489 37.1866 103.905 37.9546 104.641 38.4346C105.377 38.8826 106.273 39.1066 107.297 39.1066C107.649 39.1066 108.065 39.0746 108.513 39.0106C108.961 38.9466 109.409 38.8506 109.793 38.6906C110.209 38.5306 110.529 38.3066 110.785 37.9866C111.041 37.6666 111.169 37.2826 111.137 36.8026C111.105 36.3226 110.945 35.9066 110.593 35.5866C110.241 35.2666 109.825 35.0426 109.313 34.8186C108.801 34.6266 108.193 34.4666 107.521 34.3386C106.849 34.2106 106.177 34.0506 105.473 33.8906C104.769 33.7306 104.065 33.5386 103.393 33.3146C102.721 33.0906 102.145 32.8026 101.601 32.3866C101.089 32.0026 100.641 31.5226 100.353 30.9147C100.033 30.3067 99.8727 29.6027 99.8727 28.7067C99.8727 27.7467 100.097 26.9787 100.577 26.3387C101.025 25.6987 101.633 25.1867 102.337 24.8027C103.041 24.4187 103.841 24.1307 104.705 23.9707C105.569 23.8107 106.401 23.7467 107.169 23.7467C108.065 23.7467 108.929 23.8427 109.729 24.0347C110.529 24.2267 111.297 24.5147 111.937 24.9627C112.609 25.3787 113.153 25.9547 113.569 26.6267C114.017 27.2987 114.273 28.1307 114.401 29.0907H110.401C110.209 28.1627 109.793 27.5547 109.153 27.2347C108.481 26.9147 107.745 26.7547 106.881 26.7547C106.625 26.7547 106.273 26.7867 105.921 26.8187C105.537 26.8827 105.217 26.9467 104.865 27.0747C104.545 27.2027 104.257 27.3947 104.033 27.6187C103.809 27.8427 103.681 28.1627 103.681 28.5467C103.681 29.0267 103.841 29.3787 104.161 29.6667C104.481 29.9547 104.897 30.1787 105.441 30.4027C105.953 30.5947 106.561 30.7547 107.233 30.8827C107.905 31.0107 108.609 31.1706 109.313 31.3306C110.017 31.4906 110.689 31.6826 111.361 31.9066C112.033 32.1306 112.641 32.4186 113.153 32.8346C113.665 33.2186 114.113 33.6986 114.433 34.2746C114.753 34.8506 114.913 35.5866 114.913 36.4186C114.913 37.4426 114.689 38.3066 114.209 39.0426C113.729 39.7466 113.121 40.3546 112.385 40.8026C111.649 41.2506 110.785 41.5706 109.889 41.7946C108.961 41.9866 108.065 42.1146 107.169 42.1146C106.081 42.1146 105.057 41.9866 104.129 41.7306C103.201 41.4746 102.369 41.0906 101.697 40.6106C101.025 40.0986 100.481 39.4906 100.097 38.7226C99.7127 37.9866 99.4887 37.0906 99.4567 36.0346H103.329V36.0666H103.361ZM116.001 24.2587H118.913V19.0108H122.752V24.2267H126.208V27.0747H122.752V36.3546C122.752 36.7706 122.784 37.0906 122.816 37.4106C122.848 37.6986 122.944 37.9546 123.04 38.1466C123.168 38.3386 123.36 38.4986 123.584 38.5946C123.84 38.6906 124.16 38.7546 124.608 38.7546C124.864 38.7546 125.152 38.7546 125.408 38.7226C125.664 38.6906 125.952 38.6586 126.208 38.5946V41.5706C125.792 41.6346 125.376 41.6666 124.96 41.6986C124.544 41.7626 124.16 41.7626 123.712 41.7626C122.688 41.7626 121.889 41.6666 121.281 41.4746C120.673 41.2826 120.193 40.9946 119.841 40.6426C119.489 40.2586 119.265 39.8106 119.137 39.2666C119.009 38.7226 118.945 38.0506 118.913 37.3466V27.1067H116.001V24.1947V24.2587ZM128.896 24.2587H132.512V26.6267H132.576C133.12 25.6027 133.856 24.8987 134.816 24.4507C135.776 24.0027 136.8 23.7787 137.952 23.7787C139.328 23.7787 140.512 24.0027 141.536 24.5147C142.56 24.9947 143.392 25.6347 144.064 26.4987C144.736 27.3307 145.248 28.3227 145.568 29.4427C145.888 30.5627 146.08 31.7786 146.08 33.0266C146.08 34.2106 145.92 35.3306 145.632 36.4186C145.312 37.5066 144.864 38.4986 144.256 39.3306C143.648 40.1626 142.88 40.8346 141.92 41.3466C140.96 41.8586 139.872 42.1146 138.592 42.1146C138.048 42.1146 137.472 42.0506 136.928 41.9546C136.384 41.8586 135.84 41.6986 135.328 41.4746C134.816 41.2506 134.336 40.9626 133.92 40.6106C133.472 40.2586 133.12 39.8426 132.832 39.3946H132.768V48.0665H128.928V24.2587H128.896ZM142.304 32.9626C142.304 32.1946 142.208 31.4266 141.984 30.6907C141.792 29.9547 141.472 29.3147 141.056 28.7387C140.64 28.1627 140.128 27.7147 139.552 27.3627C138.944 27.0107 138.24 26.8507 137.472 26.8507C135.872 26.8507 134.656 27.3947 133.824 28.5147C133.024 29.6347 132.608 31.1387 132.608 32.9946C132.608 33.8906 132.704 34.6906 132.928 35.4266C133.152 36.1626 133.44 36.8026 133.888 37.3466C134.304 37.8906 134.816 38.3066 135.424 38.6266C136.032 38.9466 136.704 39.1066 137.504 39.1066C138.4 39.1066 139.104 38.9146 139.712 38.5626C140.32 38.2106 140.8 37.7306 141.216 37.1866C141.6 36.6106 141.888 35.9706 142.048 35.2346C142.208 34.4666 142.304 33.7306 142.304 32.9626ZM149.056 17.6348H152.896V21.2507H149.056V17.6348ZM149.056 24.2587H152.896V41.6346H149.056V24.2587ZM156.32 17.6348H160.16V41.6346H156.32V17.6348ZM171.872 42.1146C170.496 42.1146 169.248 41.8906 168.16 41.4106C167.072 40.9306 166.176 40.3226 165.408 39.5226C164.672 38.7226 164.096 37.7306 163.712 36.6106C163.328 35.4906 163.104 34.2426 163.104 32.9306C163.104 31.6186 163.296 30.4027 163.712 29.2827C164.096 28.1627 164.672 27.2027 165.408 26.3707C166.144 25.5707 167.072 24.9307 168.16 24.4827C169.248 24.0347 170.496 23.7787 171.872 23.7787C173.248 23.7787 174.496 24.0027 175.584 24.4827C176.672 24.9307 177.568 25.5707 178.336 26.3707C179.072 27.1707 179.648 28.1627 180.032 29.2827C180.416 30.4027 180.64 31.6186 180.64 32.9306C180.64 34.2746 180.448 35.4906 180.032 36.6106C179.616 37.7306 179.072 38.6906 178.336 39.5226C177.6 40.3226 176.672 40.9626 175.584 41.4106C174.496 41.8586 173.28 42.1146 171.872 42.1146ZM171.872 39.0746C172.704 39.0746 173.472 38.8826 174.08 38.5306C174.72 38.1786 175.2 37.6986 175.616 37.1226C176.032 36.5466 176.32 35.8746 176.512 35.1706C176.704 34.4346 176.8 33.6986 176.8 32.9306C176.8 32.1946 176.704 31.4586 176.512 30.7227C176.32 29.9867 176.032 29.3467 175.616 28.7707C175.2 28.1947 174.688 27.7467 174.08 27.3947C173.44 27.0427 172.704 26.8507 171.872 26.8507C171.04 26.8507 170.272 27.0427 169.664 27.3947C169.024 27.7467 168.544 28.2267 168.128 28.7707C167.712 29.3467 167.424 29.9867 167.232 30.7227C167.04 31.4586 166.944 32.1946 166.944 32.9306C166.944 33.6986 167.04 34.4346 167.232 35.1706C167.424 35.9066 167.712 36.5466 168.128 37.1226C168.544 37.6986 169.056 38.1786 169.664 38.5306C170.304 38.9146 171.04 39.0746 171.872 39.0746ZM181.792 24.2587H184.704V19.0108H188.544V24.2267H192V27.0747H188.544V36.3546C188.544 36.7706 188.576 37.0906 188.608 37.4106C188.64 37.6986 188.736 37.9546 188.832 38.1466C188.96 38.3386 189.152 38.4986 189.376 38.5946C189.632 38.6906 189.952 38.7546 190.4 38.7546C190.656 38.7546 190.944 38.7546 191.2 38.7226C191.456 38.6906 191.744 38.6586 192 38.5946V41.5706C191.584 41.6346 191.168 41.6666 190.752 41.6986C190.336 41.7626 189.952 41.7626 189.504 41.7626C188.48 41.7626 187.68 41.6666 187.072 41.4746C186.464 41.2826 185.984 40.9946 185.632 40.6426C185.28 40.2586 185.056 39.8106 184.928 39.2666C184.8 38.7226 184.736 38.0506 184.704 37.3466V27.1067H181.792V24.1947V24.2587Z" fill="black"/>
<path id="Vector_2" d="M45.9841 17.6345H28.4163L23.0083 0.930664L17.5683 17.6345L0.000488281 17.6025L14.2084 27.9384L8.76842 44.6423L22.9763 34.3064L37.1842 44.6423L31.7762 27.9384L45.9841 17.6345Z" fill="#00B67A"/>
<path id="Vector_3" d="M32.9922 31.7145L31.7762 27.9385L23.0083 34.3064L32.9922 31.7145Z" fill="#005128"/>
</g>
</svg>
