<svg width="28" height="29" viewBox="0 0 28 29" fill="none" xmlns="http://www.w3.org/2000/svg">
<g id="Group 10499">
<circle id="BG" cx="14" cy="14.0664" r="14" fill="#1E293B"/>
<g id="logo-twitter 2">
<g id="Group">
<path id="Vector" d="M20.2071 11.0495C19.7881 11.2357 19.3458 11.3521 18.8802 11.422C19.3458 11.1426 19.7183 10.7003 19.8812 10.1649C19.4389 10.421 18.9501 10.6072 18.4146 10.7236C17.9956 10.2813 17.3904 10.002 16.7386 10.002C15.4815 10.002 14.4572 11.0262 14.4572 12.2833C14.4572 12.4695 14.4805 12.6325 14.5271 12.7954C12.6415 12.7023 10.9421 11.7944 9.80141 10.3977C9.61518 10.7469 9.49878 11.1193 9.49878 11.5384C9.49878 12.3299 9.89453 13.0282 10.5231 13.4472C10.1506 13.424 9.80141 13.3309 9.4755 13.1679V13.1912C9.4755 14.3086 10.267 15.2397 11.3145 15.4492C11.1283 15.4958 10.9188 15.5191 10.7093 15.5191C10.5696 15.5191 10.4067 15.4958 10.267 15.4725C10.5696 16.3804 11.4077 17.0555 12.4087 17.0555C11.6172 17.6607 10.6395 18.0332 9.56862 18.0332C9.38239 18.0332 9.19616 18.0332 9.0332 18.0099C10.0575 18.6617 11.2447 19.0342 12.5483 19.0342C16.7618 19.0342 19.0665 15.5424 19.0665 12.5161C19.0665 12.423 19.0665 12.3066 19.0665 12.2135C19.5088 11.9108 19.9045 11.5151 20.2071 11.0495Z" fill="white"/>
</g>
</g>
</g>
</svg>
