<svg width="165" height="40" viewBox="0 0 165 40" fill="none" xmlns="http://www.w3.org/2000/svg">
<g id="1">
<g id="Waverio">
<path d="M57.2541 29.4053L51.3229 9.29442H57.4112L60.1607 21.6673H60.3178L63.578 9.29442H68.37L71.6302 21.7066H71.7873L74.5368 9.29442H80.6251L74.694 29.4053H69.4698L66.0526 18.1715H65.8955L62.4782 29.4053H57.2541Z" fill="#7F57F1"/>
<path d="M84.9188 29.641C83.9564 29.641 83.1054 29.4838 82.3656 29.1696C81.6324 28.8488 81.0563 28.3644 80.6374 27.7163C80.2184 27.0682 80.0089 26.2433 80.0089 25.2417C80.0089 24.4168 80.1496 23.7131 80.4311 23.1305C80.7126 22.5413 81.1054 22.0601 81.6095 21.687C82.1136 21.3138 82.6995 21.029 83.3672 20.8326C84.0415 20.6362 84.7682 20.5086 85.5472 20.4497C86.3917 20.3842 87.0693 20.3056 87.5799 20.214C88.0971 20.1158 88.4702 19.9816 88.6994 19.8114C88.9285 19.6346 89.0431 19.4022 89.0431 19.1142V19.0749C89.0431 18.6821 88.8925 18.381 88.5914 18.1715C88.2902 17.962 87.904 17.8572 87.4326 17.8572C86.9155 17.8572 86.4932 17.9718 86.1659 18.2009C85.8451 18.4235 85.652 18.7672 85.5865 19.232H80.5981C80.6635 18.3155 80.9549 17.471 81.472 16.6985C81.9958 15.9195 82.7584 15.2976 83.76 14.8328C84.7617 14.3614 86.012 14.1257 87.5112 14.1257C88.5914 14.1257 89.5602 14.2534 90.4178 14.5087C91.2754 14.7575 92.0054 15.1077 92.6076 15.5594C93.2099 16.0046 93.6682 16.5283 93.9824 17.1306C94.3032 17.7263 94.4636 18.3744 94.4636 19.0749V29.4053H89.3966V27.2842H89.2787C88.9776 27.8472 88.611 28.3022 88.1789 28.6492C87.7534 28.9961 87.2657 29.2482 86.7158 29.4053C86.1724 29.5624 85.5734 29.641 84.9188 29.641ZM86.6863 26.2237C87.0988 26.2237 87.485 26.1386 87.8451 25.9684C88.2117 25.7982 88.5095 25.5527 88.7387 25.2319C88.9678 24.9111 89.0823 24.5216 89.0823 24.0633V22.8064C88.9383 22.8653 88.7845 22.921 88.6208 22.9733C88.4637 23.0257 88.2935 23.0748 88.1102 23.1206C87.9334 23.1665 87.7436 23.209 87.5406 23.2483C87.3442 23.2876 87.138 23.3236 86.922 23.3563C86.503 23.4218 86.1593 23.5298 85.8909 23.6804C85.6291 23.8244 85.4327 24.0044 85.3017 24.2205C85.1774 24.4299 85.1152 24.6656 85.1152 24.9275C85.1152 25.3465 85.2625 25.6672 85.5571 25.8898C85.8516 26.1124 86.2281 26.2237 86.6863 26.2237Z" fill="#7F57F1"/>
<path d="M111.714 14.3221L106.647 29.4053H100.363L95.2958 14.3221H100.991L103.427 24.299H103.584L106.019 14.3221H111.714Z" fill="#7F57F1"/>
<path d="M120.024 29.6802C118.414 29.6802 117.026 29.3726 115.861 28.7572C114.702 28.1353 113.808 27.2449 113.18 26.0862C112.558 24.9209 112.247 23.5265 112.247 21.903C112.247 20.3449 112.561 18.9832 113.19 17.818C113.818 16.6527 114.705 15.746 115.851 15.0979C116.997 14.4498 118.348 14.1257 119.907 14.1257C121.046 14.1257 122.077 14.3025 123 14.656C123.923 15.0095 124.712 15.5234 125.366 16.1977C126.021 16.8655 126.525 17.6772 126.879 18.633C127.232 19.5888 127.409 20.6657 127.409 21.8637V23.1206H113.936V20.1354H122.42C122.414 19.7034 122.303 19.3237 122.087 18.9963C121.877 18.6625 121.592 18.4039 121.232 18.2206C120.879 18.0307 120.476 17.9358 120.024 17.9358C119.586 17.9358 119.183 18.0307 118.817 18.2206C118.45 18.4039 118.155 18.6592 117.933 18.9865C117.717 19.3138 117.602 19.6968 117.589 20.1354V23.3563C117.589 23.8408 117.691 24.2728 117.894 24.6525C118.096 25.0322 118.388 25.3301 118.767 25.5461C119.147 25.7622 119.605 25.8702 120.142 25.8702C120.515 25.8702 120.856 25.8178 121.163 25.7131C121.478 25.6083 121.746 25.4577 121.969 25.2613C122.191 25.0584 122.355 24.8162 122.46 24.5347H127.409C127.239 25.5821 126.836 26.4921 126.201 27.2646C125.566 28.0305 124.725 28.6262 123.677 29.0518C122.636 29.4707 121.419 29.6802 120.024 29.6802Z" fill="#7F57F1"/>
<path d="M129.621 29.4053V14.3221H134.884V17.1895H135.041C135.316 16.129 135.752 15.3532 136.347 14.8622C136.95 14.3712 137.653 14.1257 138.459 14.1257C138.694 14.1257 138.927 14.1454 139.156 14.1847C139.391 14.2174 139.617 14.2665 139.833 14.332V18.9571C139.565 18.8654 139.234 18.7967 138.841 18.7508C138.449 18.705 138.112 18.6821 137.83 18.6821C137.3 18.6821 136.822 18.8032 136.396 19.0454C135.977 19.2811 135.647 19.615 135.405 20.0471C135.162 20.4726 135.041 20.9734 135.041 21.5495V29.4053H129.621Z" fill="#7F57F1"/>
<path d="M141.611 29.4053V14.3221H147.031V29.4053H141.611ZM144.321 12.751C143.588 12.751 142.959 12.5088 142.436 12.0243C141.912 11.5399 141.65 10.9572 141.65 10.2764C141.65 9.59556 141.912 9.01292 142.436 8.52848C142.959 8.04404 143.588 7.80182 144.321 7.80182C145.061 7.80182 145.689 8.04404 146.206 8.52848C146.73 9.01292 146.992 9.59556 146.992 10.2764C146.992 10.9572 146.73 11.5399 146.206 12.0243C145.689 12.5088 145.061 12.751 144.321 12.751Z" fill="#7F57F1"/>
<path d="M157.06 29.6802C155.423 29.6802 154.022 29.3562 152.857 28.7081C151.691 28.0534 150.798 27.1435 150.176 25.9782C149.554 24.8064 149.243 23.448 149.243 21.903C149.243 20.358 149.554 19.0029 150.176 17.8376C150.798 16.6658 151.691 15.7558 152.857 15.1077C154.022 14.4531 155.423 14.1257 157.06 14.1257C158.696 14.1257 160.097 14.4531 161.262 15.1077C162.428 15.7558 163.321 16.6658 163.943 17.8376C164.565 19.0029 164.876 20.358 164.876 21.903C164.876 23.448 164.565 24.8064 163.943 25.9782C163.321 27.1435 162.428 28.0534 161.262 28.7081C160.097 29.3562 158.696 29.6802 157.06 29.6802ZM157.099 25.6738C157.557 25.6738 157.953 25.5199 158.287 25.2122C158.621 24.9046 158.88 24.4659 159.063 23.8964C159.246 23.3269 159.338 22.6493 159.338 21.8637C159.338 21.0716 159.246 20.394 159.063 19.831C158.88 19.2615 158.621 18.8229 158.287 18.5152C157.953 18.2075 157.557 18.0536 157.099 18.0536C156.614 18.0536 156.199 18.2075 155.852 18.5152C155.505 18.8229 155.24 19.2615 155.056 19.831C154.873 20.394 154.781 21.0716 154.781 21.8637C154.781 22.6493 154.873 23.3269 155.056 23.8964C155.24 24.4659 155.505 24.9046 155.852 25.2122C156.199 25.5199 156.614 25.6738 157.099 25.6738Z" fill="#7F57F1"/>
</g>
<path id="Vector" fill-rule="evenodd" clip-rule="evenodd" d="M9.50537 3.59787C8.07471 4.59823 6.78101 5.78098 5.65796 7.1124C10.2473 6.68633 16.0778 7.38205 22.847 10.7667C30.0756 14.3809 35.8964 14.5031 39.9474 13.7217C39.5798 12.6088 39.117 11.5392 38.5689 10.5224C33.9316 11.0115 27.9866 10.3641 21.0582 6.89998C16.6586 4.70018 12.7804 3.79401 9.50537 3.59787ZM35.86 6.66665C32.1979 2.575 26.876 0 20.9526 0C19.2131 0 17.5253 0.222107 15.9163 0.63948C18.0955 1.23409 20.4105 2.10399 22.847 3.32227C27.9196 5.85853 32.299 6.67516 35.86 6.66665ZM40.8135 17.6281C35.9195 18.5945 29.1614 18.396 21.0582 14.3444C13.4826 10.5566 7.45307 10.6043 3.38654 11.508C3.17664 11.5546 2.97168 11.6036 2.77167 11.6546C2.23926 12.8125 1.81427 14.0301 1.50934 15.2945C1.83502 15.2075 2.17157 15.1248 2.5188 15.0476C7.45221 13.9513 14.4227 13.9989 22.847 18.2111C30.4227 21.9989 36.4522 21.9512 40.5188 21.0475C40.6581 21.0166 40.7954 20.9846 40.9304 20.9516C40.9452 20.6363 40.9526 20.319 40.9526 20C40.9526 19.1975 40.9054 18.406 40.8135 17.6281ZM40.2774 25.1723C35.4309 26.0196 28.8696 25.6944 21.0582 21.7888C13.4826 18.001 7.45307 18.0487 3.38654 18.9524C2.48389 19.1529 1.67188 19.3972 0.955567 19.6551C0.953614 19.7698 0.952637 19.8848 0.952637 20C0.952637 31.0457 9.90693 40 20.9526 40C30.2097 40 37.9979 33.7109 40.2774 25.1723Z" fill="#7F57F1"/>
</g>
</svg>
