<svg width="32" height="32" viewBox="0 0 32 32" fill="none" xmlns="http://www.w3.org/2000/svg">
<circle cx="16" cy="16" r="16" fill="white"/>
<path fill-rule="evenodd" clip-rule="evenodd" d="M16.4799 9.5C12.889 9.5 10 12.389 10 15.9799C10 18.8419 11.863 21.2718 14.4279 22.1358C14.7519 22.1898 14.8599 22.0008 14.8599 21.8118C14.8599 21.6498 14.8599 21.2448 14.8599 20.7048C13.051 21.1098 12.673 19.8408 12.673 19.8408C12.376 19.0848 11.944 18.8959 11.944 18.8959C11.35 18.4909 11.998 18.4909 11.998 18.4909C12.646 18.5449 12.997 19.1658 12.997 19.1658C13.5639 20.1648 14.5089 19.8678 14.8869 19.7058C14.9409 19.2738 15.1029 19.0038 15.2919 18.8419C13.8609 18.6799 12.349 18.1129 12.349 15.6289C12.349 14.9269 12.592 14.3329 13.024 13.9009C12.97 13.7389 12.727 13.0909 13.078 12.173C13.078 12.173 13.6179 12.011 14.8599 12.8479C15.3729 12.7129 15.9399 12.6319 16.4799 12.6319C17.0199 12.6319 17.5869 12.7129 18.0999 12.8479C19.3418 12.011 19.8818 12.173 19.8818 12.173C20.2328 13.0639 20.0168 13.7119 19.9358 13.9009C20.3408 14.3599 20.6108 14.9269 20.6108 15.6289C20.6108 18.1129 19.0989 18.6529 17.6409 18.8148C17.8839 19.0038 18.0729 19.4088 18.0729 20.0028C18.0729 20.8668 18.0729 21.5688 18.0729 21.7848C18.0729 21.9468 18.1809 22.1628 18.5319 22.1088C21.0968 21.2718 22.9598 18.8419 22.9598 15.9799C22.9598 12.389 20.0708 9.5 16.4799 9.5Z" fill="#130075"/>
</svg>
