<svg width="22" height="20" viewBox="0 0 22 20" fill="none" xmlns="http://www.w3.org/2000/svg">
<path d="M2.6044 12.7605C3.03824 14.2486 3.84328 15.5824 5.02186 16.7613C6.90079 18.6403 9.16012 19.5787 11.8022 19.5787C12.3304 19.5787 12.8421 19.5394 13.3391 19.4644C15.3292 19.164 17.0716 18.2642 18.5645 16.7613C19.7506 15.5828 20.5613 14.2486 20.9985 12.7605H2.6044ZM4.07427 8.31036H2.3626C2.29878 8.69219 2.25717 9.0774 2.23798 9.46406H21.3672C21.3477 9.07042 21.305 8.68641 21.2418 8.31036M2.23798 10.5354C2.25732 10.9293 2.29979 11.3133 2.3626 11.6891H21.2421C21.3064 11.3073 21.3484 10.9221 21.3678 10.5354M20.9989 7.23873C20.5622 5.74649 19.7513 4.40644 18.5645 3.2194C17.0755 1.73051 15.3381 0.837199 13.3544 0.536691C12.8407 0.459013 12.3218 0.420209 11.8023 0.420609C9.1602 0.420609 6.9007 1.35387 5.02194 3.21948C3.84295 4.40644 3.0374 5.74649 2.6039 7.23873" fill="#2C2255"/>
<path d="M1.66912 10.0001C1.66912 4.94665 5.46433 0.747919 10.4016 0.00938039C10.2792 0.00494146 10.156 0 10.0323 0C4.49187 8.37535e-05 0 4.47738 0 10.0001C0 15.523 4.4917 20 10.0323 20C10.1565 20 10.2795 19.9953 10.4024 19.9908C5.46433 19.2523 1.66912 15.0535 1.66912 10.0001Z" fill="#F7941E"/>
<path d="M18.3125 9.46381C18.2812 9.07408 18.2149 8.68796 18.1145 8.31011H5.49096C5.39041 8.68794 5.32409 9.07407 5.2928 9.46381H18.3125Z" fill="url(#paint0_linear_330_384)"/>
<path d="M18.3125 10.5354H5.29297C5.32413 10.9251 5.3904 11.3113 5.49096 11.6891H18.1146C18.215 11.3113 18.2812 10.9251 18.3125 10.5354Z" fill="url(#paint1_linear_330_384)"/>
<path d="M11.8027 16.5334C14.4242 16.5334 16.684 14.9889 17.7246 12.7605H5.88084C6.92147 14.9889 9.18114 16.5334 11.8027 16.5334Z" fill="url(#paint2_linear_330_384)"/>
<path d="M21.3543 10.5354C21.3633 10.365 21.3684 10.1934 21.3684 10.0206C21.3684 9.83366 21.3616 9.6484 21.3509 9.46389H2.23798C2.22742 9.64815 2.22056 9.83366 2.22056 10.0206C2.22056 10.1934 2.22558 10.365 2.23463 10.5354H21.3543ZM5.84264 7.23873H2.60373C2.49728 7.58765 2.4286 7.94561 2.3626 8.31036L21.1813 8.31036C21.1163 7.94847 21.0303 7.59066 20.9238 7.23873M2.36243 11.689C2.42659 12.0535 2.49962 12.4112 2.60431 12.7605H20.9864C21.0915 12.4085 21.1761 12.0508 21.2396 11.689H2.36243Z" fill="white"/>
<defs>
<linearGradient id="paint0_linear_330_384" x1="1068.42" y1="21787.9" x2="1068.42" y2="-3190" gradientUnits="userSpaceOnUse">
<stop offset="0.3033" stop-color="#473788"/>
<stop offset="0.872" stop-color="#2C2255"/>
</linearGradient>
<linearGradient id="paint1_linear_330_384" x1="1068.4" y1="17930.7" x2="1068.4" y2="-7047.18" gradientUnits="userSpaceOnUse">
<stop offset="0.3033" stop-color="#473788"/>
<stop offset="0.872" stop-color="#2C2255"/>
</linearGradient>
<linearGradient id="paint2_linear_330_384" x1="1068.4" y1="4303.4" x2="1068.4" y2="-3334.3" gradientUnits="userSpaceOnUse">
<stop offset="0.3033" stop-color="#473788"/>
<stop offset="0.8631" stop-color="#2C2255"/>
</linearGradient>
</defs>
</svg>
