<svg width="21" height="20" viewBox="0 0 21 20" fill="none" xmlns="http://www.w3.org/2000/svg">
<path id="Vector" d="M20.2947 9.10889L11.5625 0.377168C11.0599 -0.125723 10.2443 -0.125723 9.74109 0.377168L7.92781 2.19045L10.228 4.49068C10.7626 4.31006 11.3755 4.43123 11.8016 4.85732C12.2298 5.28615 12.3501 5.90436 12.1651 6.4406L14.3819 8.65748C14.9182 8.47271 15.537 8.59225 15.9654 9.02131C16.5641 9.61975 16.5641 10.5897 15.9654 11.1885C15.3666 11.7874 14.3966 11.7874 13.7975 11.1885C13.3472 10.7377 13.2359 10.0764 13.4639 9.52162L11.3966 7.45428L11.3963 12.8947C11.5462 12.9688 11.6831 13.0666 11.8016 13.1845C12.4003 13.7829 12.4003 14.7529 11.8016 15.3522C11.2028 15.9508 10.2324 15.9508 9.63445 15.3522C9.03578 14.7529 9.03578 13.783 9.63445 13.1846C9.77792 13.041 9.94842 12.9274 10.1361 12.8501V7.35904C9.94815 7.28232 9.77755 7.16858 9.63445 7.02459C9.18086 6.57162 9.0718 5.90607 9.30422 5.34912L7.03672 3.08139L1.04922 9.0685C0.546094 9.57185 0.546094 10.3876 1.04922 10.8905L9.78156 19.6224C10.2843 20.1254 11.0998 20.1254 11.6031 19.6224L20.2946 10.9311C20.7976 10.4279 20.7977 9.61178 20.2947 9.10889Z" fill="#DE4C36"/>
</svg>
