<svg width="32" height="32" viewBox="0 0 32 32" fill="none" xmlns="http://www.w3.org/2000/svg">
<circle cx="16" cy="16" r="16" fill="white"/>
<path d="M15.7742 9.72064C17.5829 9.72064 17.7971 9.72742 18.5116 9.76C18.9412 9.76526 19.3667 9.84414 19.7697 9.99323C20.0619 10.1059 20.3273 10.2785 20.5487 10.5C20.7702 10.7215 20.9428 10.9868 21.0555 11.279C21.2046 11.682 21.2835 12.1075 21.2887 12.5371C21.321 13.2516 21.3281 13.4658 21.3281 15.2745C21.3281 17.0832 21.3213 17.2974 21.2887 18.0119C21.2835 18.4415 21.2046 18.8671 21.0555 19.27C20.9428 19.5622 20.7702 19.8276 20.5487 20.049C20.3273 20.2705 20.0619 20.4431 19.7697 20.5558C19.3667 20.7049 18.9412 20.7838 18.5116 20.789C17.7974 20.8213 17.5832 20.8284 15.7742 20.8284C13.9652 20.8284 13.751 20.8216 13.0368 20.789C12.6072 20.7838 12.1817 20.7049 11.7787 20.5558C11.4865 20.4431 11.2211 20.2705 10.9997 20.049C10.7782 19.8276 10.6056 19.5622 10.4929 19.27C10.3438 18.8671 10.2649 18.4415 10.2597 18.0119C10.2274 17.2974 10.2203 17.0832 10.2203 15.2745C10.2203 13.4658 10.2271 13.2516 10.2597 12.5371C10.2649 12.1075 10.3438 11.682 10.4929 11.279C10.6056 10.9868 10.7782 10.7215 10.9997 10.5C11.2211 10.2785 11.4865 10.1059 11.7787 9.99323C12.1817 9.84414 12.6072 9.76526 13.0368 9.76C13.7513 9.72774 13.9655 9.72064 15.7742 9.72064ZM15.7742 8.5C13.9355 8.5 13.7039 8.50774 12.9813 8.54065C12.419 8.55183 11.8628 8.65828 11.3361 8.85548C10.8844 9.0257 10.4752 9.29244 10.1371 9.6371C9.79213 9.97528 9.52516 10.3847 9.35484 10.8368C9.15764 11.3634 9.05118 11.9197 9.04 12.4819C9.00774 13.2039 9 13.4355 9 15.2742C9 17.1129 9.00774 17.3445 9.04065 18.0671C9.05183 18.6293 9.15828 19.1856 9.35548 19.7123C9.52562 20.1643 9.79236 20.5737 10.1371 20.9119C10.4753 21.2567 10.8848 21.5234 11.3368 21.6935C11.8634 21.8907 12.4197 21.9972 12.9819 22.0084C13.7045 22.0406 13.9352 22.049 15.7748 22.049C17.6145 22.049 17.8452 22.0413 18.5677 22.0084C19.13 21.9972 19.6863 21.8907 20.2129 21.6935C20.6628 21.5192 21.0713 21.2528 21.4123 20.9116C21.7534 20.5703 22.0195 20.1616 22.1936 19.7116C22.3907 19.185 22.4972 18.6287 22.5084 18.0665C22.5406 17.3445 22.5484 17.1129 22.5484 15.2742C22.5484 13.4355 22.5406 13.2039 22.5077 12.4813C22.4966 11.919 22.3901 11.3628 22.1929 10.8361C22.0228 10.3841 21.756 9.9747 21.4113 9.63645C21.073 9.29172 20.6636 9.02497 20.2116 8.85484C19.685 8.65764 19.1287 8.55118 18.5665 8.54C17.8445 8.50774 17.6129 8.5 15.7742 8.5Z" fill="#130075"/>
<path d="M15.7756 11.7969C15.0876 11.7969 14.415 12.0009 13.8429 12.3831C13.2708 12.7654 12.825 13.3087 12.5617 13.9443C12.2984 14.58 12.2295 15.2794 12.3637 15.9542C12.4979 16.6291 12.8293 17.2489 13.3158 17.7354C13.8023 18.2219 14.4221 18.5532 15.0969 18.6875C15.7717 18.8217 16.4712 18.7528 17.1068 18.4895C17.7425 18.2262 18.2858 17.7803 18.668 17.2083C19.0503 16.6362 19.2543 15.9636 19.2543 15.2756C19.2543 14.353 18.8878 13.4682 18.2354 12.8158C17.583 12.1634 16.6982 11.7969 15.7756 11.7969ZM15.7756 17.5336C15.329 17.5336 14.8924 17.4012 14.5211 17.1531C14.1497 16.905 13.8603 16.5523 13.6894 16.1397C13.5185 15.7271 13.4738 15.2731 13.5609 14.8351C13.648 14.397 13.8631 13.9947 14.1789 13.6789C14.4947 13.3631 14.897 13.148 15.3351 13.0609C15.7731 12.9738 16.2271 13.0185 16.6397 13.1894C17.0523 13.3603 17.405 13.6497 17.6531 14.0211C17.9012 14.3924 18.0337 14.829 18.0337 15.2756C18.0337 15.8745 17.7957 16.4488 17.3723 16.8723C16.9488 17.2957 16.3745 17.5336 15.7756 17.5336Z" fill="#130075"/>
<path d="M19.391 12.4715C19.84 12.4715 20.2039 12.1076 20.2039 11.6586C20.2039 11.2097 19.84 10.8457 19.391 10.8457C18.9421 10.8457 18.5781 11.2097 18.5781 11.6586C18.5781 12.1076 18.9421 12.4715 19.391 12.4715Z" fill="#130075"/>
</svg>
