<svg width="15" height="20" viewBox="0 0 15 20" fill="none" xmlns="http://www.w3.org/2000/svg">
<g id="Vector">
<path d="M4.75008 15.4669C4.75008 15.4669 3.9858 15.9114 5.29399 16.0618C6.87881 16.2426 7.6888 16.2166 9.43529 15.8861C9.43529 15.8861 9.89446 16.174 10.5357 16.4234C6.62055 18.1013 1.67492 16.3262 4.75008 15.4669ZM4.27166 13.2773C4.27166 13.2773 3.41446 13.9118 4.72361 14.0472C6.41657 14.2219 7.75354 14.2361 10.067 13.7907C10.067 13.7907 10.387 14.1151 10.8902 14.2925C6.15648 15.6767 0.884016 14.4016 4.27166 13.2773Z" fill="#5382A1"/>
<path d="M8.30483 9.56315C9.26953 10.6738 8.05142 11.6733 8.05142 11.6733C8.05142 11.6733 10.5008 10.4088 9.37594 8.82535C8.32526 7.3486 7.51953 6.61494 11.8814 4.0852C11.8814 4.0852 5.0347 5.79514 8.30483 9.56315Z" fill="#E76F00"/>
<path d="M13.4834 17.0865C13.4834 17.0865 14.0489 17.5526 12.8605 17.9131C10.6006 18.5977 3.45459 18.8044 1.46946 17.9404C0.755852 17.6299 2.09406 17.1991 2.51501 17.1087C2.95402 17.0135 3.2049 17.0312 3.2049 17.0312C2.4113 16.4722 -1.92461 18.1289 1.00247 18.6034C8.98504 19.898 15.554 18.0205 13.4834 17.0865ZM5.11801 11.0085C5.11801 11.0085 1.48309 11.8719 3.83079 12.1854C4.82207 12.3181 6.79814 12.2881 8.63875 12.1339C10.143 12.007 11.6536 11.7372 11.6536 11.7372C11.6536 11.7372 11.1232 11.9644 10.7394 12.2264C7.04821 13.1972 -0.0824888 12.7455 1.97035 11.7525C3.70643 10.9133 5.11801 11.0085 5.11801 11.0085ZM11.6386 14.6533C15.3909 12.7035 13.656 10.8297 12.445 11.0822C12.1482 11.144 12.0159 11.1975 12.0159 11.1975C12.0159 11.1975 12.1261 11.0249 12.3365 10.9502C14.7321 10.1079 16.5745 13.4342 11.5631 14.7516C11.5631 14.7516 11.6213 14.6998 11.6386 14.6533Z" fill="#5382A1"/>
<path d="M9.37609 0C9.37609 0 11.4542 2.07871 7.40513 5.27532C4.15823 7.83945 6.66474 9.30148 7.40378 10.972C5.50857 9.26191 4.11769 7.75665 5.0508 6.35564C6.42033 4.29909 10.2145 3.30199 9.37609 0Z" fill="#E76F00"/>
<path d="M5.48601 19.9371C9.08772 20.1677 14.6186 19.8092 14.7495 18.105C14.7495 18.105 14.4977 18.751 11.7729 19.2642C8.69879 19.8426 4.90723 19.7751 2.65844 19.4044C2.65844 19.4044 3.11885 19.7853 5.48601 19.9371Z" fill="#5382A1"/>
</g>
</svg>
