<svg width="198" height="66" viewBox="0 0 198 66" fill="none" xmlns="http://www.w3.org/2000/svg">
<path d="M59.3768 32.9999C59.3768 27.9801 57.9871 23.0582 55.3615 18.7797C52.736 14.5012 48.9772 11.0331 44.5017 8.75962" stroke="#FBBC05" stroke-width="10" stroke-linecap="round" stroke-linejoin="round"/>
<path d="M59.3768 32.9999C59.3768 38.9227 57.4428 44.6834 53.8688 49.4063C50.2948 54.1292 45.2764 57.5558 39.5765 59.1653C33.8767 60.7747 27.8071 60.4789 22.2908 58.3228C16.7744 56.1667 12.113 52.2682 9.01527 47.2202C5.91753 42.1721 4.5529 36.2506 5.12887 30.3559C5.70484 24.4613 8.1899 18.9159 12.2062 14.563C16.2225 10.21 21.5504 7.28764 27.3798 6.24013C33.2092 5.19262 39.2212 6.07729 44.5017 8.75962" stroke="#4285F4" stroke-width="10" stroke-linecap="round" stroke-linejoin="round"/>
<path d="M99.3077 46.48C97.121 46.48 95.1077 45.9733 93.2677 44.96C91.4277 43.9467 89.9477 42.4533 88.8277 40.48C87.7343 38.48 87.1877 36.0267 87.1877 33.12C87.1877 30.24 87.7477 27.7867 88.8677 25.76C90.0143 23.7067 91.521 22.1467 93.3877 21.08C95.281 19.9867 97.321 19.44 99.5077 19.44C101.188 19.44 102.694 19.7867 104.028 20.48C105.361 21.1467 106.468 21.9333 107.348 22.84L104.228 26.6C103.561 25.9867 102.854 25.4933 102.108 25.12C101.388 24.72 100.561 24.52 99.6277 24.52C98.4543 24.52 97.3743 24.8533 96.3877 25.52C95.4277 26.1867 94.6543 27.1467 94.0677 28.4C93.5077 29.6533 93.2277 31.16 93.2277 32.92C93.2277 35.5867 93.801 37.6667 94.9477 39.16C96.0943 40.6533 97.6277 41.4 99.5477 41.4C100.614 41.4 101.561 41.16 102.388 40.68C103.241 40.2 103.988 39.6267 104.628 38.96L107.748 42.64C105.561 45.2 102.748 46.48 99.3077 46.48ZM111.229 46V26.16H117.109V46H111.229ZM114.149 23.24C113.162 23.24 112.362 22.96 111.749 22.4C111.136 21.84 110.829 21.0933 110.829 20.16C110.829 19.2267 111.136 18.48 111.749 17.92C112.362 17.36 113.162 17.08 114.149 17.08C115.136 17.08 115.936 17.36 116.549 17.92C117.162 18.48 117.469 19.2267 117.469 20.16C117.469 21.0933 117.162 21.84 116.549 22.4C115.936 22.96 115.136 23.24 114.149 23.24ZM122.284 46V26.16H127.084L127.484 29.64H127.644C128.364 28.3067 129.23 27.32 130.244 26.68C131.257 26.0133 132.27 25.68 133.284 25.68C133.844 25.68 134.31 25.72 134.684 25.8C135.057 25.8533 135.377 25.9467 135.644 26.08L134.684 31.16C134.337 31.0533 133.99 30.9733 133.644 30.92C133.324 30.8667 132.95 30.84 132.524 30.84C131.777 30.84 130.99 31.12 130.164 31.68C129.364 32.2133 128.697 33.1467 128.164 34.48V46H122.284ZM146.47 46.48C144.63 46.48 142.964 46.08 141.47 45.28C140.004 44.4533 138.83 43.2667 137.95 41.72C137.097 40.1467 136.67 38.2667 136.67 36.08C136.67 33.8667 137.15 31.9867 138.11 30.44C139.07 28.8933 140.337 27.72 141.91 26.92C143.484 26.0933 145.177 25.68 146.99 25.68C148.217 25.68 149.297 25.88 150.23 26.28C151.19 26.68 152.044 27.1867 152.79 27.8L150.03 31.6C149.097 30.8267 148.204 30.44 147.35 30.44C145.937 30.44 144.804 30.9467 143.95 31.96C143.124 32.9733 142.71 34.3467 142.71 36.08C142.71 37.7867 143.124 39.16 143.95 40.2C144.804 41.2133 145.87 41.72 147.15 41.72C147.79 41.72 148.417 41.5867 149.03 41.32C149.644 41.0267 150.204 40.68 150.71 40.28L153.03 44.12C152.044 44.9733 150.977 45.5867 149.83 45.96C148.684 46.3067 147.564 46.48 146.47 46.48ZM161.902 46.48C159.876 46.48 158.462 45.88 157.662 44.68C156.889 43.4533 156.502 41.84 156.502 39.84V17.96H162.382V40.08C162.382 40.6933 162.489 41.12 162.702 41.36C162.942 41.6 163.182 41.72 163.422 41.72C163.556 41.72 163.662 41.72 163.742 41.72C163.849 41.6933 163.982 41.6667 164.142 41.64L164.862 46C164.542 46.1333 164.129 46.24 163.622 46.32C163.142 46.4267 162.569 46.48 161.902 46.48ZM176.828 46.48C174.934 46.48 173.228 46.0667 171.708 45.24C170.188 44.4133 168.988 43.2267 168.108 41.68C167.228 40.1333 166.788 38.2667 166.788 36.08C166.788 33.92 167.228 32.0667 168.108 30.52C169.014 28.9733 170.188 27.7867 171.628 26.96C173.068 26.1067 174.574 25.68 176.148 25.68C178.041 25.68 179.601 26.1067 180.828 26.96C182.081 27.7867 183.014 28.92 183.628 30.36C184.268 31.7733 184.588 33.3867 184.588 35.2C184.588 35.7067 184.561 36.2133 184.508 36.72C184.454 37.2 184.401 37.56 184.348 37.8H172.468C172.734 39.24 173.334 40.3067 174.268 41C175.201 41.6667 176.321 42 177.628 42C179.041 42 180.468 41.56 181.908 40.68L183.868 44.24C182.854 44.9333 181.721 45.48 180.468 45.88C179.214 46.28 178.001 46.48 176.828 46.48ZM172.428 33.92H179.588C179.588 32.8267 179.321 31.9333 178.788 31.24C178.281 30.52 177.441 30.16 176.268 30.16C175.361 30.16 174.548 30.48 173.828 31.12C173.108 31.7333 172.641 32.6667 172.428 33.92Z" fill="black"/>
</svg>
