<svg width="23" height="20" viewBox="0 0 23 20" fill="none" xmlns="http://www.w3.org/2000/svg">
<g id="Vector">
<path d="M22.6721 10.0023C22.6721 8.51453 20.809 7.1046 17.9525 6.23026C18.6117 3.31884 18.3187 1.00252 17.0278 0.260929C16.7302 0.0869763 16.3823 0.00457764 16.0024 0.00457764V1.02541C16.213 1.02541 16.3823 1.06661 16.5242 1.14443C17.1468 1.50149 17.4169 2.86107 17.2063 4.60975C17.156 5.04005 17.0736 5.49325 16.9729 5.9556C16.0756 5.73587 15.096 5.56649 14.066 5.45663C13.448 4.60975 12.8071 3.8407 12.1617 3.16777C13.654 1.78073 15.0548 1.02083 16.007 1.02083V0C14.7481 0 13.1001 0.897231 11.4338 2.45365C9.76754 0.906386 8.11957 0.0183109 6.8607 0.0183109V1.03914C7.80828 1.03914 9.21364 1.79446 10.706 3.17235C10.0651 3.84527 9.42421 4.60975 8.81538 5.45663C7.78082 5.56649 6.80119 5.73587 5.90396 5.96017C5.79867 5.5024 5.72085 5.05837 5.66592 4.63264C5.45076 2.88395 5.71627 1.52438 6.33426 1.16274C6.47159 1.08034 6.65012 1.04372 6.8607 1.04372V0.0228885C6.47617 0.0228885 6.12826 0.105287 5.82614 0.27924C4.5398 1.02083 4.2514 3.33257 4.91517 6.23484C2.06784 7.11376 0.213867 8.51911 0.213867 10.0023C0.213867 11.49 2.07699 12.9 4.93348 13.7743C4.27429 16.6857 4.56727 19.0021 5.85818 19.7436C6.15573 19.9176 6.50364 20 6.88816 20C8.14703 20 9.79501 19.1028 11.4613 17.5463C13.1276 19.0936 14.7756 19.9817 16.0344 19.9817C16.4189 19.9817 16.7669 19.8993 17.069 19.7253C18.3553 18.9837 18.6437 16.672 17.9799 13.7697C20.8181 12.8954 22.6721 11.4855 22.6721 10.0023ZM16.7119 6.94896C16.5425 7.53948 16.332 8.14832 16.0939 8.75715C15.9062 8.39093 15.7094 8.02472 15.4943 7.6585C15.2837 7.29229 15.0594 6.93523 14.8351 6.58732C15.4851 6.68345 16.1122 6.80247 16.7119 6.94896ZM14.6153 11.8242C14.2583 12.4422 13.8921 13.0282 13.5121 13.5729C12.83 13.6324 12.1388 13.6645 11.443 13.6645C10.7517 13.6645 10.0605 13.6324 9.38302 13.5775C9.00307 13.0327 8.63227 12.4514 8.27521 11.8379C7.9273 11.2383 7.61144 10.6294 7.32305 10.016C7.60686 9.40261 7.9273 8.7892 8.27063 8.18952C8.62769 7.57153 8.99391 6.98558 9.37386 6.44083C10.0559 6.38132 10.7472 6.34928 11.443 6.34928C12.1342 6.34928 12.8254 6.38132 13.503 6.43626C13.8829 6.981 14.2537 7.56237 14.6108 8.17578C14.9587 8.77546 15.2745 9.3843 15.5629 9.99771C15.2745 10.6111 14.9587 11.2245 14.6153 11.8242ZM16.0939 11.2291C16.3411 11.8425 16.5517 12.4559 16.7257 13.051C16.126 13.1975 15.4943 13.3211 14.8396 13.4173C15.0639 13.0648 15.2883 12.7031 15.4988 12.3323C15.7094 11.9661 15.9062 11.5953 16.0939 11.2291ZM11.4521 16.1135C11.0264 15.6741 10.6007 15.1843 10.1795 14.6487C10.5915 14.667 11.0127 14.6807 11.4384 14.6807C11.8687 14.6807 12.2944 14.6715 12.711 14.6487C12.299 15.1843 11.8733 15.6741 11.4521 16.1135ZM8.04632 13.4173C7.39629 13.3211 6.76914 13.2021 6.16946 13.0556C6.33884 12.4651 6.54941 11.8563 6.78745 11.2474C6.97514 11.6136 7.17198 11.9799 7.38713 12.3461C7.60229 12.7123 7.82202 13.0694 8.04632 13.4173ZM11.4293 3.89105C11.855 4.33051 12.2807 4.82032 12.7019 5.35592C12.2899 5.33761 11.8687 5.32387 11.443 5.32387C11.0127 5.32387 10.587 5.33303 10.1704 5.35592C10.5824 4.82032 11.0081 4.33051 11.4293 3.89105ZM8.04175 6.58732C7.81744 6.9398 7.59313 7.30144 7.38256 7.67224C7.17198 8.03845 6.97514 8.40467 6.78745 8.77089C6.54026 8.15747 6.32968 7.54406 6.15573 6.94896C6.75541 6.80705 7.38714 6.68345 8.04175 6.58732ZM3.89892 12.3186C2.27841 11.6274 1.23012 10.721 1.23012 10.0023C1.23012 9.28359 2.27841 8.37262 3.89892 7.68597C4.2926 7.51659 4.72291 7.36553 5.16695 7.22362C5.42788 8.12085 5.7712 9.0547 6.19693 10.0114C5.77578 10.9636 5.43703 11.8929 5.18068 12.7855C4.72749 12.6436 4.29718 12.488 3.89892 12.3186ZM6.36173 18.8602C5.73916 18.5031 5.46908 17.1435 5.67965 15.3948C5.73001 14.9645 5.8124 14.5113 5.91311 14.049C6.81034 14.2687 7.78997 14.4381 8.81996 14.5479C9.43795 15.3948 10.0788 16.1639 10.7243 16.8368C9.23195 18.2238 7.83117 18.9837 6.87901 18.9837C6.67301 18.9792 6.49906 18.938 6.36173 18.8602ZM17.2201 15.3719C17.4352 17.1206 17.1697 18.4802 16.5517 18.8418C16.4144 18.9242 16.2358 18.9609 16.0253 18.9609C15.0777 18.9609 13.6723 18.2055 12.18 16.8276C12.8209 16.1547 13.4618 15.3902 14.0706 14.5434C15.1052 14.4335 16.0848 14.2641 16.982 14.0398C17.0873 14.5022 17.1697 14.9462 17.2201 15.3719ZM18.9825 12.3186C18.5888 12.488 18.1585 12.639 17.7144 12.781C17.4535 11.8837 17.1102 10.9499 16.6845 9.99313C17.1056 9.04097 17.4444 8.1117 17.7007 7.21904C18.1539 7.36095 18.5842 7.51659 18.987 7.68597C20.6076 8.3772 21.6558 9.28359 21.6558 10.0023C21.6513 10.721 20.603 11.632 18.9825 12.3186Z" fill="#61DAFB"/>
<path d="M11.4384 12.0943C12.5938 12.0943 13.5304 11.1577 13.5304 10.0023C13.5304 8.8469 12.5938 7.91028 11.4384 7.91028C10.283 7.91028 9.34639 8.8469 9.34639 10.0023C9.34639 11.1577 10.283 12.0943 11.4384 12.0943Z" fill="#61DAFB"/>
</g>
</svg>
