<svg width="30" height="20" viewBox="0 0 30 20" fill="none" xmlns="http://www.w3.org/2000/svg">
<g id="Vector">
<path d="M12.561 13.2129C12.0994 15.7233 11.4909 17.5497 10.7354 18.6844C10.1466 19.5615 9.50176 20 8.79954 20C8.61218 20 8.38161 19.9435 8.10742 19.8312V19.2255C8.24108 19.2457 8.39816 19.2558 8.57866 19.2558C8.90615 19.2558 9.17023 19.1653 9.37133 18.984C9.612 18.7631 9.73233 18.5152 9.73233 18.2402C9.73233 18.0525 9.63824 17.6668 9.45128 17.0837L8.20757 13.2112H9.32085L10.2133 16.1077C10.4139 16.7651 10.4975 17.2243 10.464 17.4859C10.9526 16.1784 11.2934 14.7538 11.4873 13.2137H12.5606M7.64628 18.2208H6.51321C6.47323 16.3028 6.36299 14.4998 6.18209 12.8099H6.1728L4.44734 18.2208H3.58401L1.86906 12.8099H1.85896C1.73176 14.4324 1.65181 16.2353 1.61829 18.2208H0.584961C0.651589 15.8069 0.819167 13.5448 1.08608 11.4329H2.49051L4.12551 16.4199H4.13561L5.7807 11.4329H7.12456C7.41853 13.9066 7.59257 16.1695 7.64547 18.2208" fill="#00758F"/>
<path d="M27.6471 18.22H24.4276V11.4321H25.511V17.3842H27.6471V18.2192M19.5508 16.8612C19.2762 16.4187 19.1393 15.7088 19.1393 14.7296C19.1393 13.0203 19.6578 12.165 20.694 12.165C21.2359 12.165 21.6336 12.3697 21.8876 12.7784C22.1614 13.2209 22.2987 13.9252 22.2987 14.8907C22.2987 16.6137 21.7802 17.4758 20.7441 17.4758C20.2026 17.4758 19.8044 17.2715 19.5508 16.862M23.5828 18.3836L22.3383 17.7682C22.4489 17.6769 22.5543 17.5784 22.6492 17.4653C23.1782 16.8423 23.4423 15.9204 23.4423 14.6997C23.4423 12.4537 22.5628 11.3303 20.8042 11.3303C19.9417 11.3303 19.2694 11.615 18.788 12.1856C18.2591 12.8091 17.9954 13.7281 17.9954 14.9411C17.9954 16.1344 18.2296 17.0098 18.6972 17.5659C19.1236 18.0686 19.7685 18.3202 20.6322 18.3202C20.9544 18.3202 21.25 18.2806 21.5186 18.2011L23.139 19.1468L23.5808 18.3836M17.5237 16.3383C17.5237 16.9141 17.3129 17.3866 16.8922 17.7565C16.4714 18.1243 15.9057 18.3093 15.1978 18.3093C14.5356 18.3093 13.8935 18.0965 13.2717 17.6753L13.5628 17.0922C14.0979 17.3603 14.582 17.494 15.0165 17.494C15.4243 17.494 15.7434 17.4031 15.9743 17.2234C16.2045 17.0421 16.343 16.7898 16.343 16.4695C16.343 16.0665 16.0624 15.7221 15.5483 15.433C15.0719 15.1672 14.5973 14.8982 14.1245 14.6262C13.6105 14.2498 13.3524 13.8464 13.3524 13.1818C13.3524 12.6318 13.5446 12.1872 13.9287 11.8492C14.3135 11.51 14.8102 11.3404 15.4183 11.3404C16.047 11.3404 16.6184 11.5088 17.1332 11.8444L16.8716 12.4271C16.4314 12.2397 15.9969 12.1456 15.5685 12.1456C15.2212 12.1456 14.9531 12.2296 14.7666 12.3976C14.5788 12.5644 14.4629 12.7792 14.4629 13.0408C14.4629 13.443 14.7496 13.7919 15.2782 14.0867C15.7587 14.348 16.7315 14.904 16.7315 14.904C17.2604 15.2795 17.5241 15.6797 17.5241 16.3391M28.4184 18.22H28.598V17.5295H28.8327V17.3882H28.1745V17.5295H28.4184V18.22ZM29.7844 18.22H29.9536V17.3882H29.6992L29.4921 17.9551L29.2663 17.3882H29.0212V18.22H29.1815V17.5869H29.1904L29.4266 18.22H29.5486L29.7844 17.5869V18.22Z" fill="#F29111"/>
<path d="M18.6423 0.000807742C18.356 -0.0032303 18.1064 0.104585 17.9776 0.421571C17.7567 0.954996 18.3047 1.47954 18.4933 1.75049C18.6322 1.93907 18.8123 2.15268 18.91 2.36548C18.9673 2.5048 18.9839 2.65299 19.0412 2.80038C19.1721 3.16138 19.2944 3.56316 19.4664 3.89994C19.5561 4.07236 19.6542 4.25286 19.7689 4.40792C19.8347 4.49878 19.949 4.53916 19.9736 4.68736C19.8593 4.8509 19.8504 5.09722 19.7854 5.30275C19.4907 6.22948 19.6053 7.3779 20.0225 8.05871C20.1533 8.26344 20.4642 8.71489 20.8818 8.54247C21.25 8.39508 21.1685 7.92748 21.2743 7.51762C21.2989 7.41828 21.2823 7.35327 21.3316 7.28745V7.30441C21.4459 7.53377 21.561 7.75465 21.6672 7.98522C21.9211 8.3866 22.3625 8.80494 22.7308 9.08357C22.9266 9.23176 23.0821 9.48576 23.3276 9.57621V9.55117H23.3114C23.2622 9.47768 23.1887 9.44457 23.1233 9.38763C22.9759 9.23984 22.8127 9.05934 22.6981 8.89499C22.3548 8.43627 22.0516 7.92748 21.7822 7.40253C21.651 7.14773 21.5367 6.86911 21.4301 6.61511C21.3813 6.51699 21.3813 6.36879 21.2993 6.31993C21.1761 6.50003 20.9964 6.6563 20.9068 6.87678C20.7513 7.23011 20.7352 7.6646 20.6774 8.11565C20.6451 8.12413 20.6613 8.11565 20.6451 8.1318C20.3835 8.06639 20.2934 7.79584 20.1949 7.56648C19.9494 6.98379 19.9082 6.04817 20.1214 5.37624C20.1779 5.20422 20.4242 4.66313 20.3257 4.49878C20.2765 4.3421 20.1129 4.25246 20.0229 4.1293C19.9089 3.96378 19.8105 3.78804 19.7289 3.60435C19.5326 3.14523 19.4341 2.63644 19.2217 2.17731C19.1236 1.96329 18.9512 1.74241 18.8127 1.54576C18.6568 1.32407 18.4856 1.1682 18.3624 0.906136C18.322 0.815684 18.2647 0.667892 18.3301 0.569767C18.3459 0.503947 18.379 0.479315 18.4448 0.462759C18.5502 0.372711 18.8535 0.486987 18.9597 0.536251C19.2625 0.659008 19.5161 0.774496 19.7693 0.946113C19.8836 1.02849 20.0063 1.18436 20.1537 1.22554H20.3257C20.5874 1.28288 20.8822 1.2417 21.1277 1.31559C21.561 1.45491 21.9535 1.66004 22.3056 1.88132C23.3893 2.57425 24.2698 3.54224 24.8572 4.68655C24.9557 4.87512 24.9969 5.04755 25.0866 5.2438C25.2586 5.64679 25.4714 6.05665 25.643 6.44996C25.8146 6.83559 25.9786 7.2293 26.2245 7.54911C26.3464 7.72113 26.8375 7.81159 27.0583 7.90163C27.2219 7.97513 27.4755 8.04095 27.6229 8.13099C27.9015 8.30301 28.1785 8.50007 28.4406 8.68905C28.5714 8.78758 28.98 8.99231 29.0047 9.15666C28.3505 9.1405 27.8433 9.20592 27.4177 9.38682C27.2954 9.43568 27.0991 9.43568 27.0826 9.59155C27.1484 9.65697 27.1561 9.76357 27.2138 9.85402C27.3119 10.0184 27.4831 10.2393 27.639 10.3547C27.811 10.486 27.9826 10.6168 28.1627 10.7315C28.4817 10.9294 28.8415 11.0436 29.1521 11.2403C29.3326 11.355 29.5123 11.5028 29.6924 11.6259C29.782 11.6913 29.8389 11.7983 29.954 11.8387V11.8137C29.8963 11.7402 29.8801 11.6336 29.8232 11.5512C29.7416 11.4696 29.6596 11.3957 29.5777 11.3138C29.338 10.9961 29.0512 10.717 28.7273 10.486C28.4652 10.3047 27.8922 10.0583 27.7864 9.7559L27.7698 9.73934C27.9495 9.72279 28.1627 9.65697 28.3348 9.6073C28.6122 9.5334 28.8662 9.54996 29.1525 9.47647C29.2833 9.44336 29.4141 9.40217 29.5458 9.36219V9.28749C29.3976 9.1405 29.2918 8.94304 29.1367 8.80373C28.72 8.44313 28.2613 8.09061 27.7868 7.79463C27.5324 7.63068 27.2053 7.52448 26.9356 7.38476C26.8379 7.3355 26.6743 7.31127 26.6166 7.2289C26.4696 7.0484 26.3872 6.81096 26.2814 6.59735C26.0396 6.13033 25.8158 5.65416 25.6107 5.1699C25.4633 4.85009 25.3733 4.53068 25.1936 4.23509C24.3504 2.84036 23.4346 1.996 22.0278 1.1674C21.7249 0.994973 21.3651 0.921077 20.9811 0.831028C20.776 0.822548 20.572 0.8068 20.3673 0.798724C20.2361 0.740576 20.1048 0.584708 19.9906 0.510812C19.699 0.326274 19.12 0.00726847 18.6431 0L18.6423 0.000807742ZM20.6605 2.02831C20.5216 2.02831 20.4238 2.04527 20.3253 2.06949V2.08565H20.3411C20.4069 2.21688 20.5216 2.30774 20.6027 2.42242C20.6685 2.55366 20.7259 2.68449 20.7913 2.81572L20.8075 2.79957C20.9225 2.7176 20.9799 2.58636 20.9799 2.38931C20.9302 2.33156 20.9225 2.27463 20.8814 2.21688C20.8325 2.13531 20.7259 2.09413 20.6605 2.02831Z" fill="#00758F"/>
</g>
</svg>
