<svg width="32" height="32" viewBox="0 0 32 32" fill="none" xmlns="http://www.w3.org/2000/svg">
<circle cx="16" cy="16" r="16" fill="white"/>
<path d="M22.1739 13.5476C21.7549 13.7338 21.3126 13.8502 20.847 13.92C21.3126 13.6407 21.6851 13.1984 21.848 12.663C21.4057 12.919 20.9169 13.1053 20.3814 13.2216C19.9624 12.7793 19.3572 12.5 18.7054 12.5C17.4483 12.5 16.424 13.5243 16.424 14.7813C16.424 14.9676 16.4473 15.1305 16.4938 15.2935C14.6082 15.2004 12.9089 14.2925 11.7682 12.8957C11.582 13.2449 11.4656 13.6174 11.4656 14.0364C11.4656 14.8279 11.8613 15.5263 12.4899 15.9453C12.1174 15.922 11.7682 15.8289 11.4423 15.6659V15.6892C11.4423 16.8066 12.2338 17.7378 13.2813 17.9473C13.0951 17.9938 12.8856 18.0171 12.6761 18.0171C12.5364 18.0171 12.3735 17.9938 12.2338 17.9706C12.5364 18.8785 13.3745 19.5535 14.3755 19.5535C13.584 20.1588 12.6063 20.5313 11.5354 20.5313C11.3492 20.5313 11.163 20.5313 11 20.508C12.0243 21.1598 13.2115 21.5323 14.5151 21.5323C18.7286 21.5323 21.0333 18.0404 21.0333 15.0141C21.0333 14.921 21.0333 14.8046 21.0333 14.7115C21.4756 14.4089 21.8713 14.0131 22.1739 13.5476Z" fill="#130075"/>
</svg>
