<svg width="21" height="20" viewBox="0 0 21 20" fill="none" xmlns="http://www.w3.org/2000/svg">
<g id="Vector">
<path d="M0.560505 6.9743C0.560505 6.9743 0.0681123 6.61937 0.658984 6.14544L2.03563 4.91446C2.03563 4.91446 2.42955 4.50003 2.84603 4.86112L15.5498 14.4792V19.0913C15.5498 19.0913 15.5436 19.8155 14.6142 19.7355L0.560505 6.9743Z" fill="#2489CA"/>
<path d="M3.83492 9.94712L0.560509 12.924C0.560509 12.924 0.224041 13.1743 0.560509 13.6216L2.08077 15.0044C2.08077 15.0044 2.44186 15.3922 2.97529 14.9511L6.44665 12.3188L3.83492 9.94712Z" fill="#1070B3"/>
<path d="M9.58359 9.97174L15.5887 5.38633L15.5498 0.798875C15.5498 0.798875 15.2933 -0.202324 14.4378 0.318792L6.44664 7.59184L9.58359 9.97174Z" fill="#0877B9"/>
<path d="M14.6142 19.7416C14.963 20.0986 15.3856 19.9817 15.3856 19.9817L20.0654 17.6756C20.6645 17.2674 20.5804 16.7606 20.5804 16.7606V2.99002C20.5804 2.38479 19.9608 2.17552 19.9608 2.17552L15.9047 0.220313C15.0184 -0.327474 14.4378 0.318792 14.4378 0.318792C14.4378 0.318792 15.1846 -0.218737 15.5498 0.798875L15.5498 19.0072C15.5498 19.1323 15.5231 19.2554 15.4697 19.3662C15.3631 19.5816 15.1312 19.7827 14.5752 19.6986L14.6142 19.7416Z" fill="#3C99D4"/>
</g>
</svg>
