<svg width="200" height="41" viewBox="0 0 200 41" fill="none" xmlns="http://www.w3.org/2000/svg">
<path d="M52.5012 21C52.5012 24.4855 51.3732 27.8756 49.2886 30.6549C47.204 33.4343 44.277 35.4508 40.9524 36.3979C37.6279 37.3451 34.0878 37.171 30.8703 35.9021C27.6528 34.6333 24.9339 32.3391 23.1271 29.3684C21.3203 26.3977 20.5244 22.913 20.8603 19.444C21.1963 15.9751 22.6457 12.7117 24.9883 10.1501C27.3309 7.58846 30.4384 5.86868 33.8385 5.25223C37.2386 4.63579 40.7452 5.1564 43.8251 6.73492" stroke="#D7EDFF" stroke-width="6" stroke-linecap="round" stroke-linejoin="round"/>
<path d="M83.008 31.384C81.2587 31.384 79.6693 30.968 78.24 30.136C76.8107 29.304 75.6693 28.088 74.816 26.488C73.984 24.8667 73.568 22.904 73.568 20.6C73.568 18.3173 73.9947 16.3653 74.848 14.744C75.7227 13.1013 76.8853 11.8533 78.336 11C79.7867 10.1253 81.3867 9.688 83.136 9.688C84.4587 9.688 85.632 9.95467 86.656 10.488C87.68 11.0213 88.5227 11.64 89.184 12.344L87.2 14.744C86.6667 14.1893 86.0693 13.752 85.408 13.432C84.768 13.0907 84.0427 12.92 83.232 12.92C82.1013 12.92 81.088 13.2293 80.192 13.848C79.3173 14.4453 78.624 15.3093 78.112 16.44C77.6213 17.5707 77.376 18.9253 77.376 20.504C77.376 22.8933 77.8987 24.7707 78.944 26.136C79.9893 27.48 81.3867 28.152 83.136 28.152C84.0747 28.152 84.9067 27.96 85.632 27.576C86.3573 27.1707 87.0187 26.648 87.616 26.008L89.6 28.344C88.7467 29.3253 87.7653 30.0827 86.656 30.616C85.568 31.128 84.352 31.384 83.008 31.384ZM92.7735 31V15.288H96.4535V31H92.7735ZM94.6295 12.536C93.9682 12.536 93.4348 12.344 93.0295 11.96C92.6242 11.576 92.4215 11.064 92.4215 10.424C92.4215 9.80533 92.6242 9.304 93.0295 8.92C93.4348 8.536 93.9682 8.344 94.6295 8.344C95.2908 8.344 95.8242 8.536 96.2295 8.92C96.6348 9.304 96.8375 9.80533 96.8375 10.424C96.8375 11.064 96.6348 11.576 96.2295 11.96C95.8242 12.344 95.2908 12.536 94.6295 12.536ZM101.149 31V15.288H104.189L104.445 18.072H104.573C105.127 17.048 105.799 16.2693 106.589 15.736C107.378 15.1813 108.189 14.904 109.021 14.904C109.767 14.904 110.365 15.0107 110.813 15.224L110.173 18.424C109.895 18.3387 109.639 18.2747 109.405 18.232C109.17 18.1893 108.882 18.168 108.541 18.168C107.922 18.168 107.271 18.4133 106.589 18.904C105.906 19.3733 105.319 20.2053 104.829 21.4V31H101.149ZM119.334 31.384C117.904 31.384 116.614 31.064 115.462 30.424C114.331 29.7627 113.424 28.824 112.742 27.608C112.08 26.3707 111.75 24.888 111.75 23.16C111.75 21.4107 112.112 19.928 112.838 18.712C113.563 17.4747 114.523 16.536 115.718 15.896C116.934 15.2347 118.235 14.904 119.622 14.904C120.624 14.904 121.499 15.0747 122.246 15.416C122.992 15.7573 123.654 16.1733 124.23 16.664L122.438 19.064C122.032 18.7013 121.616 18.424 121.19 18.232C120.763 18.0187 120.304 17.912 119.814 17.912C118.555 17.912 117.52 18.392 116.71 19.352C115.92 20.312 115.526 21.5813 115.526 23.16C115.526 24.7173 115.91 25.976 116.678 26.936C117.467 27.896 118.48 28.376 119.718 28.376C120.336 28.376 120.912 28.248 121.446 27.992C122 27.7147 122.502 27.3947 122.95 27.032L124.454 29.464C123.728 30.104 122.918 30.584 122.022 30.904C121.126 31.224 120.23 31.384 119.334 31.384ZM131.139 31.384C129.837 31.384 128.909 30.9893 128.355 30.2C127.821 29.4107 127.555 28.3333 127.555 26.968V8.408H131.235V27.16C131.235 27.608 131.32 27.928 131.491 28.12C131.661 28.2907 131.843 28.376 132.035 28.376C132.12 28.376 132.195 28.376 132.259 28.376C132.344 28.3547 132.461 28.3333 132.611 28.312L133.091 31.064C132.877 31.1493 132.6 31.224 132.259 31.288C131.939 31.352 131.565 31.384 131.139 31.384ZM142.962 31.384C141.512 31.384 140.2 31.064 139.026 30.424C137.853 29.7627 136.925 28.824 136.242 27.608C135.56 26.3707 135.218 24.888 135.218 23.16C135.218 21.4533 135.56 19.9813 136.242 18.744C136.946 17.5067 137.853 16.5573 138.962 15.896C140.072 15.2347 141.234 14.904 142.45 14.904C143.88 14.904 145.074 15.224 146.034 15.864C146.994 16.4827 147.72 17.3573 148.21 18.488C148.701 19.5973 148.946 20.888 148.946 22.36C148.946 23.128 148.893 23.7253 148.786 24.152H138.802C138.973 25.5387 139.474 26.616 140.306 27.384C141.138 28.152 142.184 28.536 143.442 28.536C144.125 28.536 144.754 28.44 145.33 28.248C145.928 28.0347 146.514 27.7467 147.09 27.384L148.338 29.688C147.592 30.1787 146.76 30.584 145.842 30.904C144.925 31.224 143.965 31.384 142.962 31.384ZM138.77 21.656H145.746C145.746 20.44 145.48 19.4907 144.946 18.808C144.413 18.104 143.613 17.752 142.546 17.752C141.629 17.752 140.808 18.0933 140.082 18.776C139.378 19.4373 138.941 20.3973 138.77 21.656Z" fill="#D7EDFF"/>
</svg>
