<svg width="33" height="32" viewBox="0 0 33 32" fill="none" xmlns="http://www.w3.org/2000/svg">
<rect x="0.427734" width="32" height="32" fill="#333333"/>
<path fill-rule="evenodd" clip-rule="evenodd" d="M16.9076 10C13.3167 10 10.4277 12.889 10.4277 16.4799C10.4277 19.3419 12.2907 21.7718 14.8557 22.6358C15.1797 22.6898 15.2877 22.5008 15.2877 22.3118C15.2877 22.1498 15.2877 21.7448 15.2877 21.2048C13.4787 21.6098 13.1007 20.3408 13.1007 20.3408C12.8037 19.5848 12.3717 19.3959 12.3717 19.3959C11.7777 18.9909 12.4257 18.9909 12.4257 18.9909C13.0737 19.0449 13.4247 19.6658 13.4247 19.6658C13.9917 20.6648 14.9367 20.3678 15.3147 20.2058C15.3687 19.7738 15.5307 19.5038 15.7196 19.3419C14.2887 19.1799 12.7767 18.6129 12.7767 16.1289C12.7767 15.4269 13.0197 14.8329 13.4517 14.4009C13.3977 14.2389 13.1547 13.5909 13.5057 12.673C13.5057 12.673 14.0457 12.511 15.2877 13.3479C15.8006 13.2129 16.3676 13.1319 16.9076 13.1319C17.4476 13.1319 18.0146 13.2129 18.5276 13.3479C19.7696 12.511 20.3096 12.673 20.3096 12.673C20.6606 13.5639 20.4446 14.2119 20.3636 14.4009C20.7686 14.8599 21.0386 15.4269 21.0386 16.1289C21.0386 18.6129 19.5266 19.1529 18.0686 19.3148C18.3116 19.5038 18.5006 19.9088 18.5006 20.5028C18.5006 21.3668 18.5006 22.0688 18.5006 22.2848C18.5006 22.4468 18.6086 22.6628 18.9596 22.6088C21.5246 21.7718 23.3875 19.3419 23.3875 16.4799C23.3875 12.889 20.4986 10 16.9076 10Z" fill="white"/>
</svg>
