<svg width="33" height="32" viewBox="0 0 33 32" fill="none" xmlns="http://www.w3.org/2000/svg">
<rect x="0.570312" width="32" height="32" fill="#333333"/>
<path d="M16.3445 10.2206C18.1532 10.2206 18.3674 10.2274 19.0819 10.26C19.5115 10.2653 19.9371 10.3441 20.34 10.4932C20.6322 10.6059 20.8976 10.7785 21.119 11C21.3405 11.2215 21.5131 11.4868 21.6258 11.779C21.7749 12.182 21.8538 12.6075 21.859 13.0371C21.8913 13.7516 21.8984 13.9658 21.8984 15.7745C21.8984 17.5832 21.8916 17.7974 21.859 18.5119C21.8538 18.9415 21.7749 19.3671 21.6258 19.77C21.5131 20.0622 21.3405 20.3276 21.119 20.549C20.8976 20.7705 20.6322 20.9431 20.34 21.0558C19.9371 21.2049 19.5115 21.2838 19.0819 21.289C18.3677 21.3213 18.1535 21.3284 16.3445 21.3284C14.5355 21.3284 14.3213 21.3216 13.6071 21.289C13.1775 21.2838 12.752 21.2049 12.349 21.0558C12.0568 20.9431 11.7914 20.7705 11.57 20.549C11.3485 20.3276 11.1759 20.0622 11.0632 19.77C10.9141 19.3671 10.8352 18.9415 10.83 18.5119C10.7977 17.7974 10.7906 17.5832 10.7906 15.7745C10.7906 13.9658 10.7974 13.7516 10.83 13.0371C10.8352 12.6075 10.9141 12.182 11.0632 11.779C11.1759 11.4868 11.3485 11.2215 11.57 11C11.7914 10.7785 12.0568 10.6059 12.349 10.4932C12.752 10.3441 13.1775 10.2653 13.6071 10.26C14.3216 10.2277 14.5358 10.2206 16.3445 10.2206ZM16.3445 9C14.5058 9 14.2742 9.00774 13.5516 9.04065C12.9894 9.05183 12.4331 9.15828 11.9064 9.35548C11.4547 9.5257 11.0455 9.79244 10.7074 10.1371C10.3624 10.4753 10.0955 10.8847 9.92515 11.3368C9.72795 11.8634 9.6215 12.4197 9.61031 12.9819C9.57805 13.7039 9.57031 13.9355 9.57031 15.7742C9.57031 17.6129 9.57805 17.8445 9.61096 18.5671C9.62214 19.1293 9.7286 19.6856 9.9258 20.2123C10.0959 20.6643 10.3627 21.0737 10.7074 21.4119C11.0457 21.7567 11.4551 22.0234 11.9071 22.1935C12.4337 22.3907 12.99 22.4972 13.5522 22.5084C14.2748 22.5406 14.5055 22.549 16.3452 22.549C18.1848 22.549 18.4155 22.5413 19.1381 22.5084C19.7003 22.4972 20.2566 22.3907 20.7832 22.1935C21.2331 22.0192 21.6416 21.7528 21.9827 21.4116C22.3237 21.0703 22.5898 20.6616 22.7639 20.2116C22.9611 19.685 23.0675 19.1287 23.0787 18.5665C23.111 17.8445 23.1187 17.6129 23.1187 15.7742C23.1187 13.9355 23.111 13.7039 23.0781 12.9813C23.0669 12.419 22.9604 11.8628 22.7632 11.3361C22.5931 10.8841 22.3263 10.4747 21.9816 10.1365C21.6434 9.79172 21.2339 9.52497 20.7819 9.35484C20.2553 9.15764 19.699 9.05118 19.1368 9.04C18.4148 9.00774 18.1832 9 16.3445 9Z" fill="white"/>
<path d="M16.3459 12.2969C15.6579 12.2969 14.9853 12.5009 14.4132 12.8831C13.8412 13.2654 13.3953 13.8087 13.132 14.4443C12.8687 15.08 12.7998 15.7794 12.934 16.4542C13.0683 17.1291 13.3996 17.7489 13.8861 18.2354C14.3726 18.7219 14.9924 19.0532 15.6672 19.1875C16.342 19.3217 17.0415 19.2528 17.6771 18.9895C18.3128 18.7262 18.8561 18.2803 19.2383 17.7083C19.6206 17.1362 19.8246 16.4636 19.8246 15.7756C19.8246 14.853 19.4581 13.9682 18.8057 13.3158C18.1533 12.6634 17.2685 12.2969 16.3459 12.2969ZM16.3459 18.0336C15.8993 18.0336 15.4627 17.9012 15.0914 17.6531C14.72 17.405 14.4306 17.0523 14.2597 16.6397C14.0888 16.2271 14.0441 15.7731 14.1312 15.3351C14.2183 14.897 14.4334 14.4947 14.7492 14.1789C15.065 13.8631 15.4674 13.648 15.9054 13.5609C16.3434 13.4738 16.7974 13.5185 17.21 13.6894C17.6226 13.8603 17.9753 14.1497 18.2234 14.5211C18.4715 14.8924 18.604 15.329 18.604 15.7756C18.604 16.3745 18.3661 16.9488 17.9426 17.3723C17.5191 17.7957 16.9448 18.0336 16.3459 18.0336Z" fill="white"/>
<path d="M19.9613 12.9715C20.4103 12.9715 20.7742 12.6076 20.7742 12.1586C20.7742 11.7097 20.4103 11.3457 19.9613 11.3457C19.5124 11.3457 19.1484 11.7097 19.1484 12.1586C19.1484 12.6076 19.5124 12.9715 19.9613 12.9715Z" fill="white"/>
</svg>
