<svg width="199" height="66" viewBox="0 0 199 66" fill="none" xmlns="http://www.w3.org/2000/svg">
<path d="M60.203 32.9999C60.203 27.9801 58.8132 23.0582 56.1877 18.7797C53.5622 14.5012 49.8034 11.0331 45.3279 8.75962" stroke="#FBBC05" stroke-width="10" stroke-linecap="round" stroke-linejoin="round"/>
<path d="M60.203 32.9999C60.203 38.9227 58.269 44.6834 54.695 49.4063C51.121 54.1292 46.1026 57.5558 40.4027 59.1653C34.7028 60.7747 28.6333 60.4789 23.117 58.3228C17.6006 56.1667 12.9392 52.2682 9.84145 47.2202C6.7437 42.1721 5.37907 36.2506 5.95504 30.3559C6.53101 24.4613 9.01607 18.9159 13.0324 14.563C17.0487 10.21 22.3766 7.28764 28.206 6.24013C34.0353 5.19262 40.0473 6.07729 45.3279 8.75962" stroke="#4285F4" stroke-width="10" stroke-linecap="round" stroke-linejoin="round"/>
<path d="M100.134 46.48C97.9472 46.48 95.9338 45.9733 94.0938 44.96C92.2538 43.9467 90.7738 42.4533 89.6538 40.48C88.5605 38.48 88.0138 36.0267 88.0138 33.12C88.0138 30.24 88.5738 27.7867 89.6938 25.76C90.8405 23.7067 92.3472 22.1467 94.2138 21.08C96.1072 19.9867 98.1472 19.44 100.334 19.44C102.014 19.44 103.52 19.7867 104.854 20.48C106.187 21.1467 107.294 21.9333 108.174 22.84L105.054 26.6C104.387 25.9867 103.68 25.4933 102.934 25.12C102.214 24.72 101.387 24.52 100.454 24.52C99.2805 24.52 98.2005 24.8533 97.2138 25.52C96.2538 26.1867 95.4805 27.1467 94.8938 28.4C94.3338 29.6533 94.0538 31.16 94.0538 32.92C94.0538 35.5867 94.6272 37.6667 95.7738 39.16C96.9205 40.6533 98.4538 41.4 100.374 41.4C101.44 41.4 102.387 41.16 103.214 40.68C104.067 40.2 104.814 39.6267 105.454 38.96L108.574 42.64C106.387 45.2 103.574 46.48 100.134 46.48ZM112.055 46V26.16H117.935V46H112.055ZM114.975 23.24C113.988 23.24 113.188 22.96 112.575 22.4C111.962 21.84 111.655 21.0933 111.655 20.16C111.655 19.2267 111.962 18.48 112.575 17.92C113.188 17.36 113.988 17.08 114.975 17.08C115.962 17.08 116.762 17.36 117.375 17.92C117.988 18.48 118.295 19.2267 118.295 20.16C118.295 21.0933 117.988 21.84 117.375 22.4C116.762 22.96 115.962 23.24 114.975 23.24ZM123.11 46V26.16H127.91L128.31 29.64H128.47C129.19 28.3067 130.056 27.32 131.07 26.68C132.083 26.0133 133.096 25.68 134.11 25.68C134.67 25.68 135.136 25.72 135.51 25.8C135.883 25.8533 136.203 25.9467 136.47 26.08L135.51 31.16C135.163 31.0533 134.816 30.9733 134.47 30.92C134.15 30.8667 133.776 30.84 133.35 30.84C132.603 30.84 131.816 31.12 130.99 31.68C130.19 32.2133 129.523 33.1467 128.99 34.48V46H123.11ZM147.297 46.48C145.457 46.48 143.79 46.08 142.297 45.28C140.83 44.4533 139.657 43.2667 138.777 41.72C137.923 40.1467 137.497 38.2667 137.497 36.08C137.497 33.8667 137.977 31.9867 138.937 30.44C139.897 28.8933 141.163 27.72 142.737 26.92C144.31 26.0933 146.003 25.68 147.817 25.68C149.043 25.68 150.123 25.88 151.057 26.28C152.017 26.68 152.87 27.1867 153.617 27.8L150.857 31.6C149.923 30.8267 149.03 30.44 148.177 30.44C146.763 30.44 145.63 30.9467 144.777 31.96C143.95 32.9733 143.537 34.3467 143.537 36.08C143.537 37.7867 143.95 39.16 144.777 40.2C145.63 41.2133 146.697 41.72 147.977 41.72C148.617 41.72 149.243 41.5867 149.857 41.32C150.47 41.0267 151.03 40.68 151.537 40.28L153.857 44.12C152.87 44.9733 151.803 45.5867 150.657 45.96C149.51 46.3067 148.39 46.48 147.297 46.48ZM162.729 46.48C160.702 46.48 159.289 45.88 158.489 44.68C157.715 43.4533 157.329 41.84 157.329 39.84V17.96H163.209V40.08C163.209 40.6933 163.315 41.12 163.529 41.36C163.769 41.6 164.009 41.72 164.249 41.72C164.382 41.72 164.489 41.72 164.569 41.72C164.675 41.6933 164.809 41.6667 164.969 41.64L165.689 46C165.369 46.1333 164.955 46.24 164.449 46.32C163.969 46.4267 163.395 46.48 162.729 46.48ZM177.654 46.48C175.76 46.48 174.054 46.0667 172.534 45.24C171.014 44.4133 169.814 43.2267 168.934 41.68C168.054 40.1333 167.614 38.2667 167.614 36.08C167.614 33.92 168.054 32.0667 168.934 30.52C169.84 28.9733 171.014 27.7867 172.454 26.96C173.894 26.1067 175.4 25.68 176.974 25.68C178.867 25.68 180.427 26.1067 181.654 26.96C182.907 27.7867 183.84 28.92 184.454 30.36C185.094 31.7733 185.414 33.3867 185.414 35.2C185.414 35.7067 185.387 36.2133 185.334 36.72C185.28 37.2 185.227 37.56 185.174 37.8H173.294C173.56 39.24 174.16 40.3067 175.094 41C176.027 41.6667 177.147 42 178.454 42C179.867 42 181.294 41.56 182.734 40.68L184.694 44.24C183.68 44.9333 182.547 45.48 181.294 45.88C180.04 46.28 178.827 46.48 177.654 46.48ZM173.254 33.92H180.414C180.414 32.8267 180.147 31.9333 179.614 31.24C179.107 30.52 178.267 30.16 177.094 30.16C176.187 30.16 175.374 30.48 174.654 31.12C173.934 31.7333 173.467 32.6667 173.254 33.92Z" fill="black"/>
</svg>
