<svg width="33" height="32" viewBox="0 0 33 32" fill="none" xmlns="http://www.w3.org/2000/svg">
<rect x="0.712891" width="32" height="32" fill="#333333"/>
<path d="M22.8868 13.0476C22.4678 13.2338 22.0255 13.3502 21.5599 13.42C22.0255 13.1407 22.398 12.6984 22.5609 12.163C22.1186 12.419 21.6298 12.6053 21.0943 12.7216C20.6753 12.2793 20.0701 12 19.4182 12C18.1612 12 17.1369 13.0243 17.1369 14.2813C17.1369 14.4676 17.1602 14.6305 17.2067 14.7935C15.3211 14.7004 13.6218 13.7925 12.4811 12.3957C12.2949 12.7449 12.1785 13.1174 12.1785 13.5364C12.1785 14.3279 12.5742 15.0263 13.2027 15.4453C12.8303 15.422 12.4811 15.3289 12.1552 15.1659V15.1892C12.1552 16.3066 12.9467 17.2378 13.9942 17.4473C13.808 17.4938 13.5985 17.5171 13.389 17.5171C13.2493 17.5171 13.0864 17.4938 12.9467 17.4706C13.2493 18.3785 14.0873 19.0535 15.0883 19.0535C14.2969 19.6588 13.3191 20.0313 12.2483 20.0313C12.0621 20.0313 11.8758 20.0313 11.7129 20.008C12.7372 20.6598 13.9244 21.0323 15.228 21.0323C19.4415 21.0323 21.7461 17.5404 21.7461 14.5141C21.7461 14.421 21.7461 14.3046 21.7461 14.2115C22.1884 13.9089 22.5842 13.5131 22.8868 13.0476Z" fill="white"/>
</svg>
