<svg width="192" height="57" viewBox="0 0 192 57" fill="none" xmlns="http://www.w3.org/2000/svg">
<path d="M53.2986 28.5C53.2986 23.9765 52.0462 19.5413 49.6803 15.6859C47.3144 11.8304 43.9273 8.70523 39.8943 6.65659" stroke="#FBBC05" stroke-width="7.31343" stroke-linecap="round" stroke-linejoin="round"/>
<path d="M53.2986 28.5C53.2986 33.8371 51.5558 39.0282 48.3352 43.2841C45.1146 47.54 40.5924 50.6278 35.4562 52.0781C30.3199 53.5284 24.8505 53.2618 19.8796 51.3189C14.9088 49.376 10.7083 45.863 7.91683 41.3141C5.12538 36.7652 3.89569 31.4292 4.41471 26.1174C4.93373 20.8056 7.17307 15.8086 10.7923 11.8861C14.4114 7.96358 19.2125 5.33016 24.4655 4.38623C29.7184 3.4423 35.1359 4.23949 39.8943 6.65659" stroke="#4285F4" stroke-width="7.31343" stroke-linecap="round" stroke-linejoin="round"/>
<path d="M104.867 24.1144H98.6519C98.5383 23.3104 98.3066 22.5962 97.9566 21.9719C97.6066 21.3381 97.1573 20.7989 96.6086 20.3543C96.06 19.9097 95.4262 19.5692 94.7073 19.3327C93.9978 19.0962 93.2269 18.978 92.3945 18.978C90.8904 18.978 89.5803 19.3516 88.4641 20.0989C87.3479 20.8367 86.4824 21.9151 85.8675 23.334C85.2527 24.7434 84.9452 26.4556 84.9452 28.4704C84.9452 30.542 85.2527 32.2825 85.8675 33.692C86.4918 35.1014 87.3621 36.1656 88.4783 36.8845C89.5945 37.6034 90.8857 37.9629 92.3519 37.9629C93.1749 37.9629 93.9364 37.8541 94.6364 37.6365C95.3458 37.419 95.9749 37.1021 96.5235 36.6859C97.0721 36.2602 97.5262 35.7447 97.8856 35.1393C98.2546 34.5339 98.51 33.8433 98.6519 33.0677L104.867 33.0961C104.706 34.4298 104.304 35.7163 103.661 36.9555C103.027 38.1852 102.171 39.2872 101.092 40.2615C100.023 41.2264 98.7464 41.9926 97.2613 42.5601C95.7857 43.1182 94.1161 43.3973 92.2526 43.3973C89.6607 43.3973 87.3432 42.8108 85.3 41.6379C83.2662 40.4649 81.6581 38.7669 80.4757 36.544C79.3027 34.321 78.7163 31.6299 78.7163 28.4704C78.7163 25.3015 79.3122 22.6056 80.5041 20.3827C81.696 18.1597 83.3135 16.4665 85.3567 15.303C87.3999 14.13 89.6986 13.5436 92.2526 13.5436C93.9364 13.5436 95.4972 13.78 96.935 14.253C98.3823 14.726 99.664 15.4165 100.78 16.3246C101.896 17.2233 102.805 18.3253 103.505 19.6307C104.214 20.9361 104.668 22.4306 104.867 24.1144ZM109.159 43V21.2056H115.203V43H109.159ZM112.195 18.3962C111.297 18.3962 110.526 18.0982 109.882 17.5023C109.249 16.8969 108.932 16.1733 108.932 15.3314C108.932 14.499 109.249 13.7848 109.882 13.1888C110.526 12.5834 111.297 12.2807 112.195 12.2807C113.094 12.2807 113.86 12.5834 114.494 13.1888C115.137 13.7848 115.459 14.499 115.459 15.3314C115.459 16.1733 115.137 16.8969 114.494 17.5023C113.86 18.0982 113.094 18.3962 112.195 18.3962ZM120.045 43V21.2056H125.905V25.0083H126.132C126.53 23.6556 127.197 22.634 128.133 21.9435C129.07 21.2435 130.148 20.8935 131.368 20.8935C131.671 20.8935 131.997 20.9124 132.347 20.9502C132.697 20.9881 133.005 21.0401 133.27 21.1063V26.4698C132.986 26.3846 132.593 26.309 132.092 26.2428C131.591 26.1765 131.132 26.1434 130.716 26.1434C129.826 26.1434 129.032 26.3373 128.332 26.7252C127.641 27.1036 127.093 27.6333 126.686 28.3144C126.289 28.9954 126.09 29.7806 126.09 30.6697V43H120.045ZM145.227 43.4257C142.995 43.4257 141.075 42.9527 139.467 42.0068C137.868 41.0514 136.638 39.7271 135.777 38.0338C134.926 36.3406 134.5 34.392 134.5 32.188C134.5 29.9555 134.931 27.9975 135.792 26.3137C136.662 24.6205 137.896 23.3009 139.495 22.355C141.094 21.3996 142.995 20.9219 145.199 20.9219C147.1 20.9219 148.765 21.2671 150.194 21.9577C151.622 22.6482 152.752 23.6178 153.585 24.8664C154.417 26.115 154.876 27.5812 154.961 29.265H149.257C149.096 28.1772 148.671 27.3022 147.98 26.64C147.299 25.9684 146.405 25.6326 145.298 25.6326C144.362 25.6326 143.544 25.888 142.844 26.3988C142.153 26.9002 141.614 27.6333 141.226 28.5981C140.838 29.563 140.644 30.7312 140.644 32.1028C140.644 33.4933 140.833 34.6758 141.212 35.6501C141.6 36.6244 142.144 37.367 142.844 37.8778C143.544 38.3886 144.362 38.644 145.298 38.644C145.989 38.644 146.608 38.5021 147.157 38.2183C147.715 37.9345 148.174 37.523 148.533 36.9838C148.902 36.4352 149.144 35.7778 149.257 35.0116H154.961C154.866 36.6764 154.412 38.1426 153.599 39.4102C152.795 40.6683 151.683 41.652 150.264 42.3615C148.846 43.0709 147.167 43.4257 145.227 43.4257ZM164.876 13.9409V43H158.831V13.9409H164.876ZM179.65 43.4257C177.408 43.4257 175.478 42.9716 173.861 42.0635C172.253 41.146 171.014 39.85 170.143 38.1757C169.273 36.492 168.838 34.5008 168.838 32.2021C168.838 29.9603 169.273 27.9927 170.143 26.2995C171.014 24.6063 172.239 23.2867 173.818 22.3408C175.407 21.3948 177.271 20.9219 179.409 20.9219C180.847 20.9219 182.185 21.1536 183.424 21.6171C184.673 22.0712 185.761 22.757 186.688 23.6745C187.624 24.5921 188.353 25.7461 188.873 27.1367C189.393 28.5177 189.653 30.1353 189.653 31.9893V33.6494H171.25V29.9035H183.963C183.963 29.0333 183.774 28.2623 183.396 27.5907C183.017 26.9191 182.492 26.3941 181.821 26.0157C181.159 25.6279 180.388 25.434 179.508 25.434C178.591 25.434 177.777 25.6468 177.068 26.0725C176.368 26.4887 175.819 27.0515 175.422 27.761C175.024 28.461 174.821 29.2414 174.811 30.1022V33.6636C174.811 34.742 175.01 35.6737 175.407 36.4589C175.814 37.244 176.386 37.8494 177.124 38.2751C177.862 38.7007 178.737 38.9136 179.749 38.9136C180.421 38.9136 181.036 38.819 181.594 38.6298C182.152 38.4406 182.63 38.1568 183.027 37.7784C183.424 37.4001 183.727 36.9366 183.935 36.3879L189.526 36.7568C189.242 38.1001 188.66 39.273 187.78 40.2757C186.91 41.2689 185.784 42.0446 184.403 42.6027C183.032 43.1513 181.447 43.4257 179.65 43.4257Z" fill="black"/>
</svg>
