<svg width="80" height="81" viewBox="0 0 80 81" fill="none" xmlns="http://www.w3.org/2000/svg">
<path d="M76 40.5C76 33.8532 74.1598 27.3362 70.6834 21.6711C67.207 16.0059 62.23 11.4138 56.3039 8.40356" stroke="#FBBC05" stroke-width="7.31343" stroke-linecap="round" stroke-linejoin="round"/>
<path d="M76 40.5C76 48.3423 73.4392 55.97 68.7069 62.2236C63.9746 68.4771 57.3297 73.0143 49.7826 75.1454C42.2354 77.2764 34.1988 76.8847 26.8946 74.0298C19.5905 71.1749 13.4183 66.013 9.3166 59.3289C5.21489 52.6448 3.40799 44.8042 4.17063 36.9991C4.93327 29.194 8.22373 21.8514 13.5417 16.0877C18.8597 10.324 25.9143 6.45452 33.633 5.06752C41.3516 3.68052 49.312 4.8519 56.3039 8.40356" stroke="#4285F4" stroke-width="7.31343" stroke-linecap="round" stroke-linejoin="round"/>
<path d="M57.7895 35.8156L36.6647 57.2328C36.2741 57.6322 35.8097 57.9497 35.298 58.1671C34.7864 58.3845 34.2375 58.4976 33.6827 58.5C33.128 58.5023 32.5782 58.3939 32.0647 58.1808C31.5513 57.9677 31.0843 57.6542 30.6904 57.2582L30.6654 57.2328L22.2173 48.6687C21.4328 47.8599 20.9953 46.7697 21 45.6354C21.0048 44.5012 21.4513 43.4147 22.2425 42.6127C23.0337 41.8106 24.1054 41.3579 25.2243 41.3531C26.3432 41.3483 27.4187 41.7918 28.2165 42.5871L33.665 48.1542L51.7834 29.734C52.5813 28.9388 53.6567 28.4952 54.7756 28.5C55.8945 28.5048 56.9663 28.9575 57.7575 29.7596C58.5487 30.5616 58.9952 31.6481 59 32.7823C59.0047 33.9166 58.5672 35.0068 57.7827 35.8156H57.7895Z" fill="#4285F4"/>
</svg>
