<svg width="12" height="13" viewBox="0 0 12 13" fill="none" xmlns="http://www.w3.org/2000/svg">
<rect width="12" height="13" fill="#DCDCDC"/>
<g id="Day 2 - Checkout - 2">
<rect width="1920" height="1080" transform="translate(-1272 -563)" fill="white"/>
<g id="2">
<g id="2.2 - Billing Details">
<g id="2.2.1">
<g id="2.2.1.1 - Form">
<g id="2.2.1.1.1 - Card Details">
<g id="Expiry + CVV">
<g id="CVV">
<rect x="-71.5" y="-10.5" width="95" height="56" rx="7.5" stroke="#94A3B8"/>
<g id="Frame 22">
<g id="Frame 20">
<g id="Frame 10567">
<path id="Shape" fill-rule="evenodd" clip-rule="evenodd" d="M12 6.5C12 3.18629 9.31371 0.5 6 0.5C2.68629 0.5 0 3.18629 0 6.5C0 9.81371 2.68629 12.5 6 12.5C9.31371 12.5 12 9.81371 12 6.5ZM5.4 9.5C5.4 9.83137 5.66863 10.1 6 10.1C6.33137 10.1 6.6 9.83137 6.6 9.5V6.5C6.6 6.16863 6.33137 5.9 6 5.9C5.66863 5.9 5.4 6.16863 5.4 6.5V9.5ZM5.4 4.1C5.4 4.43137 5.66863 4.7 6 4.7C6.33137 4.7 6.6 4.43137 6.6 4.1C6.6 3.76863 6.33137 3.5 6 3.5C5.66863 3.5 5.4 3.76863 5.4 4.1Z" fill="#94A3B8"/>
</g>
</g>
</g>
</g>
</g>
</g>
</g>
</g>
</g>
</g>
</g>
</svg>
