<svg width="20" height="20" viewBox="0 0 20 20" fill="none" xmlns="http://www.w3.org/2000/svg">
<path d="M16.5198 11.1195C16.3841 9.61614 16.3354 8.08208 16.0819 6.5813C15.8258 5.0037 14.8577 4.1816 13.5566 4.12781C12.1788 4.07147 11.0724 4.8193 10.7933 6.43276C10.4501 8.4355 10.4168 10.4894 10.2478 12.5229C10.1223 14.0467 10.1377 15.5962 9.8329 17.0867C9.41289 19.1484 8.11698 20.119 6.39083 19.9884C5.53439 19.897 4.73671 19.5095 4.13544 18.8928C3.53417 18.2761 3.16702 17.4688 3.09733 16.6104C2.85403 13.468 2.7311 10.3153 2.58512 7.16521C2.55695 6.53776 2.50573 6.11006 1.81681 5.77457C0.387741 5.08308 -0.167994 3.5567 0.292995 2.09947C0.506814 1.46945 0.918022 0.925154 1.46563 0.547317C2.01324 0.169481 2.66807 -0.0217601 3.33296 0.00196932C4.0199 0.0226834 4.67888 0.2787 5.19963 0.727188C5.72038 1.17568 6.07128 1.78942 6.19363 2.4657C6.47534 3.97671 5.81971 5.22906 4.40089 5.89749C4.1704 6.00505 3.93479 6.09726 3.51478 6.27654C3.71967 9.70834 3.88101 13.1914 4.15761 16.6641C4.25749 17.9037 5.43813 18.8999 6.55474 18.9691C7.69953 19.0357 8.58309 18.357 8.85969 16.8511C9.11579 15.3939 9.11579 13.8905 9.24384 12.4077C9.40775 10.3742 9.40518 8.31 9.77653 6.31751C10.194 4.09196 11.6538 3.02657 13.5976 3.09059C15.4877 3.15462 16.7964 4.37111 17.1626 6.62227C17.3675 7.87718 17.3188 9.18332 17.4879 10.4331C17.5665 10.8871 17.8168 11.2934 18.187 11.5677C19.5572 12.4615 20.1642 13.8086 19.7237 15.2786C19.5155 15.934 19.0934 16.5007 18.5251 16.8879C17.9568 17.2751 17.2751 17.4606 16.5889 17.4145C15.9245 17.3733 15.2923 17.1137 14.7907 16.676C14.2891 16.2383 13.9462 15.6471 13.8153 14.9943C13.508 13.4321 14.1764 12.1772 15.6977 11.4934L16.5198 11.1195Z" fill="#6B4EFF"/>
</svg>
