<svg width="27" height="12" viewBox="0 0 27 12" fill="none" xmlns="http://www.w3.org/2000/svg">
<path d="M1.5 5.25C1.08579 5.25 0.75 5.58579 0.75 6C0.75 6.41421 1.08579 6.75 1.5 6.75L1.5 5.25ZM26.0303 6.53033C26.3232 6.23744 26.3232 5.76257 26.0303 5.46967L21.2574 0.696701C20.9645 0.403807 20.4896 0.403807 20.1967 0.696701C19.9038 0.989594 19.9038 1.46447 20.1967 1.75736L24.4393 6L20.1967 10.2426C19.9038 10.5355 19.9038 11.0104 20.1967 11.3033C20.4896 11.5962 20.9645 11.5962 21.2574 11.3033L26.0303 6.53033ZM1.5 6.75L25.5 6.75L25.5 5.25L1.5 5.25L1.5 6.75Z" fill="white"/>
</svg>
