<svg width="1280" height="188" viewBox="0 0 1280 188" fill="none" xmlns="http://www.w3.org/2000/svg">
<mask id="mask0_573_379" style="mask-type:alpha" maskUnits="userSpaceOnUse" x="0" y="0" width="1280" height="188">
<rect y="0.43457" width="1280" height="187" rx="16" fill="#F6F6F6"/>
</mask>
<g mask="url(#mask0_573_379)">
<path d="M134.605 -34.3261C167.368 2.03962 146.121 48.0958 84.2055 67.8708C22.2901 87.6457 -53.9059 72.7114 -86.6693 36.3457C-119.433 -0.020061 -98.1856 -46.0763 -36.2702 -65.8512C25.6452 -85.6261 101.841 -70.6919 134.605 -34.3261Z" fill="#F6F6F6" stroke="#0071DC" stroke-width="7"/>
<path d="M1456.57 125.985C1460.27 149.452 1447.54 174.399 1422.56 195.821C1397.66 217.178 1361.11 234.511 1318.79 242.534C1276.47 250.556 1236.73 247.685 1206.73 236.734C1176.64 225.75 1157 206.94 1153.3 183.472C1149.59 160.005 1162.33 135.058 1187.3 113.636C1212.2 92.2792 1248.75 74.9456 1291.07 66.9232C1333.39 58.9008 1373.13 61.7723 1403.13 72.7231C1433.22 83.7067 1452.86 102.517 1456.57 125.985Z" fill="#F6F6F6" stroke="#0071DC" stroke-width="7"/>
</g>
</svg>
