<svg width="41" height="41" viewBox="0 0 41 41" fill="none" xmlns="http://www.w3.org/2000/svg">
<circle cx="20.7129" cy="20.4346" r="20" fill="#333333"/>
<path fill-rule="evenodd" clip-rule="evenodd" d="M21.3976 11.7778C16.2677 11.7778 12.1406 15.9049 12.1406 21.0348C12.1406 25.1233 14.802 28.5947 18.4662 29.829C18.9291 29.9061 19.0834 29.6361 19.0834 29.3661C19.0834 29.1347 19.0834 28.5561 19.0834 27.7847C16.4991 28.3633 15.9591 26.5505 15.9591 26.5505C15.5349 25.4705 14.9177 25.2005 14.9177 25.2005C14.0692 24.6219 14.9949 24.6219 14.9949 24.6219C15.9206 24.6991 16.422 25.5862 16.422 25.5862C17.232 27.0133 18.582 26.589 19.1219 26.3576C19.1991 25.7405 19.4305 25.3548 19.7005 25.1233C17.6563 24.8919 15.4963 24.0819 15.4963 20.5334C15.4963 19.5306 15.8434 18.682 16.4606 18.0649C16.3834 17.8334 16.0363 16.9077 16.5377 15.5963C16.5377 15.5963 17.3091 15.3649 19.0834 16.5606C19.8162 16.3678 20.6262 16.252 21.3976 16.252C22.169 16.252 22.979 16.3678 23.7119 16.5606C25.4861 15.3649 26.2575 15.5963 26.2575 15.5963C26.759 16.8692 26.4504 17.7949 26.3347 18.0649C26.9132 18.7206 27.299 19.5306 27.299 20.5334C27.299 24.0819 25.139 24.8533 23.0562 25.0848C23.4033 25.3548 23.6733 25.9333 23.6733 26.7819C23.6733 28.0161 23.6733 29.019 23.6733 29.3276C23.6733 29.559 23.8276 29.8675 24.329 29.7904C27.9932 28.5947 30.6546 25.1233 30.6546 21.0348C30.6546 15.9049 26.5275 11.7778 21.3976 11.7778Z" fill="#FF8C00"/>
</svg>
