<svg width="41" height="41" viewBox="0 0 41 41" fill="none" xmlns="http://www.w3.org/2000/svg">
<circle cx="20.4277" cy="20.4346" r="20" fill="#333333"/>
<path d="M20.1067 12.1783C22.6905 12.1783 22.9965 12.188 24.0172 12.2346C24.6309 12.2421 25.2387 12.3548 25.8143 12.5677C26.2318 12.7287 26.6108 12.9753 26.9272 13.2917C27.2435 13.6081 27.4901 13.9872 27.6511 14.4046C27.8641 14.9802 27.9768 15.5881 27.9843 16.2018C28.0304 17.2226 28.0405 17.5286 28.0405 20.1124C28.0405 22.6963 28.0308 23.0023 27.9843 24.023C27.9768 24.6367 27.8641 25.2446 27.6511 25.8203C27.4901 26.2377 27.2435 26.6168 26.9272 26.9332C26.6108 27.2495 26.2318 27.4961 25.8143 27.6571C25.2387 27.8701 24.6309 27.9828 24.0172 27.9903C22.9969 28.0364 22.691 28.0465 20.1067 28.0465C17.5225 28.0465 17.2165 28.0368 16.1963 27.9903C15.5826 27.9828 14.9747 27.8701 14.3991 27.6571C13.9817 27.4961 13.6026 27.2495 13.2863 26.9332C12.9699 26.6168 12.7233 26.2377 12.5623 25.8203C12.3494 25.2446 12.2367 24.6367 12.2292 24.023C12.1831 23.0023 12.1729 22.6963 12.1729 20.1124C12.1729 17.5286 12.1826 17.2226 12.2292 16.2018C12.2367 15.5881 12.3494 14.9802 12.5623 14.4046C12.7233 13.9872 12.9699 13.6081 13.2863 13.2917C13.6026 12.9753 13.9817 12.7287 14.3991 12.5677C14.9747 12.3548 15.5826 12.2421 16.1963 12.2346C17.217 12.1885 17.523 12.1783 20.1067 12.1783ZM20.1067 10.4346C17.4801 10.4346 17.1492 10.4456 16.117 10.4926C15.3138 10.5086 14.5192 10.6607 13.7669 10.9424C13.1215 11.1856 12.537 11.5666 12.054 12.059C11.5613 12.5421 11.1799 13.127 10.9366 13.7728C10.6549 14.5252 10.5028 15.3198 10.4868 16.123C10.4407 17.1544 10.4297 17.4853 10.4297 20.112C10.4297 22.7387 10.4407 23.0696 10.4877 24.1018C10.5037 24.905 10.6558 25.6997 10.9375 26.4521C11.1805 27.0978 11.5616 27.6827 12.054 28.1659C12.5372 28.6584 13.1221 29.0394 13.7678 29.2825C14.5201 29.5642 15.3148 29.7163 16.1179 29.7322C17.1502 29.7783 17.4796 29.7903 20.1076 29.7903C22.7357 29.7903 23.0651 29.7792 24.0974 29.7322C24.9005 29.7163 25.6952 29.5642 26.4475 29.2825C27.0901 29.0334 27.6737 28.6529 28.1609 28.1653C28.6481 27.6778 29.0282 27.094 29.2769 26.4511C29.5586 25.6988 29.7106 24.9041 29.7266 24.1009C29.7727 23.0696 29.7838 22.7387 29.7838 20.112C29.7838 17.4853 29.7727 17.1544 29.7257 16.1221C29.7097 15.3189 29.5576 14.5242 29.2759 13.7719C29.0329 13.1262 28.6519 12.5413 28.1594 12.0581C27.6762 11.5656 27.0913 11.1845 26.4456 10.9415C25.6933 10.6598 24.8987 10.5077 24.0955 10.4917C23.0642 10.4456 22.7333 10.4346 20.1067 10.4346Z" fill="#FF8C00"/>
<path d="M20.1087 15.1444C19.1259 15.1444 18.1651 15.4358 17.3479 15.9819C16.5307 16.528 15.8937 17.3041 15.5176 18.2122C15.1415 19.1203 15.0431 20.1195 15.2348 21.0835C15.4266 22.0475 15.8998 22.933 16.5948 23.628C17.2898 24.323 18.1753 24.7963 19.1392 24.9881C20.1032 25.1798 21.1024 25.0814 22.0104 24.7053C22.9185 24.3291 23.6946 23.6922 24.2406 22.8749C24.7867 22.0577 25.0781 21.0969 25.0781 20.114C25.0781 18.7959 24.5545 17.5319 23.6226 16.5999C22.6907 15.668 21.4267 15.1444 20.1087 15.1444ZM20.1087 23.3398C19.4707 23.3398 18.8471 23.1506 18.3166 22.7961C17.7862 22.4417 17.3727 21.9379 17.1286 21.3484C16.8844 20.759 16.8206 20.1104 16.945 19.4846C17.0695 18.8589 17.3767 18.2841 17.8278 17.833C18.2789 17.3818 18.8537 17.0746 19.4794 16.9501C20.1051 16.8257 20.7537 16.8896 21.3431 17.1337C21.9325 17.3779 22.4363 17.7913 22.7908 18.3218C23.1452 18.8523 23.3344 19.476 23.3344 20.114C23.3344 20.9695 22.9945 21.79 22.3896 22.3949C21.7847 22.9999 20.9642 23.3398 20.1087 23.3398Z" fill="#FF8C00"/>
<path d="M25.2734 16.1081C25.9148 16.1081 26.4347 15.5882 26.4347 14.9469C26.4347 14.3055 25.9148 13.7856 25.2734 13.7856C24.6321 13.7856 24.1122 14.3055 24.1122 14.9469C24.1122 15.5882 24.6321 16.1081 25.2734 16.1081Z" fill="#FF8C00"/>
</svg>
