<svg width="200" height="42" viewBox="0 0 200 42" fill="none" xmlns="http://www.w3.org/2000/svg">
<path d="M52.5012 21.5C52.5012 24.9855 51.3732 28.3756 49.2886 31.1549C47.204 33.9343 44.277 35.9508 40.9524 36.8979C37.6279 37.8451 34.0878 37.671 30.8703 36.4021C27.6528 35.1333 24.9339 32.8391 23.1271 29.8684C21.3203 26.8977 20.5244 23.413 20.8603 19.944C21.1963 16.4751 22.6457 13.2117 24.9883 10.6501C27.3309 8.08846 30.4384 6.36868 33.8385 5.75223C37.2386 5.13579 40.7452 5.6564 43.8251 7.23492" stroke="#FF8C00" stroke-width="6" stroke-linecap="round" stroke-linejoin="round"/>
<path d="M83.008 31.884C81.2587 31.884 79.6693 31.468 78.24 30.636C76.8107 29.804 75.6693 28.588 74.816 26.988C73.984 25.3667 73.568 23.404 73.568 21.1C73.568 18.8173 73.9947 16.8653 74.848 15.244C75.7227 13.6013 76.8853 12.3533 78.336 11.5C79.7867 10.6253 81.3867 10.188 83.136 10.188C84.4587 10.188 85.632 10.4547 86.656 10.988C87.68 11.5213 88.5227 12.14 89.184 12.844L87.2 15.244C86.6667 14.6893 86.0693 14.252 85.408 13.932C84.768 13.5907 84.0427 13.42 83.232 13.42C82.1013 13.42 81.088 13.7293 80.192 14.348C79.3173 14.9453 78.624 15.8093 78.112 16.94C77.6213 18.0707 77.376 19.4253 77.376 21.004C77.376 23.3933 77.8987 25.2707 78.944 26.636C79.9893 27.98 81.3867 28.652 83.136 28.652C84.0747 28.652 84.9067 28.46 85.632 28.076C86.3573 27.6707 87.0187 27.148 87.616 26.508L89.6 28.844C88.7467 29.8253 87.7653 30.5827 86.656 31.116C85.568 31.628 84.352 31.884 83.008 31.884ZM92.7735 31.5V15.788H96.4535V31.5H92.7735ZM94.6295 13.036C93.9682 13.036 93.4348 12.844 93.0295 12.46C92.6242 12.076 92.4215 11.564 92.4215 10.924C92.4215 10.3053 92.6242 9.804 93.0295 9.42C93.4348 9.036 93.9682 8.844 94.6295 8.844C95.2908 8.844 95.8242 9.036 96.2295 9.42C96.6348 9.804 96.8375 10.3053 96.8375 10.924C96.8375 11.564 96.6348 12.076 96.2295 12.46C95.8242 12.844 95.2908 13.036 94.6295 13.036ZM101.149 31.5V15.788H104.189L104.445 18.572H104.573C105.127 17.548 105.799 16.7693 106.589 16.236C107.378 15.6813 108.189 15.404 109.021 15.404C109.767 15.404 110.365 15.5107 110.813 15.724L110.173 18.924C109.895 18.8387 109.639 18.7747 109.405 18.732C109.17 18.6893 108.882 18.668 108.541 18.668C107.922 18.668 107.271 18.9133 106.589 19.404C105.906 19.8733 105.319 20.7053 104.829 21.9V31.5H101.149ZM119.334 31.884C117.904 31.884 116.614 31.564 115.462 30.924C114.331 30.2627 113.424 29.324 112.742 28.108C112.08 26.8707 111.75 25.388 111.75 23.66C111.75 21.9107 112.112 20.428 112.838 19.212C113.563 17.9747 114.523 17.036 115.718 16.396C116.934 15.7347 118.235 15.404 119.622 15.404C120.624 15.404 121.499 15.5747 122.246 15.916C122.992 16.2573 123.654 16.6733 124.23 17.164L122.438 19.564C122.032 19.2013 121.616 18.924 121.19 18.732C120.763 18.5187 120.304 18.412 119.814 18.412C118.555 18.412 117.52 18.892 116.71 19.852C115.92 20.812 115.526 22.0813 115.526 23.66C115.526 25.2173 115.91 26.476 116.678 27.436C117.467 28.396 118.48 28.876 119.718 28.876C120.336 28.876 120.912 28.748 121.446 28.492C122 28.2147 122.502 27.8947 122.95 27.532L124.454 29.964C123.728 30.604 122.918 31.084 122.022 31.404C121.126 31.724 120.23 31.884 119.334 31.884ZM131.139 31.884C129.837 31.884 128.909 31.4893 128.355 30.7C127.821 29.9107 127.555 28.8333 127.555 27.468V8.908H131.235V27.66C131.235 28.108 131.32 28.428 131.491 28.62C131.661 28.7907 131.843 28.876 132.035 28.876C132.12 28.876 132.195 28.876 132.259 28.876C132.344 28.8547 132.461 28.8333 132.611 28.812L133.091 31.564C132.877 31.6493 132.6 31.724 132.259 31.788C131.939 31.852 131.565 31.884 131.139 31.884ZM142.962 31.884C141.512 31.884 140.2 31.564 139.026 30.924C137.853 30.2627 136.925 29.324 136.242 28.108C135.56 26.8707 135.218 25.388 135.218 23.66C135.218 21.9533 135.56 20.4813 136.242 19.244C136.946 18.0067 137.853 17.0573 138.962 16.396C140.072 15.7347 141.234 15.404 142.45 15.404C143.88 15.404 145.074 15.724 146.034 16.364C146.994 16.9827 147.72 17.8573 148.21 18.988C148.701 20.0973 148.946 21.388 148.946 22.86C148.946 23.628 148.893 24.2253 148.786 24.652H138.802C138.973 26.0387 139.474 27.116 140.306 27.884C141.138 28.652 142.184 29.036 143.442 29.036C144.125 29.036 144.754 28.94 145.33 28.748C145.928 28.5347 146.514 28.2467 147.09 27.884L148.338 30.188C147.592 30.6787 146.76 31.084 145.842 31.404C144.925 31.724 143.965 31.884 142.962 31.884ZM138.77 22.156H145.746C145.746 20.94 145.48 19.9907 144.946 19.308C144.413 18.604 143.613 18.252 142.546 18.252C141.629 18.252 140.808 18.5933 140.082 19.276C139.378 19.9373 138.941 20.8973 138.77 22.156Z" fill="white"/>
</svg>
