<svg width="106" height="17" viewBox="0 0 106 17" fill="none" xmlns="http://www.w3.org/2000/svg">
<path d="M8 0.93457L9.69282 6.6046L15.6085 6.46243L10.739 9.82454L12.7023 15.4067L8 11.8146L3.29772 15.4067L5.26096 9.82454L0.391548 6.46243L6.30718 6.6046L8 0.93457Z" fill="#025206"/>
<path d="M30.4082 0.93457L32.101 6.6046L38.0167 6.46243L33.1472 9.82454L35.1105 15.4067L30.4082 11.8146L25.7059 15.4067L27.6692 9.82454L22.7998 6.46243L28.7154 6.6046L30.4082 0.93457Z" fill="#025206"/>
<path d="M52.8164 0.93457L54.5092 6.6046L60.4249 6.46243L55.5554 9.82454L57.5187 15.4067L52.8164 11.8146L48.1141 15.4067L50.0774 9.82454L45.208 6.46243L51.1236 6.6046L52.8164 0.93457Z" fill="#025206"/>
<path d="M75.2246 0.93457L76.9174 6.6046L82.8331 6.46243L77.9637 9.82454L79.9269 15.4067L75.2246 11.8146L70.5223 15.4067L72.4856 9.82454L67.6162 6.46243L73.5318 6.6046L75.2246 0.93457Z" fill="#025206"/>
<path d="M97.6328 0.93457L99.3256 6.6046L105.241 6.46243L100.372 9.82454L102.335 15.4067L97.6328 11.8146L92.9305 15.4067L94.8938 9.82454L90.0244 6.46243L95.94 6.6046L97.6328 0.93457Z" fill="#C4C4C4"/>
</svg>
