<svg width="41" height="41" viewBox="0 0 41 41" fill="none" xmlns="http://www.w3.org/2000/svg">
<circle cx="20.2852" cy="20.4346" r="20" fill="#333333"/>
<path d="M29.1053 16.2167C28.5067 16.4828 27.8749 16.649 27.2098 16.7488C27.8749 16.3497 28.407 15.7179 28.6398 14.953C28.0079 15.3188 27.3095 15.5849 26.5446 15.7511C25.946 15.1193 25.0814 14.7202 24.1502 14.7202C22.3544 14.7202 20.8912 16.1835 20.8912 17.9793C20.8912 18.2453 20.9244 18.4781 20.9909 18.7109C18.2972 18.5779 15.8695 17.2809 14.24 15.2856C13.974 15.7844 13.8077 16.3165 13.8077 16.9151C13.8077 18.0458 14.373 19.0435 15.2709 19.6421C14.7389 19.6088 14.24 19.4758 13.7744 19.243V19.2763C13.7744 20.8725 14.9051 22.2028 16.4016 22.5021C16.1356 22.5686 15.8363 22.6018 15.537 22.6018C15.3375 22.6018 15.1047 22.5686 14.9051 22.5353C15.3375 23.8323 16.5347 24.7967 17.9647 24.7967C16.834 25.6614 15.4372 26.1934 13.9075 26.1934C13.6414 26.1934 13.3754 26.1934 13.1426 26.1602C14.6058 27.0913 16.3019 27.6234 18.1642 27.6234C24.1835 27.6234 27.4758 22.6351 27.4758 18.3118C27.4758 18.1788 27.4758 18.0125 27.4758 17.8795C28.1077 17.4472 28.673 16.8818 29.1053 16.2167Z" fill="#FF8C00"/>
</svg>
